{
  "asset": {
    "generator": "Khronos glTF Blender I/O v5.2.39",
    "version": "2.0"
  },
  "extensionsUsed": [
    "KHR_materials_specular"
  ],
  "scene": 0,
  "scenes": [
    {
      "name": "Scene",
      "nodes": [
        0
      ]
    }
  ],
  "nodes": [
    {
      "mesh": 0,
      "name": "SM_RuneStone_06",
      "translation": [
        0.00045940279960632324,
        1.411985993385315,
        -0.0020143985748291016
      ]
    }
  ],
  "materials": [
    {
      "doubleSided": true,
      "extensions": {
        "KHR_materials_specular": {
          "specularColorFactor": [
            2.0,
            2.0,
            2.0
          ]
        }
      },
      "name": "M_Atlas",
      "normalTexture": {
        "index": 1
      },
      "pbrMetallicRoughness": {
        "baseColorTexture": {
          "index": 0
        },
        "metallicFactor": 0.0,
        "roughnessFactor": 0.85
      },
      "alphaMode": "OPAQUE"
    }
  ],
  "meshes": [
    {
      "name": "SM_RuneStone_06",
      "primitives": [
        {
          "attributes": {
            "POSITION": 0,
            "NORMAL": 1,
            "TEXCOORD_0": 2,
            "TEXCOORD_1": 3,
            "COLOR_0": 4,
            "COLOR_1": 5
          },
          "indices": 6,
          "material": 0
        }
      ]
    }
  ],
  "textures": [
    {
      "source": 0
    },
    {
      "source": 1
    }
  ],
  "images": [
    {
      "uri": "textures/T_Atlas_01.png"
    },
    {
      "uri": "textures/T_BasePolygon_N.png"
    }
  ],
  "accessors": [
    {
      "bufferView": 0,
      "componentType": 5126,
      "count": 810,
      "max": [
        0.6549280285835266,
        2.8024072647094727,
        0.6567727327346802
      ],
      "min": [
        -0.6558468341827393,
        -1.411985993385315,
        -0.652743935585022
      ],
      "type": "VEC3"
    },
    {
      "bufferView": 1,
      "componentType": 5126,
      "count": 810,
      "type": "VEC3"
    },
    {
      "bufferView": 2,
      "componentType": 5126,
      "count": 810,
      "type": "VEC2"
    },
    {
      "bufferView": 3,
      "componentType": 5126,
      "count": 810,
      "type": "VEC2"
    },
    {
      "bufferView": 4,
      "componentType": 5121,
      "count": 810,
      "normalized": true,
      "type": "VEC4"
    },
    {
      "bufferView": 5,
      "componentType": 5123,
      "count": 810,
      "normalized": true,
      "type": "VEC4"
    },
    {
      "bufferView": 6,
      "componentType": 5123,
      "count": 1434,
      "type": "SCALAR"
    }
  ],
  "bufferViews": [
    {
      "buffer": 0,
      "byteLength": 9720,
      "byteOffset": 0,
      "target": 34962
    },
    {
      "buffer": 0,
      "byteLength": 9720,
      "byteOffset": 9720,
      "target": 34962
    },
    {
      "buffer": 0,
      "byteLength": 6480,
      "byteOffset": 19440,
      "target": 34962
    },
    {
      "buffer": 0,
      "byteLength": 6480,
      "byteOffset": 25920,
      "target": 34962
    },
    {
      "buffer": 0,
      "byteLength": 3240,
      "byteOffset": 32400,
      "target": 34962
    },
    {
      "buffer": 0,
      "byteLength": 6480,
      "byteOffset": 35640,
      "target": 34962
    },
    {
      "buffer": 0,
      "byteLength": 2868,
      "byteOffset": 42120,
      "target": 34963
    }
  ],
  "samplers": [
    {
      "magFilter": 9729,
      "minFilter": 9987
    }
  ],
  "buffers": [
    {
      "byteLength": 44988,
      "uri": "runestone_06.bin"
    }
  ]
}