{
  "asset": {
    "generator": "Khronos glTF Blender I/O v5.2.39",
    "version": "2.0"
  },
  "extensionsUsed": [
    "KHR_materials_specular"
  ],
  "scene": 0,
  "scenes": [
    {
      "name": "Scene",
      "nodes": [
        0
      ]
    }
  ],
  "nodes": [
    {
      "mesh": 0,
      "name": "SM_Rune_01",
      "translation": [
        5.336105823516846e-05,
        0.051213059574365616,
        0.010765030980110168
      ]
    }
  ],
  "materials": [
    {
      "doubleSided": true,
      "extensions": {
        "KHR_materials_specular": {
          "specularColorFactor": [
            2.0,
            2.0,
            2.0
          ]
        }
      },
      "name": "M_Atlas",
      "normalTexture": {
        "index": 1
      },
      "pbrMetallicRoughness": {
        "baseColorTexture": {
          "index": 0
        },
        "metallicFactor": 0.0,
        "roughnessFactor": 0.85
      },
      "alphaMode": "OPAQUE"
    }
  ],
  "meshes": [
    {
      "name": "SM_Rune_01",
      "primitives": [
        {
          "attributes": {
            "POSITION": 0,
            "NORMAL": 1,
            "TEXCOORD_0": 2,
            "TEXCOORD_1": 3,
            "COLOR_0": 4,
            "COLOR_1": 5
          },
          "indices": 6,
          "material": 0
        }
      ]
    }
  ],
  "textures": [
    {
      "source": 0
    },
    {
      "source": 1
    }
  ],
  "images": [
    {
      "uri": "textures/T_Atlas_01.png"
    },
    {
      "uri": "textures/T_BasePolygon_N.png"
    }
  ],
  "accessors": [
    {
      "bufferView": 0,
      "componentType": 5126,
      "count": 2240,
      "max": [
        0.35083404183387756,
        0.8403821587562561,
        0.25746577978134155
      ],
      "min": [
        -0.3509407639503479,
        -0.051213059574365616,
        -0.2789958417415619
      ],
      "type": "VEC3"
    },
    {
      "bufferView": 1,
      "componentType": 5126,
      "count": 2240,
      "type": "VEC3"
    },
    {
      "bufferView": 2,
      "componentType": 5126,
      "count": 2240,
      "type": "VEC2"
    },
    {
      "bufferView": 3,
      "componentType": 5126,
      "count": 2240,
      "type": "VEC2"
    },
    {
      "bufferView": 4,
      "componentType": 5121,
      "count": 2240,
      "normalized": true,
      "type": "VEC4"
    },
    {
      "bufferView": 5,
      "componentType": 5123,
      "count": 2240,
      "normalized": true,
      "type": "VEC4"
    },
    {
      "bufferView": 6,
      "componentType": 5123,
      "count": 2346,
      "type": "SCALAR"
    }
  ],
  "bufferViews": [
    {
      "buffer": 0,
      "byteLength": 26880,
      "byteOffset": 0,
      "target": 34962
    },
    {
      "buffer": 0,
      "byteLength": 26880,
      "byteOffset": 26880,
      "target": 34962
    },
    {
      "buffer": 0,
      "byteLength": 17920,
      "byteOffset": 53760,
      "target": 34962
    },
    {
      "buffer": 0,
      "byteLength": 17920,
      "byteOffset": 71680,
      "target": 34962
    },
    {
      "buffer": 0,
      "byteLength": 8960,
      "byteOffset": 89600,
      "target": 34962
    },
    {
      "buffer": 0,
      "byteLength": 17920,
      "byteOffset": 98560,
      "target": 34962
    },
    {
      "buffer": 0,
      "byteLength": 4692,
      "byteOffset": 116480,
      "target": 34963
    }
  ],
  "samplers": [
    {
      "magFilter": 9729,
      "minFilter": 9987
    }
  ],
  "buffers": [
    {
      "byteLength": 121172,
      "uri": "rune_01.bin"
    }
  ]
}