{
  "asset": {
    "generator": "Khronos glTF Blender I/O v5.2.39",
    "version": "2.0"
  },
  "extensionsUsed": [
    "KHR_materials_specular"
  ],
  "scene": 0,
  "scenes": [
    {
      "name": "Scene",
      "nodes": [
        0
      ]
    }
  ],
  "nodes": [
    {
      "mesh": 0,
      "name": "SM_FoliageBush_01",
      "translation": [
        -0.2641528844833374,
        0.09165746718645096,
        -0.07826647162437439
      ]
    }
  ],
  "materials": [
    {
      "alphaMode": "MASK",
      "doubleSided": true,
      "extensions": {
        "KHR_materials_specular": {
          "specularColorFactor": [
            2.0,
            2.0,
            2.0
          ]
        }
      },
      "name": "M_Bush",
      "pbrMetallicRoughness": {
        "baseColorTexture": {
          "index": 0
        },
        "metallicFactor": 0.0,
        "roughnessFactor": 0.85
      },
      "alphaCutoff": 0.4
    }
  ],
  "meshes": [
    {
      "name": "SM_FoliageBush_01",
      "primitives": [
        {
          "attributes": {
            "POSITION": 0,
            "NORMAL": 1,
            "TEXCOORD_0": 2,
            "TEXCOORD_1": 3,
            "COLOR_0": 4,
            "COLOR_1": 5
          },
          "indices": 6,
          "material": 0
        }
      ]
    }
  ],
  "textures": [
    {
      "source": 0
    }
  ],
  "images": [
    {
      "uri": "textures/T_Bush_BCA.png"
    }
  ],
  "accessors": [
    {
      "bufferView": 0,
      "componentType": 5126,
      "count": 5498,
      "max": [
        1.1728672981262207,
        1.323101282119751,
        0.8578475117683411
      ],
      "min": [
        -0.6445615291595459,
        -0.09165746718645096,
        -0.7013145685195923
      ],
      "type": "VEC3"
    },
    {
      "bufferView": 1,
      "componentType": 5126,
      "count": 5498,
      "type": "VEC3"
    },
    {
      "bufferView": 2,
      "componentType": 5126,
      "count": 5498,
      "type": "VEC2"
    },
    {
      "bufferView": 3,
      "componentType": 5126,
      "count": 5498,
      "type": "VEC2"
    },
    {
      "bufferView": 4,
      "componentType": 5121,
      "count": 5498,
      "normalized": true,
      "type": "VEC4"
    },
    {
      "bufferView": 5,
      "componentType": 5123,
      "count": 5498,
      "normalized": true,
      "type": "VEC4"
    },
    {
      "bufferView": 6,
      "componentType": 5123,
      "count": 14736,
      "type": "SCALAR"
    }
  ],
  "bufferViews": [
    {
      "buffer": 0,
      "byteLength": 65976,
      "byteOffset": 0,
      "target": 34962
    },
    {
      "buffer": 0,
      "byteLength": 65976,
      "byteOffset": 65976,
      "target": 34962
    },
    {
      "buffer": 0,
      "byteLength": 43984,
      "byteOffset": 131952,
      "target": 34962
    },
    {
      "buffer": 0,
      "byteLength": 43984,
      "byteOffset": 175936,
      "target": 34962
    },
    {
      "buffer": 0,
      "byteLength": 21992,
      "byteOffset": 219920,
      "target": 34962
    },
    {
      "buffer": 0,
      "byteLength": 43984,
      "byteOffset": 241912,
      "target": 34962
    },
    {
      "buffer": 0,
      "byteLength": 29472,
      "byteOffset": 285896,
      "target": 34963
    }
  ],
  "samplers": [
    {
      "magFilter": 9729,
      "minFilter": 9987
    }
  ],
  "buffers": [
    {
      "byteLength": 315368,
      "uri": "foliagebush_01.bin"
    }
  ]
}