{
  "asset": {
    "generator": "Khronos glTF Blender I/O v5.2.39",
    "version": "2.0"
  },
  "extensionsUsed": [
    "KHR_materials_specular"
  ],
  "scene": 0,
  "scenes": [
    {
      "name": "Scene",
      "nodes": [
        0
      ]
    }
  ],
  "nodes": [
    {
      "mesh": 0,
      "name": "SM_Thorn_06",
      "translation": [
        0,
        0.20365460216999054,
        -0.27974969148635864
      ]
    }
  ],
  "materials": [
    {
      "doubleSided": true,
      "extensions": {
        "KHR_materials_specular": {
          "specularColorFactor": [
            2.0,
            2.0,
            2.0
          ]
        }
      },
      "name": "M_Atlas",
      "normalTexture": {
        "index": 1
      },
      "pbrMetallicRoughness": {
        "baseColorTexture": {
          "index": 0
        },
        "metallicFactor": 0.0,
        "roughnessFactor": 0.85
      },
      "alphaMode": "OPAQUE"
    }
  ],
  "meshes": [
    {
      "name": "SM_Thorn_06",
      "primitives": [
        {
          "attributes": {
            "POSITION": 0,
            "NORMAL": 1,
            "TEXCOORD_0": 2,
            "TEXCOORD_1": 3,
            "COLOR_0": 4,
            "COLOR_1": 5
          },
          "indices": 6,
          "material": 0
        }
      ]
    }
  ],
  "textures": [
    {
      "source": 0
    },
    {
      "source": 1
    }
  ],
  "images": [
    {
      "uri": "textures/T_Atlas_01.png"
    },
    {
      "uri": "textures/T_BasePolygon_N.png"
    }
  ],
  "accessors": [
    {
      "bufferView": 0,
      "componentType": 5126,
      "count": 402,
      "max": [
        0.8680305480957031,
        0.9568098783493042,
        0.923672616481781
      ],
      "min": [
        -0.8680293560028076,
        -0.20365460216999054,
        -0.3641732633113861
      ],
      "type": "VEC3"
    },
    {
      "bufferView": 1,
      "componentType": 5126,
      "count": 402,
      "type": "VEC3"
    },
    {
      "bufferView": 2,
      "componentType": 5126,
      "count": 402,
      "type": "VEC2"
    },
    {
      "bufferView": 3,
      "componentType": 5126,
      "count": 402,
      "type": "VEC2"
    },
    {
      "bufferView": 4,
      "componentType": 5121,
      "count": 402,
      "normalized": true,
      "type": "VEC4"
    },
    {
      "bufferView": 5,
      "componentType": 5123,
      "count": 402,
      "normalized": true,
      "type": "VEC4"
    },
    {
      "bufferView": 6,
      "componentType": 5123,
      "count": 552,
      "type": "SCALAR"
    }
  ],
  "bufferViews": [
    {
      "buffer": 0,
      "byteLength": 4824,
      "byteOffset": 0,
      "target": 34962
    },
    {
      "buffer": 0,
      "byteLength": 4824,
      "byteOffset": 4824,
      "target": 34962
    },
    {
      "buffer": 0,
      "byteLength": 3216,
      "byteOffset": 9648,
      "target": 34962
    },
    {
      "buffer": 0,
      "byteLength": 3216,
      "byteOffset": 12864,
      "target": 34962
    },
    {
      "buffer": 0,
      "byteLength": 1608,
      "byteOffset": 16080,
      "target": 34962
    },
    {
      "buffer": 0,
      "byteLength": 3216,
      "byteOffset": 17688,
      "target": 34962
    },
    {
      "buffer": 0,
      "byteLength": 1104,
      "byteOffset": 20904,
      "target": 34963
    }
  ],
  "samplers": [
    {
      "magFilter": 9729,
      "minFilter": 9987
    }
  ],
  "buffers": [
    {
      "byteLength": 22008,
      "uri": "thorn_06.bin"
    }
  ]
}