{
  "asset": {
    "generator": "Khronos glTF Blender I/O v5.2.39",
    "version": "2.0"
  },
  "extensionsUsed": [
    "KHR_materials_specular"
  ],
  "scene": 0,
  "scenes": [
    {
      "name": "Scene",
      "nodes": [
        0
      ]
    }
  ],
  "nodes": [
    {
      "mesh": 0,
      "name": "SM_Tree_07",
      "translation": [
        0.01626068353652954,
        -0.008440629579126835,
        -0.08430838584899902
      ]
    }
  ],
  "materials": [
    {
      "doubleSided": true,
      "extensions": {
        "KHR_materials_specular": {
          "specularColorFactor": [
            2.0,
            2.0,
            2.0
          ]
        }
      },
      "name": "M_Atlas",
      "normalTexture": {
        "index": 1
      },
      "pbrMetallicRoughness": {
        "baseColorTexture": {
          "index": 0
        },
        "metallicFactor": 0.0,
        "roughnessFactor": 0.85
      },
      "alphaMode": "OPAQUE"
    }
  ],
  "meshes": [
    {
      "name": "SM_Tree_07",
      "primitives": [
        {
          "attributes": {
            "POSITION": 0,
            "NORMAL": 1,
            "TEXCOORD_0": 2,
            "TEXCOORD_1": 3,
            "COLOR_0": 4,
            "COLOR_1": 5
          },
          "indices": 6,
          "material": 0
        }
      ]
    }
  ],
  "textures": [
    {
      "source": 0
    },
    {
      "source": 1
    }
  ],
  "images": [
    {
      "uri": "textures/T_Atlas_01.png"
    },
    {
      "uri": "textures/T_BasePolygon_N.png"
    }
  ],
  "accessors": [
    {
      "bufferView": 0,
      "componentType": 5126,
      "count": 714,
      "max": [
        1.963747501373291,
        7.668427467346191,
        1.4397385120391846
      ],
      "min": [
        -1.99626886844635,
        0.008440629579126835,
        -1.2711217403411865
      ],
      "type": "VEC3"
    },
    {
      "bufferView": 1,
      "componentType": 5126,
      "count": 714,
      "type": "VEC3"
    },
    {
      "bufferView": 2,
      "componentType": 5126,
      "count": 714,
      "type": "VEC2"
    },
    {
      "bufferView": 3,
      "componentType": 5126,
      "count": 714,
      "type": "VEC2"
    },
    {
      "bufferView": 4,
      "componentType": 5121,
      "count": 714,
      "normalized": true,
      "type": "VEC4"
    },
    {
      "bufferView": 5,
      "componentType": 5123,
      "count": 714,
      "normalized": true,
      "type": "VEC4"
    },
    {
      "bufferView": 6,
      "componentType": 5123,
      "count": 714,
      "type": "SCALAR"
    }
  ],
  "bufferViews": [
    {
      "buffer": 0,
      "byteLength": 8568,
      "byteOffset": 0,
      "target": 34962
    },
    {
      "buffer": 0,
      "byteLength": 8568,
      "byteOffset": 8568,
      "target": 34962
    },
    {
      "buffer": 0,
      "byteLength": 5712,
      "byteOffset": 17136,
      "target": 34962
    },
    {
      "buffer": 0,
      "byteLength": 5712,
      "byteOffset": 22848,
      "target": 34962
    },
    {
      "buffer": 0,
      "byteLength": 2856,
      "byteOffset": 28560,
      "target": 34962
    },
    {
      "buffer": 0,
      "byteLength": 5712,
      "byteOffset": 31416,
      "target": 34962
    },
    {
      "buffer": 0,
      "byteLength": 1428,
      "byteOffset": 37128,
      "target": 34963
    }
  ],
  "samplers": [
    {
      "magFilter": 9729,
      "minFilter": 9987
    }
  ],
  "buffers": [
    {
      "byteLength": 38556,
      "uri": "tree_07.bin"
    }
  ]
}