{
  "asset": {
    "generator": "Khronos glTF Blender I/O v5.2.39",
    "version": "2.0"
  },
  "scene": 0,
  "scenes": [
    {
      "name": "Scene",
      "nodes": [
        0
      ]
    }
  ],
  "nodes": [
    {
      "mesh": 0,
      "name": "Dock Platform",
      "rotation": [
        0.7071068286895752,
        0,
        0,
        0.7071068286895752
      ],
      "scale": [
        0.009999999776482582,
        0.009999999776482582,
        0.009999999776482582
      ],
      "translation": [
        0,
        4.2408552169799805,
        0.1986236572265625
      ]
    }
  ],
  "materials": [
    {
      "doubleSided": true,
      "name": "Weathered Wood",
      "pbrMetallicRoughness": {
        "baseColorTexture": {
          "index": 0
        },
        "metallicFactor": 0.0,
        "roughnessFactor": 0.75
      }
    },
    {
      "doubleSided": true,
      "name": "Metal Iron",
      "pbrMetallicRoughness": {
        "baseColorTexture": {
          "index": 1
        },
        "metallicFactor": 0.0,
        "roughnessFactor": 0.75
      }
    }
  ],
  "meshes": [
    {
      "name": "Cube.136",
      "primitives": [
        {
          "attributes": {
            "POSITION": 0,
            "NORMAL": 1,
            "TEXCOORD_0": 2
          },
          "indices": 3,
          "material": 0
        },
        {
          "attributes": {
            "POSITION": 4,
            "NORMAL": 5,
            "TEXCOORD_0": 6
          },
          "indices": 7,
          "material": 1
        }
      ]
    }
  ],
  "textures": [
    {
      "source": 0
    },
    {
      "source": 1
    }
  ],
  "images": [
    {
      "uri": "textures/wood_weather_color.png"
    },
    {
      "uri": "textures/iron_color.png"
    }
  ],
  "accessors": [
    {
      "bufferView": 0,
      "componentType": 5126,
      "count": 1928,
      "max": [
        216.14913940429688,
        155.26124572753906,
        424.08551025390625
      ],
      "min": [
        -216.1487579345703,
        -194.98597717285156,
        -67.45573425292969
      ],
      "type": "VEC3"
    },
    {
      "bufferView": 1,
      "componentType": 5126,
      "count": 1928,
      "type": "VEC3"
    },
    {
      "bufferView": 2,
      "componentType": 5126,
      "count": 1928,
      "type": "VEC2"
    },
    {
      "bufferView": 3,
      "componentType": 5123,
      "count": 3144,
      "type": "SCALAR"
    },
    {
      "bufferView": 4,
      "componentType": 5126,
      "count": 312,
      "max": [
        142.1064453125,
        141.28038024902344,
        -22.320785522460938
      ],
      "min": [
        -142.10604858398438,
        -180.5713653564453,
        -23.224105834960938
      ],
      "type": "VEC3"
    },
    {
      "bufferView": 5,
      "componentType": 5126,
      "count": 312,
      "type": "VEC3"
    },
    {
      "bufferView": 6,
      "componentType": 5126,
      "count": 312,
      "type": "VEC2"
    },
    {
      "bufferView": 7,
      "componentType": 5123,
      "count": 720,
      "type": "SCALAR"
    }
  ],
  "bufferViews": [
    {
      "buffer": 0,
      "byteLength": 23136,
      "byteOffset": 0,
      "target": 34962
    },
    {
      "buffer": 0,
      "byteLength": 23136,
      "byteOffset": 23136,
      "target": 34962
    },
    {
      "buffer": 0,
      "byteLength": 15424,
      "byteOffset": 46272,
      "target": 34962
    },
    {
      "buffer": 0,
      "byteLength": 6288,
      "byteOffset": 61696,
      "target": 34963
    },
    {
      "buffer": 0,
      "byteLength": 3744,
      "byteOffset": 67984,
      "target": 34962
    },
    {
      "buffer": 0,
      "byteLength": 3744,
      "byteOffset": 71728,
      "target": 34962
    },
    {
      "buffer": 0,
      "byteLength": 2496,
      "byteOffset": 75472,
      "target": 34962
    },
    {
      "buffer": 0,
      "byteLength": 1440,
      "byteOffset": 77968,
      "target": 34963
    }
  ],
  "samplers": [
    {
      "magFilter": 9729,
      "minFilter": 9987
    }
  ],
  "buffers": [
    {
      "byteLength": 79408,
      "uri": "dock_platform.bin"
    }
  ]
}