{
  "asset": {
    "generator": "Khronos glTF Blender I/O v5.2.39",
    "version": "2.0"
  },
  "extensionsUsed": [
    "KHR_materials_specular"
  ],
  "scene": 0,
  "scenes": [
    {
      "name": "Scene",
      "nodes": [
        1,
        3,
        5,
        7,
        9,
        11,
        13,
        15,
        17,
        19,
        21,
        23
      ]
    }
  ],
  "nodes": [
    {
      "mesh": 0,
      "name": "Hay 2"
    },
    {
      "children": [
        0
      ],
      "name": "xfer_Hay1",
      "rotation": [
        0,
        0,
        -0.3702622652053833,
        0.9289273619651794
      ],
      "translation": [
        1.3491500616073608,
        3.066999912261963,
        -2.015545606613159
      ]
    },
    {
      "mesh": 1,
      "name": "Hay 2.001"
    },
    {
      "children": [
        2
      ],
      "name": "xfer_Hay1.001",
      "rotation": [
        0,
        0,
        -0.3702622652053833,
        0.9289273619651794
      ],
      "translation": [
        1.3491500616073608,
        3.066999912261963,
        2.2256574630737305
      ]
    },
    {
      "mesh": 2,
      "name": "Hay 1"
    },
    {
      "children": [
        4
      ],
      "name": "xfer_Hay2",
      "rotation": [
        0,
        0,
        0.37268537282943726,
        0.9279577732086182
      ],
      "translation": [
        -1.1698498725891113,
        3.1600000858306885,
        -2.015545606613159
      ]
    },
    {
      "mesh": 3,
      "name": "Hay 1.001"
    },
    {
      "children": [
        6
      ],
      "name": "xfer_Hay2.001",
      "rotation": [
        0,
        0,
        0.37268537282943726,
        0.9279577732086182
      ],
      "translation": [
        -1.1698498725891113,
        3.1600000858306885,
        2.2256574630737305
      ]
    },
    {
      "mesh": 4,
      "name": "Wood Column"
    },
    {
      "children": [
        8
      ],
      "name": "xfer_WoodColumn",
      "translation": [
        2.0231499671936035,
        0,
        4.08545446395874
      ]
    },
    {
      "mesh": 5,
      "name": "Wood Column.001"
    },
    {
      "children": [
        10
      ],
      "name": "xfer_WoodColumn.001",
      "translation": [
        2.0231499671936035,
        0,
        -4.096545696258545
      ]
    },
    {
      "mesh": 6,
      "name": "Wood Column.002"
    },
    {
      "children": [
        12
      ],
      "name": "xfer_WoodColumn.002",
      "translation": [
        -1.976849913597107,
        0,
        -0.0065457820892333984
      ]
    },
    {
      "mesh": 7,
      "name": "Wood Column.003"
    },
    {
      "children": [
        14
      ],
      "name": "xfer_WoodColumn.003",
      "translation": [
        2.0231499671936035,
        0,
        -0.006545543670654297
      ]
    },
    {
      "mesh": 8,
      "name": "Wood Column.004"
    },
    {
      "children": [
        16
      ],
      "name": "xfer_WoodColumn.004",
      "translation": [
        -1.976849913597107,
        0,
        4.08545446395874
      ]
    },
    {
      "mesh": 9,
      "name": "Wood Column.005"
    },
    {
      "children": [
        18
      ],
      "name": "xfer_WoodColumn.005",
      "translation": [
        -1.976849913597107,
        0,
        -4.096545696258545
      ]
    },
    {
      "mesh": 10,
      "name": "Wood Roof"
    },
    {
      "children": [
        20
      ],
      "name": "xfer_WoodRoof2",
      "translation": [
        0.023150086402893066,
        2.25,
        -2.096545696258545
      ]
    },
    {
      "mesh": 11,
      "name": "Wood Roof.001"
    },
    {
      "children": [
        22
      ],
      "name": "xfer_WoodRoof2.001",
      "translation": [
        0.023150086402893066,
        2.25,
        2.144657611846924
      ]
    }
  ],
  "materials": [
    {
      "doubleSided": true,
      "extensions": {
        "KHR_materials_specular": {
          "specularFactor": 0
        }
      },
      "name": "Hay 2",
      "normalTexture": {
        "index": 1
      },
      "pbrMetallicRoughness": {
        "baseColorTexture": {
          "index": 0
        },
        "metallicFactor": 0.0,
        "roughnessFactor": 0.75
      }
    },
    {
      "doubleSided": true,
      "extensions": {
        "KHR_materials_specular": {
          "specularFactor": 0
        }
      },
      "name": "Hay 2.001",
      "normalTexture": {
        "index": 1
      },
      "pbrMetallicRoughness": {
        "baseColorTexture": {
          "index": 0
        },
        "metallicFactor": 0.0,
        "roughnessFactor": 0.75
      }
    },
    {
      "doubleSided": true,
      "extensions": {
        "KHR_materials_specular": {
          "specularFactor": 0
        }
      },
      "name": "Hay 1",
      "normalTexture": {
        "index": 3
      },
      "pbrMetallicRoughness": {
        "baseColorTexture": {
          "index": 2
        },
        "metallicFactor": 0.0,
        "roughnessFactor": 0.75
      }
    },
    {
      "doubleSided": true,
      "extensions": {
        "KHR_materials_specular": {
          "specularFactor": 0
        }
      },
      "name": "Hay 1.001",
      "normalTexture": {
        "index": 3
      },
      "pbrMetallicRoughness": {
        "baseColorTexture": {
          "index": 2
        },
        "metallicFactor": 0.0,
        "roughnessFactor": 0.75
      }
    },
    {
      "doubleSided": true,
      "name": "Weathered Wood",
      "pbrMetallicRoughness": {
        "baseColorTexture": {
          "index": 4
        },
        "metallicFactor": 0.0,
        "roughnessFactor": 0.75
      }
    },
    {
      "doubleSided": true,
      "name": "Weathered Wood.001",
      "pbrMetallicRoughness": {
        "baseColorTexture": {
          "index": 4
        },
        "metallicFactor": 0.0,
        "roughnessFactor": 0.75
      }
    },
    {
      "doubleSided": true,
      "name": "Weathered Wood.002",
      "pbrMetallicRoughness": {
        "baseColorTexture": {
          "index": 4
        },
        "metallicFactor": 0.0,
        "roughnessFactor": 0.75
      }
    },
    {
      "doubleSided": true,
      "name": "Weathered Wood.003",
      "pbrMetallicRoughness": {
        "baseColorTexture": {
          "index": 4
        },
        "metallicFactor": 0.0,
        "roughnessFactor": 0.75
      }
    },
    {
      "doubleSided": true,
      "name": "Weathered Wood.005",
      "pbrMetallicRoughness": {
        "baseColorTexture": {
          "index": 4
        },
        "metallicFactor": 0.0,
        "roughnessFactor": 0.75
      }
    },
    {
      "doubleSided": true,
      "name": "Weathered Wood.006",
      "pbrMetallicRoughness": {
        "baseColorTexture": {
          "index": 4
        },
        "metallicFactor": 0.0,
        "roughnessFactor": 0.75
      }
    },
    {
      "doubleSided": true,
      "name": "Weathered Wood.004",
      "pbrMetallicRoughness": {
        "baseColorTexture": {
          "index": 4
        },
        "metallicFactor": 0.0,
        "roughnessFactor": 0.75
      }
    },
    {
      "doubleSided": true,
      "name": "Wooden Planks.004",
      "pbrMetallicRoughness": {
        "baseColorTexture": {
          "index": 5
        },
        "metallicFactor": 0.0,
        "roughnessFactor": 0.75
      }
    },
    {
      "doubleSided": true,
      "name": "Weathered Wood.007",
      "pbrMetallicRoughness": {
        "baseColorTexture": {
          "index": 4
        },
        "metallicFactor": 0.0,
        "roughnessFactor": 0.75
      }
    },
    {
      "doubleSided": true,
      "name": "Wooden Planks.007",
      "pbrMetallicRoughness": {
        "baseColorTexture": {
          "index": 5
        },
        "metallicFactor": 0.0,
        "roughnessFactor": 0.75
      }
    }
  ],
  "meshes": [
    {
      "name": "Plane.001",
      "primitives": [
        {
          "attributes": {
            "POSITION": 0,
            "NORMAL": 1,
            "TEXCOORD_0": 2
          },
          "indices": 3,
          "material": 0
        }
      ]
    },
    {
      "name": "Plane.003",
      "primitives": [
        {
          "attributes": {
            "POSITION": 4,
            "NORMAL": 5,
            "TEXCOORD_0": 6
          },
          "indices": 3,
          "material": 1
        }
      ]
    },
    {
      "name": "Plane",
      "primitives": [
        {
          "attributes": {
            "POSITION": 7,
            "NORMAL": 8,
            "TEXCOORD_0": 9
          },
          "indices": 10,
          "material": 2
        }
      ]
    },
    {
      "name": "Plane.002",
      "primitives": [
        {
          "attributes": {
            "POSITION": 11,
            "NORMAL": 12,
            "TEXCOORD_0": 13
          },
          "indices": 10,
          "material": 3
        }
      ]
    },
    {
      "name": "Cube.388",
      "primitives": [
        {
          "attributes": {
            "POSITION": 14,
            "NORMAL": 15,
            "TEXCOORD_0": 16
          },
          "indices": 17,
          "material": 4
        }
      ]
    },
    {
      "name": "Cube.001",
      "primitives": [
        {
          "attributes": {
            "POSITION": 18,
            "NORMAL": 19,
            "TEXCOORD_0": 20
          },
          "indices": 17,
          "material": 5
        }
      ]
    },
    {
      "name": "Cube.002",
      "primitives": [
        {
          "attributes": {
            "POSITION": 21,
            "NORMAL": 22,
            "TEXCOORD_0": 23
          },
          "indices": 17,
          "material": 6
        }
      ]
    },
    {
      "name": "Cube.003",
      "primitives": [
        {
          "attributes": {
            "POSITION": 24,
            "NORMAL": 25,
            "TEXCOORD_0": 26
          },
          "indices": 17,
          "material": 7
        }
      ]
    },
    {
      "name": "Cube.004",
      "primitives": [
        {
          "attributes": {
            "POSITION": 27,
            "NORMAL": 28,
            "TEXCOORD_0": 29
          },
          "indices": 17,
          "material": 8
        }
      ]
    },
    {
      "name": "Cube.005",
      "primitives": [
        {
          "attributes": {
            "POSITION": 30,
            "NORMAL": 31,
            "TEXCOORD_0": 32
          },
          "indices": 17,
          "material": 9
        }
      ]
    },
    {
      "name": "Cube.127",
      "primitives": [
        {
          "attributes": {
            "POSITION": 33,
            "NORMAL": 34,
            "TEXCOORD_0": 35
          },
          "indices": 36,
          "material": 10
        },
        {
          "attributes": {
            "POSITION": 37,
            "NORMAL": 38,
            "TEXCOORD_0": 39
          },
          "indices": 40,
          "material": 11
        }
      ]
    },
    {
      "name": "Cube.006",
      "primitives": [
        {
          "attributes": {
            "POSITION": 41,
            "NORMAL": 42,
            "TEXCOORD_0": 43
          },
          "indices": 36,
          "material": 12
        },
        {
          "attributes": {
            "POSITION": 44,
            "NORMAL": 45,
            "TEXCOORD_0": 46
          },
          "indices": 40,
          "material": 13
        }
      ]
    }
  ],
  "textures": [
    {
      "source": 0
    },
    {
      "source": 1
    },
    {
      "source": 2
    },
    {
      "source": 3
    },
    {
      "source": 4
    },
    {
      "source": 5
    }
  ],
  "images": [
    {
      "uri": "textures/hay2_color.png"
    },
    {
      "uri": "textures/hay2_normal.png"
    },
    {
      "uri": "textures/hay1_color.png"
    },
    {
      "uri": "textures/hay1_normal.png"
    },
    {
      "uri": "textures/wood_weather_color.png"
    },
    {
      "uri": "textures/wood_planks_color.png"
    }
  ],
  "accessors": [
    {
      "bufferView": 0,
      "componentType": 5126,
      "count": 740,
      "max": [
        1.0000001192092896,
        0.042366690933704376,
        1
      ],
      "min": [
        -1.0000001192092896,
        -0.01370434183627367,
        -1
      ],
      "type": "VEC3"
    },
    {
      "bufferView": 1,
      "componentType": 5126,
      "count": 740,
      "type": "VEC3"
    },
    {
      "bufferView": 2,
      "componentType": 5126,
      "count": 740,
      "type": "VEC2"
    },
    {
      "bufferView": 3,
      "componentType": 5123,
      "count": 1536,
      "type": "SCALAR"
    },
    {
      "bufferView": 4,
      "componentType": 5126,
      "count": 740,
      "max": [
        1.0000001192092896,
        0.042366690933704376,
        1
      ],
      "min": [
        -1.0000001192092896,
        -0.01370434183627367,
        -1
      ],
      "type": "VEC3"
    },
    {
      "bufferView": 5,
      "componentType": 5126,
      "count": 740,
      "type": "VEC3"
    },
    {
      "bufferView": 6,
      "componentType": 5126,
      "count": 740,
      "type": "VEC2"
    },
    {
      "bufferView": 7,
      "componentType": 5126,
      "count": 808,
      "max": [
        1.0000001192092896,
        0.04047449678182602,
        1
      ],
      "min": [
        -1.0000001192092896,
        -0.015672482550144196,
        -1
      ],
      "type": "VEC3"
    },
    {
      "bufferView": 8,
      "componentType": 5126,
      "count": 808,
      "type": "VEC3"
    },
    {
      "bufferView": 9,
      "componentType": 5126,
      "count": 808,
      "type": "VEC2"
    },
    {
      "bufferView": 10,
      "componentType": 5123,
      "count": 1536,
      "type": "SCALAR"
    },
    {
      "bufferView": 11,
      "componentType": 5126,
      "count": 808,
      "max": [
        1.0000001192092896,
        0.04047449678182602,
        1
      ],
      "min": [
        -1.0000001192092896,
        -0.015672482550144196,
        -1
      ],
      "type": "VEC3"
    },
    {
      "bufferView": 12,
      "componentType": 5126,
      "count": 808,
      "type": "VEC3"
    },
    {
      "bufferView": 13,
      "componentType": 5126,
      "count": 808,
      "type": "VEC2"
    },
    {
      "bufferView": 14,
      "componentType": 5126,
      "count": 64,
      "max": [
        0.170928955078125,
        2.2100954055786133,
        0.1691419780254364
      ],
      "min": [
        -0.191925048828125,
        -1.2769891810648915e-08,
        -0.16914249956607819
      ],
      "type": "VEC3"
    },
    {
      "bufferView": 15,
      "componentType": 5126,
      "count": 64,
      "type": "VEC3"
    },
    {
      "bufferView": 16,
      "componentType": 5126,
      "count": 64,
      "type": "VEC2"
    },
    {
      "bufferView": 17,
      "componentType": 5123,
      "count": 132,
      "type": "SCALAR"
    },
    {
      "bufferView": 18,
      "componentType": 5126,
      "count": 64,
      "max": [
        0.170928955078125,
        2.2100954055786133,
        0.1691419780254364
      ],
      "min": [
        -0.191925048828125,
        -1.2769891810648915e-08,
        -0.16914249956607819
      ],
      "type": "VEC3"
    },
    {
      "bufferView": 19,
      "componentType": 5126,
      "count": 64,
      "type": "VEC3"
    },
    {
      "bufferView": 20,
      "componentType": 5126,
      "count": 64,
      "type": "VEC2"
    },
    {
      "bufferView": 21,
      "componentType": 5126,
      "count": 64,
      "max": [
        0.170928955078125,
        2.2100954055786133,
        0.1691419780254364
      ],
      "min": [
        -0.191925048828125,
        -1.2769891810648915e-08,
        -0.16914249956607819
      ],
      "type": "VEC3"
    },
    {
      "bufferView": 22,
      "componentType": 5126,
      "count": 64,
      "type": "VEC3"
    },
    {
      "bufferView": 23,
      "componentType": 5126,
      "count": 64,
      "type": "VEC2"
    },
    {
      "bufferView": 24,
      "componentType": 5126,
      "count": 64,
      "max": [
        0.170928955078125,
        2.2100954055786133,
        0.1691419780254364
      ],
      "min": [
        -0.191925048828125,
        -1.2769891810648915e-08,
        -0.16914249956607819
      ],
      "type": "VEC3"
    },
    {
      "bufferView": 25,
      "componentType": 5126,
      "count": 64,
      "type": "VEC3"
    },
    {
      "bufferView": 26,
      "componentType": 5126,
      "count": 64,
      "type": "VEC2"
    },
    {
      "bufferView": 27,
      "componentType": 5126,
      "count": 64,
      "max": [
        0.170928955078125,
        2.2100954055786133,
        0.1691419780254364
      ],
      "min": [
        -0.191925048828125,
        -1.2769891810648915e-08,
        -0.16914249956607819
      ],
      "type": "VEC3"
    },
    {
      "bufferView": 28,
      "componentType": 5126,
      "count": 64,
      "type": "VEC3"
    },
    {
      "bufferView": 29,
      "componentType": 5126,
      "count": 64,
      "type": "VEC2"
    },
    {
      "bufferView": 30,
      "componentType": 5126,
      "count": 64,
      "max": [
        0.170928955078125,
        2.2100954055786133,
        0.1691419780254364
      ],
      "min": [
        -0.191925048828125,
        -1.2769891810648915e-08,
        -0.16914249956607819
      ],
      "type": "VEC3"
    },
    {
      "bufferView": 31,
      "componentType": 5126,
      "count": 64,
      "type": "VEC3"
    },
    {
      "bufferView": 32,
      "componentType": 5126,
      "count": 64,
      "type": "VEC2"
    },
    {
      "bufferView": 33,
      "componentType": 5126,
      "count": 560,
      "max": [
        2.5315611362457275,
        2.120514154434204,
        2.2713446617126465
      ],
      "min": [
        -2.5778613090515137,
        -0.5180249214172363,
        -2.3194563388824463
      ],
      "type": "VEC3"
    },
    {
      "bufferView": 34,
      "componentType": 5126,
      "count": 560,
      "type": "VEC3"
    },
    {
      "bufferView": 35,
      "componentType": 5126,
      "count": 560,
      "type": "VEC2"
    },
    {
      "bufferView": 36,
      "componentType": 5123,
      "count": 1092,
      "type": "SCALAR"
    },
    {
      "bufferView": 37,
      "componentType": 5126,
      "count": 84,
      "max": [
        2.256417989730835,
        2.0328667163848877,
        2.1247236728668213
      ],
      "min": [
        -2.3111963272094727,
        -0.18243470788002014,
        -2.100205183029175
      ],
      "type": "VEC3"
    },
    {
      "bufferView": 38,
      "componentType": 5126,
      "count": 84,
      "type": "VEC3"
    },
    {
      "bufferView": 39,
      "componentType": 5126,
      "count": 84,
      "type": "VEC2"
    },
    {
      "bufferView": 40,
      "componentType": 5123,
      "count": 120,
      "type": "SCALAR"
    },
    {
      "bufferView": 41,
      "componentType": 5126,
      "count": 560,
      "max": [
        2.5315611362457275,
        2.120514154434204,
        2.2713446617126465
      ],
      "min": [
        -2.5778613090515137,
        -0.5180249214172363,
        -2.3194563388824463
      ],
      "type": "VEC3"
    },
    {
      "bufferView": 42,
      "componentType": 5126,
      "count": 560,
      "type": "VEC3"
    },
    {
      "bufferView": 43,
      "componentType": 5126,
      "count": 560,
      "type": "VEC2"
    },
    {
      "bufferView": 44,
      "componentType": 5126,
      "count": 84,
      "max": [
        2.256417989730835,
        2.0328667163848877,
        2.1247236728668213
      ],
      "min": [
        -2.3111963272094727,
        -0.18243470788002014,
        -2.100205183029175
      ],
      "type": "VEC3"
    },
    {
      "bufferView": 45,
      "componentType": 5126,
      "count": 84,
      "type": "VEC3"
    },
    {
      "bufferView": 46,
      "componentType": 5126,
      "count": 84,
      "type": "VEC2"
    }
  ],
  "bufferViews": [
    {
      "buffer": 0,
      "byteLength": 8880,
      "byteOffset": 0,
      "target": 34962
    },
    {
      "buffer": 0,
      "byteLength": 8880,
      "byteOffset": 8880,
      "target": 34962
    },
    {
      "buffer": 0,
      "byteLength": 5920,
      "byteOffset": 17760,
      "target": 34962
    },
    {
      "buffer": 0,
      "byteLength": 3072,
      "byteOffset": 23680,
      "target": 34963
    },
    {
      "buffer": 0,
      "byteLength": 8880,
      "byteOffset": 26752,
      "target": 34962
    },
    {
      "buffer": 0,
      "byteLength": 8880,
      "byteOffset": 35632,
      "target": 34962
    },
    {
      "buffer": 0,
      "byteLength": 5920,
      "byteOffset": 44512,
      "target": 34962
    },
    {
      "buffer": 0,
      "byteLength": 9696,
      "byteOffset": 50432,
      "target": 34962
    },
    {
      "buffer": 0,
      "byteLength": 9696,
      "byteOffset": 60128,
      "target": 34962
    },
    {
      "buffer": 0,
      "byteLength": 6464,
      "byteOffset": 69824,
      "target": 34962
    },
    {
      "buffer": 0,
      "byteLength": 3072,
      "byteOffset": 76288,
      "target": 34963
    },
    {
      "buffer": 0,
      "byteLength": 9696,
      "byteOffset": 79360,
      "target": 34962
    },
    {
      "buffer": 0,
      "byteLength": 9696,
      "byteOffset": 89056,
      "target": 34962
    },
    {
      "buffer": 0,
      "byteLength": 6464,
      "byteOffset": 98752,
      "target": 34962
    },
    {
      "buffer": 0,
      "byteLength": 768,
      "byteOffset": 105216,
      "target": 34962
    },
    {
      "buffer": 0,
      "byteLength": 768,
      "byteOffset": 105984,
      "target": 34962
    },
    {
      "buffer": 0,
      "byteLength": 512,
      "byteOffset": 106752,
      "target": 34962
    },
    {
      "buffer": 0,
      "byteLength": 264,
      "byteOffset": 107264,
      "target": 34963
    },
    {
      "buffer": 0,
      "byteLength": 768,
      "byteOffset": 107528,
      "target": 34962
    },
    {
      "buffer": 0,
      "byteLength": 768,
      "byteOffset": 108296,
      "target": 34962
    },
    {
      "buffer": 0,
      "byteLength": 512,
      "byteOffset": 109064,
      "target": 34962
    },
    {
      "buffer": 0,
      "byteLength": 768,
      "byteOffset": 109576,
      "target": 34962
    },
    {
      "buffer": 0,
      "byteLength": 768,
      "byteOffset": 110344,
      "target": 34962
    },
    {
      "buffer": 0,
      "byteLength": 512,
      "byteOffset": 111112,
      "target": 34962
    },
    {
      "buffer": 0,
      "byteLength": 768,
      "byteOffset": 111624,
      "target": 34962
    },
    {
      "buffer": 0,
      "byteLength": 768,
      "byteOffset": 112392,
      "target": 34962
    },
    {
      "buffer": 0,
      "byteLength": 512,
      "byteOffset": 113160,
      "target": 34962
    },
    {
      "buffer": 0,
      "byteLength": 768,
      "byteOffset": 113672,
      "target": 34962
    },
    {
      "buffer": 0,
      "byteLength": 768,
      "byteOffset": 114440,
      "target": 34962
    },
    {
      "buffer": 0,
      "byteLength": 512,
      "byteOffset": 115208,
      "target": 34962
    },
    {
      "buffer": 0,
      "byteLength": 768,
      "byteOffset": 115720,
      "target": 34962
    },
    {
      "buffer": 0,
      "byteLength": 768,
      "byteOffset": 116488,
      "target": 34962
    },
    {
      "buffer": 0,
      "byteLength": 512,
      "byteOffset": 117256,
      "target": 34962
    },
    {
      "buffer": 0,
      "byteLength": 6720,
      "byteOffset": 117768,
      "target": 34962
    },
    {
      "buffer": 0,
      "byteLength": 6720,
      "byteOffset": 124488,
      "target": 34962
    },
    {
      "buffer": 0,
      "byteLength": 4480,
      "byteOffset": 131208,
      "target": 34962
    },
    {
      "buffer": 0,
      "byteLength": 2184,
      "byteOffset": 135688,
      "target": 34963
    },
    {
      "buffer": 0,
      "byteLength": 1008,
      "byteOffset": 137872,
      "target": 34962
    },
    {
      "buffer": 0,
      "byteLength": 1008,
      "byteOffset": 138880,
      "target": 34962
    },
    {
      "buffer": 0,
      "byteLength": 672,
      "byteOffset": 139888,
      "target": 34962
    },
    {
      "buffer": 0,
      "byteLength": 240,
      "byteOffset": 140560,
      "target": 34963
    },
    {
      "buffer": 0,
      "byteLength": 6720,
      "byteOffset": 140800,
      "target": 34962
    },
    {
      "buffer": 0,
      "byteLength": 6720,
      "byteOffset": 147520,
      "target": 34962
    },
    {
      "buffer": 0,
      "byteLength": 4480,
      "byteOffset": 154240,
      "target": 34962
    },
    {
      "buffer": 0,
      "byteLength": 1008,
      "byteOffset": 158720,
      "target": 34962
    },
    {
      "buffer": 0,
      "byteLength": 1008,
      "byteOffset": 159728,
      "target": 34962
    },
    {
      "buffer": 0,
      "byteLength": 672,
      "byteOffset": 160736,
      "target": 34962
    }
  ],
  "samplers": [
    {
      "magFilter": 9729,
      "minFilter": 9987
    }
  ],
  "buffers": [
    {
      "byteLength": 161408,
      "uri": "prebuild_pavilion.bin"
    }
  ]
}