{
  "asset": {
    "generator": "Khronos glTF Blender I/O v5.2.39",
    "version": "2.0"
  },
  "scene": 0,
  "scenes": [
    {
      "name": "Scene",
      "nodes": [
        1,
        3,
        5,
        7,
        9,
        11,
        13,
        15,
        17,
        19,
        21,
        23,
        25,
        27,
        29,
        31,
        33,
        35,
        37
      ]
    }
  ],
  "nodes": [
    {
      "mesh": 0,
      "name": "Castle Tower Roof Plaster"
    },
    {
      "children": [
        0
      ],
      "name": "xfer_CastleRoofPlaster",
      "rotation": [
        0,
        0.7071055769920349,
        0,
        0.7071079611778259
      ],
      "translation": [
        -1.4515066146850586,
        7.640122890472412,
        -0.002000093460083008
      ]
    },
    {
      "mesh": 1,
      "name": "Castle Tower Roof Plaster Small"
    },
    {
      "children": [
        2
      ],
      "name": "xfer_CastleRoofPlaster_Small",
      "translation": [
        -1.4515066146850586,
        7.640122890472412,
        -0.002000093460083008
      ]
    },
    {
      "mesh": 2,
      "name": "Chimney Extend"
    },
    {
      "children": [
        4
      ],
      "name": "xfer_ChimneyExtension",
      "rotation": [
        0,
        0.7071068286895752,
        0,
        0.7071067094802856
      ],
      "translation": [
        -4.741506576538086,
        3.77012300491333,
        4.128000259399414
      ]
    },
    {
      "mesh": 3,
      "name": "Chimney Top"
    },
    {
      "children": [
        6
      ],
      "name": "xfer_ChimneyTop",
      "rotation": [
        0,
        0.7071068286895752,
        0,
        0.7071067094802856
      ],
      "translation": [
        -4.741506576538086,
        6.220123291015625,
        4.128000259399414
      ]
    },
    {
      "mesh": 4,
      "name": "Regular Door Framed"
    },
    {
      "children": [
        8
      ],
      "name": "xfer_DoorFramed",
      "rotation": [
        0,
        0.7071056962013245,
        0,
        0.7071078419685364
      ],
      "translation": [
        1.6614954471588135,
        7.640122890472412,
        -0.702000081539154
      ]
    },
    {
      "mesh": 5,
      "name": "Regular Door Framed.019"
    },
    {
      "children": [
        10
      ],
      "name": "xfer_DoorFramed2",
      "rotation": [
        0,
        0.7071056962013245,
        0,
        0.7071078419685364
      ],
      "translation": [
        1.6614913940429688,
        7.640122890472412,
        0.697999894618988
      ]
    },
    {
      "mesh": 6,
      "name": "Regular Door Framed.001"
    },
    {
      "children": [
        12
      ],
      "name": "xfer_DoorFramed2.001",
      "rotation": [
        0,
        0.7071068286895752,
        0,
        0.7071067094802856
      ],
      "translation": [
        4.954493522644043,
        3.77012300491333,
        0.6979999542236328
      ]
    },
    {
      "mesh": 7,
      "name": "Regular Door Framed.002"
    },
    {
      "children": [
        14
      ],
      "name": "xfer_DoorFramed.001",
      "rotation": [
        0,
        0.7071068286895752,
        0,
        0.7071067094802856
      ],
      "translation": [
        4.954493522644043,
        3.77012300491333,
        -0.7020001411437988
      ]
    },
    {
      "mesh": 8,
      "name": "Square Tower Bottom"
    },
    {
      "children": [
        16
      ],
      "name": "xfer_SquareTowerBottom",
      "translation": [
        1.8584933280944824,
        7.640122890472412,
        -0.002000093460083008
      ]
    },
    {
      "mesh": 9,
      "name": "Square Tower Bottom.001"
    },
    {
      "children": [
        18
      ],
      "name": "xfer_SquareTowerBottom.001",
      "translation": [
        -1.4515066146850586,
        7.640122890472412,
        -3.002000093460083
      ]
    },
    {
      "mesh": 10,
      "name": "Square Tower Bottom.002"
    },
    {
      "children": [
        20
      ],
      "name": "xfer_SquareTowerBottom.002",
      "translation": [
        -1.4515066146850586,
        7.640122890472412,
        2.997999906539917
      ]
    },
    {
      "mesh": 11,
      "name": "Stone Window Rounded"
    },
    {
      "children": [
        22
      ],
      "name": "xfer_StoneWindpw",
      "rotation": [
        0,
        1,
        0,
        7.549790126404332e-08
      ],
      "translation": [
        -2.8815064430236816,
        5.6801228523254395,
        -6.055999755859375
      ]
    },
    {
      "mesh": 12,
      "name": "Stone Window Rounded.001"
    },
    {
      "children": [
        24
      ],
      "name": "xfer_StoneWindpw.001",
      "translation": [
        -0.08150672912597656,
        5.6801228523254395,
        6.048000335693359
      ]
    },
    {
      "mesh": 13,
      "name": "Stone Window Rounded.002"
    },
    {
      "children": [
        26
      ],
      "name": "xfer_StoneWindpw.002",
      "rotation": [
        0,
        1,
        0,
        7.549790126404332e-08
      ],
      "translation": [
        -0.08150672912597656,
        5.6801228523254395,
        -6.055999755859375
      ]
    },
    {
      "mesh": 14,
      "name": "Stone Window Rounded.003"
    },
    {
      "children": [
        28
      ],
      "name": "xfer_StoneWindpw.003",
      "translation": [
        -2.8815064430236816,
        5.6801228523254395,
        6.048000335693359
      ]
    },
    {
      "mesh": 15,
      "name": "Wood Column"
    },
    {
      "children": [
        30
      ],
      "name": "xfer_WoodColumn",
      "rotation": [
        0.70710688829422,
        0,
        0,
        0.7071066498756409
      ],
      "scale": [
        1.3017314672470093,
        1.3017314672470093,
        1.3017314672470093
      ],
      "translation": [
        2.144493341445923,
        7.098123073577881,
        -1.502000093460083
      ]
    },
    {
      "mesh": 16,
      "name": "Wood Column.001"
    },
    {
      "children": [
        32
      ],
      "name": "xfer_WoodColumn.001",
      "rotation": [
        0.70710688829422,
        0,
        0,
        0.7071066498756409
      ],
      "scale": [
        2.246299982070923,
        2.246300220489502,
        2.246300220489502
      ],
      "translation": [
        1.6040666103363037,
        7.242122650146484,
        -2.4810001850128174
      ]
    },
    {
      "mesh": 17,
      "name": "Square Window Wood"
    },
    {
      "children": [
        34
      ],
      "name": "xfer_WoodWindow",
      "translation": [
        -1.4515066146850586,
        9.82813835144043,
        6.055000305175781
      ]
    },
    {
      "mesh": 18,
      "name": "Square Window Wood.001"
    },
    {
      "children": [
        36
      ],
      "name": "xfer_WoodWindow.001",
      "rotation": [
        0,
        1,
        0,
        7.549790126404332e-08
      ],
      "translation": [
        -1.4515066146850586,
        9.82813835144043,
        -6.055000305175781
      ]
    }
  ],
  "materials": [
    {
      "doubleSided": true,
      "name": "Plastered Wall",
      "pbrMetallicRoughness": {
        "baseColorTexture": {
          "index": 0
        },
        "metallicFactor": 0.0,
        "roughnessFactor": 0.75
      }
    },
    {
      "doubleSided": true,
      "name": "Weathered Wood.002",
      "pbrMetallicRoughness": {
        "baseColorTexture": {
          "index": 1
        },
        "metallicFactor": 0.0,
        "roughnessFactor": 0.75
      }
    },
    {
      "doubleSided": true,
      "name": "Roof Squared",
      "normalTexture": {
        "index": 3
      },
      "pbrMetallicRoughness": {
        "baseColorTexture": {
          "index": 2
        },
        "metallicFactor": 0.0,
        "roughnessFactor": 0.75
      }
    },
    {
      "doubleSided": true,
      "name": "Weathered Wood.004",
      "pbrMetallicRoughness": {
        "baseColorTexture": {
          "index": 1
        },
        "metallicFactor": 0.0,
        "roughnessFactor": 0.75
      }
    },
    {
      "doubleSided": true,
      "name": "Roof Squared.001",
      "normalTexture": {
        "index": 3
      },
      "pbrMetallicRoughness": {
        "baseColorTexture": {
          "index": 2
        },
        "metallicFactor": 0.0,
        "roughnessFactor": 0.75
      }
    },
    {
      "doubleSided": true,
      "name": "Plastered Wall.001",
      "pbrMetallicRoughness": {
        "baseColorTexture": {
          "index": 0
        },
        "metallicFactor": 0.0,
        "roughnessFactor": 0.75
      }
    },
    {
      "doubleSided": true,
      "name": "Bricks.001",
      "normalTexture": {
        "index": 5
      },
      "pbrMetallicRoughness": {
        "baseColorTexture": {
          "index": 4
        },
        "metallicFactor": 0.0,
        "roughnessFactor": 0.75
      }
    },
    {
      "doubleSided": true,
      "name": "Bricks",
      "normalTexture": {
        "index": 5
      },
      "pbrMetallicRoughness": {
        "baseColorTexture": {
          "index": 4
        },
        "metallicFactor": 0.0,
        "roughnessFactor": 0.75
      }
    },
    {
      "doubleSided": true,
      "name": "Chimney",
      "pbrMetallicRoughness": {
        "baseColorTexture": {
          "index": 6
        },
        "metallicFactor": 0.0,
        "roughnessFactor": 0.75
      }
    },
    {
      "doubleSided": true,
      "name": "Metal Black Rough.003",
      "pbrMetallicRoughness": {
        "baseColorTexture": {
          "index": 7
        },
        "metallicFactor": 0.0,
        "roughnessFactor": 0.75
      }
    },
    {
      "doubleSided": true,
      "name": "Wooden Planks.001",
      "pbrMetallicRoughness": {
        "baseColorTexture": {
          "index": 8
        },
        "metallicFactor": 0.0,
        "roughnessFactor": 0.75
      }
    },
    {
      "doubleSided": true,
      "name": "Metal Iron.004",
      "pbrMetallicRoughness": {
        "baseColorTexture": {
          "index": 9
        },
        "metallicFactor": 0.0,
        "roughnessFactor": 0.75
      }
    },
    {
      "doubleSided": true,
      "name": "Weathered Wood.006",
      "pbrMetallicRoughness": {
        "baseColorTexture": {
          "index": 1
        },
        "metallicFactor": 0.0,
        "roughnessFactor": 0.75
      }
    },
    {
      "doubleSided": true,
      "name": "Wooden Planks",
      "pbrMetallicRoughness": {
        "baseColorTexture": {
          "index": 8
        },
        "metallicFactor": 0.0,
        "roughnessFactor": 0.75
      }
    },
    {
      "doubleSided": true,
      "name": "Metal Iron.003",
      "pbrMetallicRoughness": {
        "baseColorTexture": {
          "index": 9
        },
        "metallicFactor": 0.0,
        "roughnessFactor": 0.75
      }
    },
    {
      "doubleSided": true,
      "name": "Weathered Wood.005",
      "pbrMetallicRoughness": {
        "baseColorTexture": {
          "index": 1
        },
        "metallicFactor": 0.0,
        "roughnessFactor": 0.75
      }
    },
    {
      "doubleSided": true,
      "name": "Wooden Planks.004",
      "pbrMetallicRoughness": {
        "baseColorTexture": {
          "index": 8
        },
        "metallicFactor": 0.0,
        "roughnessFactor": 0.75
      }
    },
    {
      "doubleSided": true,
      "name": "Metal Iron.008",
      "pbrMetallicRoughness": {
        "baseColorTexture": {
          "index": 9
        },
        "metallicFactor": 0.0,
        "roughnessFactor": 0.75
      }
    },
    {
      "doubleSided": true,
      "name": "Weathered Wood.012",
      "pbrMetallicRoughness": {
        "baseColorTexture": {
          "index": 1
        },
        "metallicFactor": 0.0,
        "roughnessFactor": 0.75
      }
    },
    {
      "doubleSided": true,
      "name": "Wooden Planks.005",
      "pbrMetallicRoughness": {
        "baseColorTexture": {
          "index": 8
        },
        "metallicFactor": 0.0,
        "roughnessFactor": 0.75
      }
    },
    {
      "doubleSided": true,
      "name": "Metal Iron.009",
      "pbrMetallicRoughness": {
        "baseColorTexture": {
          "index": 9
        },
        "metallicFactor": 0.0,
        "roughnessFactor": 0.75
      }
    },
    {
      "doubleSided": true,
      "name": "Weathered Wood.013",
      "pbrMetallicRoughness": {
        "baseColorTexture": {
          "index": 1
        },
        "metallicFactor": 0.0,
        "roughnessFactor": 0.75
      }
    },
    {
      "doubleSided": true,
      "name": "Castle Wall.001",
      "normalTexture": {
        "index": 11
      },
      "pbrMetallicRoughness": {
        "baseColorTexture": {
          "index": 10
        },
        "metallicFactor": 0.0,
        "roughnessFactor": 0.75
      }
    },
    {
      "doubleSided": true,
      "name": "Stone Floor",
      "normalTexture": {
        "index": 13
      },
      "pbrMetallicRoughness": {
        "baseColorTexture": {
          "index": 12
        },
        "metallicFactor": 0.0,
        "roughnessFactor": 0.75
      }
    },
    {
      "doubleSided": true,
      "name": "Castle Wall.002",
      "normalTexture": {
        "index": 11
      },
      "pbrMetallicRoughness": {
        "baseColorTexture": {
          "index": 10
        },
        "metallicFactor": 0.0,
        "roughnessFactor": 0.75
      }
    },
    {
      "doubleSided": true,
      "name": "Stone Floor.001",
      "normalTexture": {
        "index": 13
      },
      "pbrMetallicRoughness": {
        "baseColorTexture": {
          "index": 12
        },
        "metallicFactor": 0.0,
        "roughnessFactor": 0.75
      }
    },
    {
      "doubleSided": true,
      "name": "Castle Wall.003",
      "normalTexture": {
        "index": 11
      },
      "pbrMetallicRoughness": {
        "baseColorTexture": {
          "index": 10
        },
        "metallicFactor": 0.0,
        "roughnessFactor": 0.75
      }
    },
    {
      "doubleSided": true,
      "name": "Stone Floor.002",
      "normalTexture": {
        "index": 13
      },
      "pbrMetallicRoughness": {
        "baseColorTexture": {
          "index": 12
        },
        "metallicFactor": 0.0,
        "roughnessFactor": 0.75
      }
    },
    {
      "doubleSided": true,
      "name": "Castle Wall No Rocks",
      "normalTexture": {
        "index": 15
      },
      "pbrMetallicRoughness": {
        "baseColorTexture": {
          "index": 14
        },
        "metallicFactor": 0.0,
        "roughnessFactor": 0.75
      }
    },
    {
      "doubleSided": true,
      "name": "Metal Black Rough",
      "pbrMetallicRoughness": {
        "baseColorTexture": {
          "index": 7
        },
        "metallicFactor": 0.0,
        "roughnessFactor": 0.75
      }
    },
    {
      "doubleSided": true,
      "name": "Metal Iron",
      "pbrMetallicRoughness": {
        "baseColorTexture": {
          "index": 9
        },
        "metallicFactor": 0.0,
        "roughnessFactor": 0.75
      }
    },
    {
      "doubleSided": true,
      "name": "Weathered Wood",
      "pbrMetallicRoughness": {
        "baseColorTexture": {
          "index": 1
        },
        "metallicFactor": 0.0,
        "roughnessFactor": 0.75
      }
    },
    {
      "doubleSided": true,
      "name": "Castle Wall No Rocks.001",
      "normalTexture": {
        "index": 15
      },
      "pbrMetallicRoughness": {
        "baseColorTexture": {
          "index": 14
        },
        "metallicFactor": 0.0,
        "roughnessFactor": 0.75
      }
    },
    {
      "doubleSided": true,
      "name": "Metal Black Rough.001",
      "pbrMetallicRoughness": {
        "baseColorTexture": {
          "index": 7
        },
        "metallicFactor": 0.0,
        "roughnessFactor": 0.75
      }
    },
    {
      "doubleSided": true,
      "name": "Metal Iron.001",
      "pbrMetallicRoughness": {
        "baseColorTexture": {
          "index": 9
        },
        "metallicFactor": 0.0,
        "roughnessFactor": 0.75
      }
    },
    {
      "doubleSided": true,
      "name": "Weathered Wood.001",
      "pbrMetallicRoughness": {
        "baseColorTexture": {
          "index": 1
        },
        "metallicFactor": 0.0,
        "roughnessFactor": 0.75
      }
    },
    {
      "doubleSided": true,
      "name": "Castle Wall No Rocks.002",
      "normalTexture": {
        "index": 15
      },
      "pbrMetallicRoughness": {
        "baseColorTexture": {
          "index": 14
        },
        "metallicFactor": 0.0,
        "roughnessFactor": 0.75
      }
    },
    {
      "doubleSided": true,
      "name": "Metal Black Rough.004",
      "pbrMetallicRoughness": {
        "baseColorTexture": {
          "index": 7
        },
        "metallicFactor": 0.0,
        "roughnessFactor": 0.75
      }
    },
    {
      "doubleSided": true,
      "name": "Metal Iron.005",
      "pbrMetallicRoughness": {
        "baseColorTexture": {
          "index": 9
        },
        "metallicFactor": 0.0,
        "roughnessFactor": 0.75
      }
    },
    {
      "doubleSided": true,
      "name": "Weathered Wood.008",
      "pbrMetallicRoughness": {
        "baseColorTexture": {
          "index": 1
        },
        "metallicFactor": 0.0,
        "roughnessFactor": 0.75
      }
    },
    {
      "doubleSided": true,
      "name": "Castle Wall No Rocks.003",
      "normalTexture": {
        "index": 15
      },
      "pbrMetallicRoughness": {
        "baseColorTexture": {
          "index": 14
        },
        "metallicFactor": 0.0,
        "roughnessFactor": 0.75
      }
    },
    {
      "doubleSided": true,
      "name": "Metal Black Rough.005",
      "pbrMetallicRoughness": {
        "baseColorTexture": {
          "index": 7
        },
        "metallicFactor": 0.0,
        "roughnessFactor": 0.75
      }
    },
    {
      "doubleSided": true,
      "name": "Metal Iron.006",
      "pbrMetallicRoughness": {
        "baseColorTexture": {
          "index": 9
        },
        "metallicFactor": 0.0,
        "roughnessFactor": 0.75
      }
    },
    {
      "doubleSided": true,
      "name": "Weathered Wood.010",
      "pbrMetallicRoughness": {
        "baseColorTexture": {
          "index": 1
        },
        "metallicFactor": 0.0,
        "roughnessFactor": 0.75
      }
    },
    {
      "doubleSided": true,
      "name": "Weathered Wood.007",
      "pbrMetallicRoughness": {
        "baseColorTexture": {
          "index": 1
        },
        "metallicFactor": 0.0,
        "roughnessFactor": 0.75
      }
    },
    {
      "doubleSided": true,
      "name": "Weathered Wood.009",
      "pbrMetallicRoughness": {
        "baseColorTexture": {
          "index": 1
        },
        "metallicFactor": 0.0,
        "roughnessFactor": 0.75
      }
    },
    {
      "doubleSided": true,
      "name": "Weathered Wood.003",
      "pbrMetallicRoughness": {
        "baseColorTexture": {
          "index": 1
        },
        "metallicFactor": 0.0,
        "roughnessFactor": 0.75
      }
    },
    {
      "doubleSided": true,
      "name": "Metal Iron.002",
      "pbrMetallicRoughness": {
        "baseColorTexture": {
          "index": 9
        },
        "metallicFactor": 0.0,
        "roughnessFactor": 0.75
      }
    },
    {
      "doubleSided": true,
      "name": "Metal Black Rough.002",
      "pbrMetallicRoughness": {
        "baseColorTexture": {
          "index": 7
        },
        "metallicFactor": 0.0,
        "roughnessFactor": 0.75
      }
    },
    {
      "doubleSided": true,
      "name": "Weathered Wood.011",
      "pbrMetallicRoughness": {
        "baseColorTexture": {
          "index": 1
        },
        "metallicFactor": 0.0,
        "roughnessFactor": 0.75
      }
    },
    {
      "doubleSided": true,
      "name": "Metal Iron.007",
      "pbrMetallicRoughness": {
        "baseColorTexture": {
          "index": 9
        },
        "metallicFactor": 0.0,
        "roughnessFactor": 0.75
      }
    },
    {
      "doubleSided": true,
      "name": "Metal Black Rough.006",
      "pbrMetallicRoughness": {
        "baseColorTexture": {
          "index": 7
        },
        "metallicFactor": 0.0,
        "roughnessFactor": 0.75
      }
    }
  ],
  "meshes": [
    {
      "name": "Cube.072",
      "primitives": [
        {
          "attributes": {
            "POSITION": 0,
            "NORMAL": 1,
            "TEXCOORD_0": 2
          },
          "indices": 3,
          "material": 0
        },
        {
          "attributes": {
            "POSITION": 4,
            "NORMAL": 5,
            "TEXCOORD_0": 6
          },
          "indices": 7,
          "material": 1
        },
        {
          "attributes": {
            "POSITION": 8,
            "NORMAL": 9,
            "TEXCOORD_0": 10
          },
          "indices": 11,
          "material": 2
        }
      ]
    },
    {
      "name": "Cube.114",
      "primitives": [
        {
          "attributes": {
            "POSITION": 12,
            "NORMAL": 13,
            "TEXCOORD_0": 14
          },
          "indices": 15,
          "material": 3
        },
        {
          "attributes": {
            "POSITION": 16,
            "NORMAL": 17,
            "TEXCOORD_0": 18
          },
          "indices": 19,
          "material": 4
        },
        {
          "attributes": {
            "POSITION": 20,
            "NORMAL": 21,
            "TEXCOORD_0": 22
          },
          "indices": 3,
          "material": 5
        }
      ]
    },
    {
      "name": "Cube.042",
      "primitives": [
        {
          "attributes": {
            "POSITION": 23,
            "NORMAL": 24,
            "TEXCOORD_0": 25
          },
          "indices": 26,
          "material": 6
        }
      ]
    },
    {
      "name": "Cube.032",
      "primitives": [
        {
          "attributes": {
            "POSITION": 27,
            "NORMAL": 28,
            "TEXCOORD_0": 29
          },
          "indices": 30,
          "material": 7
        },
        {
          "attributes": {
            "POSITION": 31,
            "NORMAL": 32,
            "TEXCOORD_0": 33
          },
          "indices": 34,
          "material": 8
        },
        {
          "attributes": {
            "POSITION": 35,
            "NORMAL": 36,
            "TEXCOORD_0": 37
          },
          "indices": 38,
          "material": 9
        }
      ]
    },
    {
      "name": "Cube.133",
      "primitives": [
        {
          "attributes": {
            "POSITION": 39,
            "NORMAL": 40,
            "TEXCOORD_0": 41
          },
          "indices": 42,
          "material": 10
        },
        {
          "attributes": {
            "POSITION": 43,
            "NORMAL": 44,
            "TEXCOORD_0": 45
          },
          "indices": 46,
          "material": 11
        },
        {
          "attributes": {
            "POSITION": 47,
            "NORMAL": 48,
            "TEXCOORD_0": 49
          },
          "indices": 50,
          "material": 12
        }
      ]
    },
    {
      "name": "Cube.655",
      "primitives": [
        {
          "attributes": {
            "POSITION": 51,
            "NORMAL": 52,
            "TEXCOORD_0": 53
          },
          "indices": 54,
          "material": 13
        },
        {
          "attributes": {
            "POSITION": 55,
            "NORMAL": 56,
            "TEXCOORD_0": 57
          },
          "indices": 58,
          "material": 14
        },
        {
          "attributes": {
            "POSITION": 59,
            "NORMAL": 60,
            "TEXCOORD_0": 61
          },
          "indices": 62,
          "material": 15
        }
      ]
    },
    {
      "name": "Cube.007",
      "primitives": [
        {
          "attributes": {
            "POSITION": 63,
            "NORMAL": 64,
            "TEXCOORD_0": 65
          },
          "indices": 54,
          "material": 16
        },
        {
          "attributes": {
            "POSITION": 66,
            "NORMAL": 67,
            "TEXCOORD_0": 68
          },
          "indices": 58,
          "material": 17
        },
        {
          "attributes": {
            "POSITION": 69,
            "NORMAL": 70,
            "TEXCOORD_0": 71
          },
          "indices": 62,
          "material": 18
        }
      ]
    },
    {
      "name": "Cube.008",
      "primitives": [
        {
          "attributes": {
            "POSITION": 72,
            "NORMAL": 73,
            "TEXCOORD_0": 74
          },
          "indices": 42,
          "material": 19
        },
        {
          "attributes": {
            "POSITION": 75,
            "NORMAL": 76,
            "TEXCOORD_0": 77
          },
          "indices": 46,
          "material": 20
        },
        {
          "attributes": {
            "POSITION": 78,
            "NORMAL": 79,
            "TEXCOORD_0": 80
          },
          "indices": 50,
          "material": 21
        }
      ]
    },
    {
      "name": "Cube.071",
      "primitives": [
        {
          "attributes": {
            "POSITION": 81,
            "NORMAL": 82,
            "TEXCOORD_0": 83
          },
          "indices": 84,
          "material": 22
        },
        {
          "attributes": {
            "POSITION": 85,
            "NORMAL": 86,
            "TEXCOORD_0": 87
          },
          "indices": 88,
          "material": 23
        }
      ]
    },
    {
      "name": "Cube.005",
      "primitives": [
        {
          "attributes": {
            "POSITION": 89,
            "NORMAL": 90,
            "TEXCOORD_0": 91
          },
          "indices": 84,
          "material": 24
        },
        {
          "attributes": {
            "POSITION": 92,
            "NORMAL": 93,
            "TEXCOORD_0": 94
          },
          "indices": 88,
          "material": 25
        }
      ]
    },
    {
      "name": "Cube.009",
      "primitives": [
        {
          "attributes": {
            "POSITION": 95,
            "NORMAL": 96,
            "TEXCOORD_0": 97
          },
          "indices": 84,
          "material": 26
        },
        {
          "attributes": {
            "POSITION": 98,
            "NORMAL": 99,
            "TEXCOORD_0": 100
          },
          "indices": 88,
          "material": 27
        }
      ]
    },
    {
      "name": "Cube.039",
      "primitives": [
        {
          "attributes": {
            "POSITION": 101,
            "NORMAL": 102,
            "TEXCOORD_0": 103
          },
          "indices": 104,
          "material": 28
        },
        {
          "attributes": {
            "POSITION": 105,
            "NORMAL": 106,
            "TEXCOORD_0": 107
          },
          "indices": 108,
          "material": 29
        },
        {
          "attributes": {
            "POSITION": 109,
            "NORMAL": 110,
            "TEXCOORD_0": 111
          },
          "indices": 112,
          "material": 30
        },
        {
          "attributes": {
            "POSITION": 113,
            "NORMAL": 114,
            "TEXCOORD_0": 115
          },
          "indices": 116,
          "material": 31
        }
      ]
    },
    {
      "name": "Cube.001",
      "primitives": [
        {
          "attributes": {
            "POSITION": 117,
            "NORMAL": 118,
            "TEXCOORD_0": 119
          },
          "indices": 104,
          "material": 32
        },
        {
          "attributes": {
            "POSITION": 120,
            "NORMAL": 121,
            "TEXCOORD_0": 122
          },
          "indices": 108,
          "material": 33
        },
        {
          "attributes": {
            "POSITION": 123,
            "NORMAL": 124,
            "TEXCOORD_0": 125
          },
          "indices": 112,
          "material": 34
        },
        {
          "attributes": {
            "POSITION": 126,
            "NORMAL": 127,
            "TEXCOORD_0": 128
          },
          "indices": 116,
          "material": 35
        }
      ]
    },
    {
      "name": "Cube.002",
      "primitives": [
        {
          "attributes": {
            "POSITION": 129,
            "NORMAL": 130,
            "TEXCOORD_0": 131
          },
          "indices": 104,
          "material": 36
        },
        {
          "attributes": {
            "POSITION": 132,
            "NORMAL": 133,
            "TEXCOORD_0": 134
          },
          "indices": 108,
          "material": 37
        },
        {
          "attributes": {
            "POSITION": 135,
            "NORMAL": 136,
            "TEXCOORD_0": 137
          },
          "indices": 112,
          "material": 38
        },
        {
          "attributes": {
            "POSITION": 138,
            "NORMAL": 139,
            "TEXCOORD_0": 140
          },
          "indices": 116,
          "material": 39
        }
      ]
    },
    {
      "name": "Cube.004",
      "primitives": [
        {
          "attributes": {
            "POSITION": 141,
            "NORMAL": 142,
            "TEXCOORD_0": 143
          },
          "indices": 104,
          "material": 40
        },
        {
          "attributes": {
            "POSITION": 144,
            "NORMAL": 145,
            "TEXCOORD_0": 146
          },
          "indices": 108,
          "material": 41
        },
        {
          "attributes": {
            "POSITION": 147,
            "NORMAL": 148,
            "TEXCOORD_0": 149
          },
          "indices": 112,
          "material": 42
        },
        {
          "attributes": {
            "POSITION": 150,
            "NORMAL": 151,
            "TEXCOORD_0": 152
          },
          "indices": 116,
          "material": 43
        }
      ]
    },
    {
      "name": "Cube.388",
      "primitives": [
        {
          "attributes": {
            "POSITION": 153,
            "NORMAL": 154,
            "TEXCOORD_0": 155
          },
          "indices": 156,
          "material": 44
        }
      ]
    },
    {
      "name": "Cube.003",
      "primitives": [
        {
          "attributes": {
            "POSITION": 157,
            "NORMAL": 158,
            "TEXCOORD_0": 159
          },
          "indices": 156,
          "material": 45
        }
      ]
    },
    {
      "name": "Cube.035",
      "primitives": [
        {
          "attributes": {
            "POSITION": 160,
            "NORMAL": 161,
            "TEXCOORD_0": 162
          },
          "indices": 163,
          "material": 46
        },
        {
          "attributes": {
            "POSITION": 164,
            "NORMAL": 165,
            "TEXCOORD_0": 166
          },
          "indices": 167,
          "material": 47
        },
        {
          "attributes": {
            "POSITION": 168,
            "NORMAL": 169,
            "TEXCOORD_0": 170
          },
          "indices": 171,
          "material": 48
        }
      ]
    },
    {
      "name": "Cube.006",
      "primitives": [
        {
          "attributes": {
            "POSITION": 172,
            "NORMAL": 173,
            "TEXCOORD_0": 174
          },
          "indices": 163,
          "material": 49
        },
        {
          "attributes": {
            "POSITION": 175,
            "NORMAL": 176,
            "TEXCOORD_0": 177
          },
          "indices": 167,
          "material": 50
        },
        {
          "attributes": {
            "POSITION": 178,
            "NORMAL": 179,
            "TEXCOORD_0": 180
          },
          "indices": 171,
          "material": 51
        }
      ]
    }
  ],
  "textures": [
    {
      "source": 0
    },
    {
      "source": 1
    },
    {
      "source": 2
    },
    {
      "source": 3
    },
    {
      "source": 4
    },
    {
      "source": 5
    },
    {
      "source": 6
    },
    {
      "source": 7
    },
    {
      "source": 8
    },
    {
      "source": 9
    },
    {
      "source": 10
    },
    {
      "source": 11
    },
    {
      "source": 12
    },
    {
      "source": 13
    },
    {
      "source": 14
    },
    {
      "source": 15
    }
  ],
  "images": [
    {
      "uri": "textures/plaster_color.png"
    },
    {
      "uri": "textures/wood_weather_color.png"
    },
    {
      "uri": "textures/roof_square_color.png"
    },
    {
      "uri": "textures/roof_square_normal.png"
    },
    {
      "uri": "textures/bricks_color.png"
    },
    {
      "uri": "textures/bricks_normal.png"
    },
    {
      "uri": "textures/chimney_color.png"
    },
    {
      "uri": "textures/metal_rough_color.png"
    },
    {
      "uri": "textures/wood_planks_color.png"
    },
    {
      "uri": "textures/iron_color.png"
    },
    {
      "uri": "textures/castle_wall_color.png"
    },
    {
      "uri": "textures/castle_wall_normal.png"
    },
    {
      "uri": "textures/stone_floor_color.png"
    },
    {
      "uri": "textures/stone_floor_normal.png"
    },
    {
      "uri": "textures/castle_wall_norocks_color.png"
    },
    {
      "uri": "textures/castle_wall_norocks_normal.png"
    }
  ],
  "accessors": [
    {
      "bufferView": 0,
      "componentType": 5126,
      "count": 8,
      "max": [
        5.997058391571045,
        5.42368221282959,
        2.9873600006103516
      ],
      "min": [
        -5.997039794921875,
        0.12097811698913574,
        -2.987361431121826
      ],
      "type": "VEC3"
    },
    {
      "bufferView": 1,
      "componentType": 5126,
      "count": 8,
      "type": "VEC3"
    },
    {
      "bufferView": 2,
      "componentType": 5126,
      "count": 8,
      "type": "VEC2"
    },
    {
      "bufferView": 3,
      "componentType": 5123,
      "count": 12,
      "type": "SCALAR"
    },
    {
      "bufferView": 4,
      "componentType": 5126,
      "count": 2581,
      "max": [
        6.154197692871094,
        5.707276344299316,
        3.219194173812866
      ],
      "min": [
        -6.154178142547607,
        -0.18416330218315125,
        -3.230353593826294
      ],
      "type": "VEC3"
    },
    {
      "bufferView": 5,
      "componentType": 5126,
      "count": 2581,
      "type": "VEC3"
    },
    {
      "bufferView": 6,
      "componentType": 5126,
      "count": 2581,
      "type": "VEC2"
    },
    {
      "bufferView": 7,
      "componentType": 5123,
      "count": 3876,
      "type": "SCALAR"
    },
    {
      "bufferView": 8,
      "componentType": 5126,
      "count": 48,
      "max": [
        5.997058391571045,
        5.42368221282959,
        3.060352087020874
      ],
      "min": [
        -5.997039794921875,
        -0.024721365422010422,
        -3.060351848602295
      ],
      "type": "VEC3"
    },
    {
      "bufferView": 9,
      "componentType": 5126,
      "count": 48,
      "type": "VEC3"
    },
    {
      "bufferView": 10,
      "componentType": 5126,
      "count": 48,
      "type": "VEC2"
    },
    {
      "bufferView": 11,
      "componentType": 5123,
      "count": 72,
      "type": "SCALAR"
    },
    {
      "bufferView": 12,
      "componentType": 5126,
      "count": 1940,
      "max": [
        3.1170578002929688,
        5.707276344299316,
        3.2220072746276855
      ],
      "min": [
        -3.2089309692382812,
        -0.18416330218315125,
        -3.227538585662842
      ],
      "type": "VEC3"
    },
    {
      "bufferView": 13,
      "componentType": 5126,
      "count": 1940,
      "type": "VEC3"
    },
    {
      "bufferView": 14,
      "componentType": 5126,
      "count": 1940,
      "type": "VEC2"
    },
    {
      "bufferView": 15,
      "componentType": 5123,
      "count": 3012,
      "type": "SCALAR"
    },
    {
      "bufferView": 16,
      "componentType": 5126,
      "count": 40,
      "max": [
        2.959918737411499,
        5.42368221282959,
        3.0575368404388428
      ],
      "min": [
        -2.9599056243896484,
        -0.024721365422010422,
        -3.0575368404388428
      ],
      "type": "VEC3"
    },
    {
      "bufferView": 17,
      "componentType": 5126,
      "count": 40,
      "type": "VEC3"
    },
    {
      "bufferView": 18,
      "componentType": 5126,
      "count": 40,
      "type": "VEC2"
    },
    {
      "bufferView": 19,
      "componentType": 5123,
      "count": 60,
      "type": "SCALAR"
    },
    {
      "bufferView": 20,
      "componentType": 5126,
      "count": 8,
      "max": [
        2.959918737411499,
        5.42368221282959,
        2.990173101425171
      ],
      "min": [
        -3.0517919063568115,
        0.12097811698913574,
        -2.984546184539795
      ],
      "type": "VEC3"
    },
    {
      "bufferView": 21,
      "componentType": 5126,
      "count": 8,
      "type": "VEC3"
    },
    {
      "bufferView": 22,
      "componentType": 5126,
      "count": 8,
      "type": "VEC2"
    },
    {
      "bufferView": 23,
      "componentType": 5126,
      "count": 24,
      "max": [
        1.059084415435791,
        2.4508883953094482,
        0.3494468629360199
      ],
      "min": [
        -1.059084415435791,
        -2.6382505069477702e-08,
        -0.3494470417499542
      ],
      "type": "VEC3"
    },
    {
      "bufferView": 24,
      "componentType": 5126,
      "count": 24,
      "type": "VEC3"
    },
    {
      "bufferView": 25,
      "componentType": 5126,
      "count": 24,
      "type": "VEC2"
    },
    {
      "bufferView": 26,
      "componentType": 5123,
      "count": 36,
      "type": "SCALAR"
    },
    {
      "bufferView": 27,
      "componentType": 5126,
      "count": 36,
      "max": [
        1.0590744018554688,
        3.354464054107666,
        0.3494468629360199
      ],
      "min": [
        -1.0590943098068237,
        -2.6382505069477702e-08,
        -0.349447101354599
      ],
      "type": "VEC3"
    },
    {
      "bufferView": 28,
      "componentType": 5126,
      "count": 36,
      "type": "VEC3"
    },
    {
      "bufferView": 29,
      "componentType": 5126,
      "count": 36,
      "type": "VEC2"
    },
    {
      "bufferView": 30,
      "componentType": 5123,
      "count": 60,
      "type": "SCALAR"
    },
    {
      "bufferView": 31,
      "componentType": 5126,
      "count": 252,
      "max": [
        0.26996302604675293,
        3.799712896347046,
        0.27569448947906494
      ],
      "min": [
        -0.23170942068099976,
        3.332209348678589,
        -0.2219220995903015
      ],
      "type": "VEC3"
    },
    {
      "bufferView": 32,
      "componentType": 5126,
      "count": 252,
      "type": "VEC3"
    },
    {
      "bufferView": 33,
      "componentType": 5126,
      "count": 252,
      "type": "VEC2"
    },
    {
      "bufferView": 34,
      "componentType": 5123,
      "count": 672,
      "type": "SCALAR"
    },
    {
      "bufferView": 35,
      "componentType": 5126,
      "count": 16,
      "max": [
        0.19667445123195648,
        3.70932674407959,
        0.2024058699607849
      ],
      "min": [
        -0.15842077136039734,
        3.70932674407959,
        -0.14863350987434387
      ],
      "type": "VEC3"
    },
    {
      "bufferView": 36,
      "componentType": 5126,
      "count": 16,
      "type": "VEC3"
    },
    {
      "bufferView": 37,
      "componentType": 5126,
      "count": 16,
      "type": "VEC2"
    },
    {
      "bufferView": 38,
      "componentType": 5123,
      "count": 36,
      "type": "SCALAR"
    },
    {
      "bufferView": 39,
      "componentType": 5126,
      "count": 408,
      "max": [
        0.4474483132362366,
        1.9523507356643677,
        0.0463356152176857
      ],
      "min": [
        -0.44745439291000366,
        -3.4982492458368597e-09,
        -0.046335864812135696
      ],
      "type": "VEC3"
    },
    {
      "bufferView": 40,
      "componentType": 5126,
      "count": 408,
      "type": "VEC3"
    },
    {
      "bufferView": 41,
      "componentType": 5126,
      "count": 408,
      "type": "VEC2"
    },
    {
      "bufferView": 42,
      "componentType": 5123,
      "count": 612,
      "type": "SCALAR"
    },
    {
      "bufferView": 43,
      "componentType": 5126,
      "count": 99,
      "max": [
        0.4058837294578552,
        1.2595529556274414,
        0.13646000623703003
      ],
      "min": [
        0.35112112760543823,
        0.9304835200309753,
        0.03655114769935608
      ],
      "type": "VEC3"
    },
    {
      "bufferView": 44,
      "componentType": 5126,
      "count": 99,
      "type": "VEC3"
    },
    {
      "bufferView": 45,
      "componentType": 5126,
      "count": 99,
      "type": "VEC2"
    },
    {
      "bufferView": 46,
      "componentType": 5123,
      "count": 480,
      "type": "SCALAR"
    },
    {
      "bufferView": 47,
      "componentType": 5126,
      "count": 72,
      "max": [
        0.6919475197792053,
        2.170567035675049,
        0.1245059221982956
      ],
      "min": [
        -0.6943864226341248,
        -0.00017347912944387645,
        -0.10047673434019089
      ],
      "type": "VEC3"
    },
    {
      "bufferView": 48,
      "componentType": 5126,
      "count": 72,
      "type": "VEC3"
    },
    {
      "bufferView": 49,
      "componentType": 5126,
      "count": 72,
      "type": "VEC2"
    },
    {
      "bufferView": 50,
      "componentType": 5123,
      "count": 108,
      "type": "SCALAR"
    },
    {
      "bufferView": 51,
      "componentType": 5126,
      "count": 408,
      "max": [
        0.447601318359375,
        1.9525238275527954,
        0.03432094678282738
      ],
      "min": [
        -0.447296142578125,
        0.0001733496319502592,
        -0.058350466191768646
      ],
      "type": "VEC3"
    },
    {
      "bufferView": 52,
      "componentType": 5126,
      "count": 408,
      "type": "VEC3"
    },
    {
      "bufferView": 53,
      "componentType": 5126,
      "count": 408,
      "type": "VEC2"
    },
    {
      "bufferView": 54,
      "componentType": 5123,
      "count": 612,
      "type": "SCALAR"
    },
    {
      "bufferView": 55,
      "componentType": 5126,
      "count": 99,
      "max": [
        -0.350982666015625,
        1.2597262859344482,
        0.124445341527462
      ],
      "min": [
        -0.405731201171875,
        0.9306568503379822,
        0.024536510929465294
      ],
      "type": "VEC3"
    },
    {
      "bufferView": 56,
      "componentType": 5126,
      "count": 99,
      "type": "VEC3"
    },
    {
      "bufferView": 57,
      "componentType": 5126,
      "count": 99,
      "type": "VEC2"
    },
    {
      "bufferView": 58,
      "componentType": 5123,
      "count": 480,
      "type": "SCALAR"
    },
    {
      "bufferView": 59,
      "componentType": 5126,
      "count": 72,
      "max": [
        0.694549560546875,
        2.1707403659820557,
        0.11249133199453354
      ],
      "min": [
        -0.691802978515625,
        -1.2601822163560428e-07,
        -0.11249139904975891
      ],
      "type": "VEC3"
    },
    {
      "bufferView": 60,
      "componentType": 5126,
      "count": 72,
      "type": "VEC3"
    },
    {
      "bufferView": 61,
      "componentType": 5126,
      "count": 72,
      "type": "VEC2"
    },
    {
      "bufferView": 62,
      "componentType": 5123,
      "count": 108,
      "type": "SCALAR"
    },
    {
      "bufferView": 63,
      "componentType": 5126,
      "count": 408,
      "max": [
        0.447601318359375,
        1.9525238275527954,
        0.03432094678282738
      ],
      "min": [
        -0.447296142578125,
        0.0001733496319502592,
        -0.058350466191768646
      ],
      "type": "VEC3"
    },
    {
      "bufferView": 64,
      "componentType": 5126,
      "count": 408,
      "type": "VEC3"
    },
    {
      "bufferView": 65,
      "componentType": 5126,
      "count": 408,
      "type": "VEC2"
    },
    {
      "bufferView": 66,
      "componentType": 5126,
      "count": 99,
      "max": [
        -0.350982666015625,
        1.2597262859344482,
        0.124445341527462
      ],
      "min": [
        -0.405731201171875,
        0.9306568503379822,
        0.024536510929465294
      ],
      "type": "VEC3"
    },
    {
      "bufferView": 67,
      "componentType": 5126,
      "count": 99,
      "type": "VEC3"
    },
    {
      "bufferView": 68,
      "componentType": 5126,
      "count": 99,
      "type": "VEC2"
    },
    {
      "bufferView": 69,
      "componentType": 5126,
      "count": 72,
      "max": [
        0.694549560546875,
        2.1707403659820557,
        0.11249133199453354
      ],
      "min": [
        -0.691802978515625,
        -1.2601822163560428e-07,
        -0.11249139904975891
      ],
      "type": "VEC3"
    },
    {
      "bufferView": 70,
      "componentType": 5126,
      "count": 72,
      "type": "VEC3"
    },
    {
      "bufferView": 71,
      "componentType": 5126,
      "count": 72,
      "type": "VEC2"
    },
    {
      "bufferView": 72,
      "componentType": 5126,
      "count": 408,
      "max": [
        0.4474483132362366,
        1.9523507356643677,
        0.0463356152176857
      ],
      "min": [
        -0.44745439291000366,
        -3.4982492458368597e-09,
        -0.046335864812135696
      ],
      "type": "VEC3"
    },
    {
      "bufferView": 73,
      "componentType": 5126,
      "count": 408,
      "type": "VEC3"
    },
    {
      "bufferView": 74,
      "componentType": 5126,
      "count": 408,
      "type": "VEC2"
    },
    {
      "bufferView": 75,
      "componentType": 5126,
      "count": 99,
      "max": [
        0.4058837294578552,
        1.2595529556274414,
        0.13646000623703003
      ],
      "min": [
        0.35112112760543823,
        0.9304835200309753,
        0.03655114769935608
      ],
      "type": "VEC3"
    },
    {
      "bufferView": 76,
      "componentType": 5126,
      "count": 99,
      "type": "VEC3"
    },
    {
      "bufferView": 77,
      "componentType": 5126,
      "count": 99,
      "type": "VEC2"
    },
    {
      "bufferView": 78,
      "componentType": 5126,
      "count": 72,
      "max": [
        0.6919475197792053,
        2.170567035675049,
        0.1245059221982956
      ],
      "min": [
        -0.6943864226341248,
        -0.00017347912944387645,
        -0.10047673434019089
      ],
      "type": "VEC3"
    },
    {
      "bufferView": 79,
      "componentType": 5126,
      "count": 72,
      "type": "VEC3"
    },
    {
      "bufferView": 80,
      "componentType": 5126,
      "count": 72,
      "type": "VEC2"
    },
    {
      "bufferView": 81,
      "componentType": 5126,
      "count": 52,
      "max": [
        3.0000009536743164,
        0.006676899269223213,
        3.000000238418579
      ],
      "min": [
        -2.9999990463256836,
        -7.640122890472412,
        -2.999999761581421
      ],
      "type": "VEC3"
    },
    {
      "bufferView": 82,
      "componentType": 5126,
      "count": 52,
      "type": "VEC3"
    },
    {
      "bufferView": 83,
      "componentType": 5126,
      "count": 52,
      "type": "VEC2"
    },
    {
      "bufferView": 84,
      "componentType": 5123,
      "count": 78,
      "type": "SCALAR"
    },
    {
      "bufferView": 85,
      "componentType": 5126,
      "count": 4,
      "max": [
        2.392393112182617,
        -0.692063570022583,
        2.3923919200897217
      ],
      "min": [
        -2.3923912048339844,
        -0.6920639276504517,
        -2.3923919200897217
      ],
      "type": "VEC3"
    },
    {
      "bufferView": 86,
      "componentType": 5126,
      "count": 4,
      "type": "VEC3"
    },
    {
      "bufferView": 87,
      "componentType": 5126,
      "count": 4,
      "type": "VEC2"
    },
    {
      "bufferView": 88,
      "componentType": 5123,
      "count": 6,
      "type": "SCALAR"
    },
    {
      "bufferView": 89,
      "componentType": 5126,
      "count": 52,
      "max": [
        3.0000009536743164,
        0.006676899269223213,
        3.000000238418579
      ],
      "min": [
        -2.9999990463256836,
        -7.640122890472412,
        -2.999999761581421
      ],
      "type": "VEC3"
    },
    {
      "bufferView": 90,
      "componentType": 5126,
      "count": 52,
      "type": "VEC3"
    },
    {
      "bufferView": 91,
      "componentType": 5126,
      "count": 52,
      "type": "VEC2"
    },
    {
      "bufferView": 92,
      "componentType": 5126,
      "count": 4,
      "max": [
        2.392393112182617,
        -0.692063570022583,
        2.3923919200897217
      ],
      "min": [
        -2.3923912048339844,
        -0.6920639276504517,
        -2.3923919200897217
      ],
      "type": "VEC3"
    },
    {
      "bufferView": 93,
      "componentType": 5126,
      "count": 4,
      "type": "VEC3"
    },
    {
      "bufferView": 94,
      "componentType": 5126,
      "count": 4,
      "type": "VEC2"
    },
    {
      "bufferView": 95,
      "componentType": 5126,
      "count": 52,
      "max": [
        3.0000009536743164,
        0.006676899269223213,
        3.000000238418579
      ],
      "min": [
        -2.9999990463256836,
        -7.640122890472412,
        -2.999999761581421
      ],
      "type": "VEC3"
    },
    {
      "bufferView": 96,
      "componentType": 5126,
      "count": 52,
      "type": "VEC3"
    },
    {
      "bufferView": 97,
      "componentType": 5126,
      "count": 52,
      "type": "VEC2"
    },
    {
      "bufferView": 98,
      "componentType": 5126,
      "count": 4,
      "max": [
        2.392393112182617,
        -0.692063570022583,
        2.3923919200897217
      ],
      "min": [
        -2.3923912048339844,
        -0.6920639276504517,
        -2.3923919200897217
      ],
      "type": "VEC3"
    },
    {
      "bufferView": 99,
      "componentType": 5126,
      "count": 4,
      "type": "VEC3"
    },
    {
      "bufferView": 100,
      "componentType": 5126,
      "count": 4,
      "type": "VEC2"
    },
    {
      "bufferView": 101,
      "componentType": 5126,
      "count": 1146,
      "max": [
        0.335968017578125,
        0.7210480570793152,
        0.058145564049482346
      ],
      "min": [
        -0.33754730224609375,
        -0.742240846157074,
        -0.050864264369010925
      ],
      "type": "VEC3"
    },
    {
      "bufferView": 102,
      "componentType": 5126,
      "count": 1146,
      "type": "VEC3"
    },
    {
      "bufferView": 103,
      "componentType": 5126,
      "count": 1146,
      "type": "VEC2"
    },
    {
      "bufferView": 104,
      "componentType": 5123,
      "count": 3384,
      "type": "SCALAR"
    },
    {
      "bufferView": 105,
      "componentType": 5126,
      "count": 6,
      "max": [
        0.2207183837890625,
        0.6794322729110718,
        -0.04111093282699585
      ],
      "min": [
        -0.21784210205078125,
        -0.735885739326477,
        -0.041111040860414505
      ],
      "type": "VEC3"
    },
    {
      "bufferView": 106,
      "componentType": 5126,
      "count": 6,
      "type": "VEC3"
    },
    {
      "bufferView": 107,
      "componentType": 5126,
      "count": 6,
      "type": "VEC2"
    },
    {
      "bufferView": 108,
      "componentType": 5123,
      "count": 12,
      "type": "SCALAR"
    },
    {
      "bufferView": 109,
      "componentType": 5126,
      "count": 1728,
      "max": [
        0.12648773193359375,
        0.35965439677238464,
        0.043917689472436905
      ],
      "min": [
        -0.1273345947265625,
        -0.490853488445282,
        -0.04242899268865585
      ],
      "type": "VEC3"
    },
    {
      "bufferView": 110,
      "componentType": 5126,
      "count": 1728,
      "type": "VEC3"
    },
    {
      "bufferView": 111,
      "componentType": 5126,
      "count": 1728,
      "type": "VEC2"
    },
    {
      "bufferView": 112,
      "componentType": 5123,
      "count": 2592,
      "type": "SCALAR"
    },
    {
      "bufferView": 113,
      "componentType": 5126,
      "count": 288,
      "max": [
        0.2653350830078125,
        0.6393248438835144,
        0.03370765224099159
      ],
      "min": [
        -0.25313568115234375,
        -0.6915852427482605,
        -0.035471007227897644
      ],
      "type": "VEC3"
    },
    {
      "bufferView": 114,
      "componentType": 5126,
      "count": 288,
      "type": "VEC3"
    },
    {
      "bufferView": 115,
      "componentType": 5126,
      "count": 288,
      "type": "VEC2"
    },
    {
      "bufferView": 116,
      "componentType": 5123,
      "count": 432,
      "type": "SCALAR"
    },
    {
      "bufferView": 117,
      "componentType": 5126,
      "count": 1146,
      "max": [
        0.335968017578125,
        0.7210480570793152,
        0.058145564049482346
      ],
      "min": [
        -0.33754730224609375,
        -0.742240846157074,
        -0.050864264369010925
      ],
      "type": "VEC3"
    },
    {
      "bufferView": 118,
      "componentType": 5126,
      "count": 1146,
      "type": "VEC3"
    },
    {
      "bufferView": 119,
      "componentType": 5126,
      "count": 1146,
      "type": "VEC2"
    },
    {
      "bufferView": 120,
      "componentType": 5126,
      "count": 6,
      "max": [
        0.2207183837890625,
        0.6794322729110718,
        -0.04111093282699585
      ],
      "min": [
        -0.21784210205078125,
        -0.735885739326477,
        -0.041111040860414505
      ],
      "type": "VEC3"
    },
    {
      "bufferView": 121,
      "componentType": 5126,
      "count": 6,
      "type": "VEC3"
    },
    {
      "bufferView": 122,
      "componentType": 5126,
      "count": 6,
      "type": "VEC2"
    },
    {
      "bufferView": 123,
      "componentType": 5126,
      "count": 1728,
      "max": [
        0.12648773193359375,
        0.35965439677238464,
        0.043917689472436905
      ],
      "min": [
        -0.1273345947265625,
        -0.490853488445282,
        -0.04242899268865585
      ],
      "type": "VEC3"
    },
    {
      "bufferView": 124,
      "componentType": 5126,
      "count": 1728,
      "type": "VEC3"
    },
    {
      "bufferView": 125,
      "componentType": 5126,
      "count": 1728,
      "type": "VEC2"
    },
    {
      "bufferView": 126,
      "componentType": 5126,
      "count": 288,
      "max": [
        0.2653350830078125,
        0.6393248438835144,
        0.03370765224099159
      ],
      "min": [
        -0.25313568115234375,
        -0.6915852427482605,
        -0.035471007227897644
      ],
      "type": "VEC3"
    },
    {
      "bufferView": 127,
      "componentType": 5126,
      "count": 288,
      "type": "VEC3"
    },
    {
      "bufferView": 128,
      "componentType": 5126,
      "count": 288,
      "type": "VEC2"
    },
    {
      "bufferView": 129,
      "componentType": 5126,
      "count": 1146,
      "max": [
        0.335968017578125,
        0.7210480570793152,
        0.058145564049482346
      ],
      "min": [
        -0.33754730224609375,
        -0.742240846157074,
        -0.050864264369010925
      ],
      "type": "VEC3"
    },
    {
      "bufferView": 130,
      "componentType": 5126,
      "count": 1146,
      "type": "VEC3"
    },
    {
      "bufferView": 131,
      "componentType": 5126,
      "count": 1146,
      "type": "VEC2"
    },
    {
      "bufferView": 132,
      "componentType": 5126,
      "count": 6,
      "max": [
        0.2207183837890625,
        0.6794322729110718,
        -0.04111093282699585
      ],
      "min": [
        -0.21784210205078125,
        -0.735885739326477,
        -0.041111040860414505
      ],
      "type": "VEC3"
    },
    {
      "bufferView": 133,
      "componentType": 5126,
      "count": 6,
      "type": "VEC3"
    },
    {
      "bufferView": 134,
      "componentType": 5126,
      "count": 6,
      "type": "VEC2"
    },
    {
      "bufferView": 135,
      "componentType": 5126,
      "count": 1728,
      "max": [
        0.12648773193359375,
        0.35965439677238464,
        0.043917689472436905
      ],
      "min": [
        -0.1273345947265625,
        -0.490853488445282,
        -0.04242899268865585
      ],
      "type": "VEC3"
    },
    {
      "bufferView": 136,
      "componentType": 5126,
      "count": 1728,
      "type": "VEC3"
    },
    {
      "bufferView": 137,
      "componentType": 5126,
      "count": 1728,
      "type": "VEC2"
    },
    {
      "bufferView": 138,
      "componentType": 5126,
      "count": 288,
      "max": [
        0.2653350830078125,
        0.6393248438835144,
        0.03370765224099159
      ],
      "min": [
        -0.25313568115234375,
        -0.6915852427482605,
        -0.035471007227897644
      ],
      "type": "VEC3"
    },
    {
      "bufferView": 139,
      "componentType": 5126,
      "count": 288,
      "type": "VEC3"
    },
    {
      "bufferView": 140,
      "componentType": 5126,
      "count": 288,
      "type": "VEC2"
    },
    {
      "bufferView": 141,
      "componentType": 5126,
      "count": 1146,
      "max": [
        0.335968017578125,
        0.7210480570793152,
        0.058145564049482346
      ],
      "min": [
        -0.33754730224609375,
        -0.742240846157074,
        -0.050864264369010925
      ],
      "type": "VEC3"
    },
    {
      "bufferView": 142,
      "componentType": 5126,
      "count": 1146,
      "type": "VEC3"
    },
    {
      "bufferView": 143,
      "componentType": 5126,
      "count": 1146,
      "type": "VEC2"
    },
    {
      "bufferView": 144,
      "componentType": 5126,
      "count": 6,
      "max": [
        0.2207183837890625,
        0.6794322729110718,
        -0.04111093282699585
      ],
      "min": [
        -0.21784210205078125,
        -0.735885739326477,
        -0.041111040860414505
      ],
      "type": "VEC3"
    },
    {
      "bufferView": 145,
      "componentType": 5126,
      "count": 6,
      "type": "VEC3"
    },
    {
      "bufferView": 146,
      "componentType": 5126,
      "count": 6,
      "type": "VEC2"
    },
    {
      "bufferView": 147,
      "componentType": 5126,
      "count": 1728,
      "max": [
        0.12648773193359375,
        0.35965439677238464,
        0.043917689472436905
      ],
      "min": [
        -0.1273345947265625,
        -0.490853488445282,
        -0.04242899268865585
      ],
      "type": "VEC3"
    },
    {
      "bufferView": 148,
      "componentType": 5126,
      "count": 1728,
      "type": "VEC3"
    },
    {
      "bufferView": 149,
      "componentType": 5126,
      "count": 1728,
      "type": "VEC2"
    },
    {
      "bufferView": 150,
      "componentType": 5126,
      "count": 288,
      "max": [
        0.2653350830078125,
        0.6393248438835144,
        0.03370765224099159
      ],
      "min": [
        -0.25313568115234375,
        -0.6915852427482605,
        -0.035471007227897644
      ],
      "type": "VEC3"
    },
    {
      "bufferView": 151,
      "componentType": 5126,
      "count": 288,
      "type": "VEC3"
    },
    {
      "bufferView": 152,
      "componentType": 5126,
      "count": 288,
      "type": "VEC2"
    },
    {
      "bufferView": 153,
      "componentType": 5126,
      "count": 64,
      "max": [
        0.170928955078125,
        2.2100954055786133,
        0.1691419780254364
      ],
      "min": [
        -0.191925048828125,
        -1.2769891810648915e-08,
        -0.16914249956607819
      ],
      "type": "VEC3"
    },
    {
      "bufferView": 154,
      "componentType": 5126,
      "count": 64,
      "type": "VEC3"
    },
    {
      "bufferView": 155,
      "componentType": 5126,
      "count": 64,
      "type": "VEC2"
    },
    {
      "bufferView": 156,
      "componentType": 5123,
      "count": 132,
      "type": "SCALAR"
    },
    {
      "bufferView": 157,
      "componentType": 5126,
      "count": 64,
      "max": [
        0.170928955078125,
        2.2100954055786133,
        0.1691419780254364
      ],
      "min": [
        -0.191925048828125,
        -1.2769891810648915e-08,
        -0.16914249956607819
      ],
      "type": "VEC3"
    },
    {
      "bufferView": 158,
      "componentType": 5126,
      "count": 64,
      "type": "VEC3"
    },
    {
      "bufferView": 159,
      "componentType": 5126,
      "count": 64,
      "type": "VEC2"
    },
    {
      "bufferView": 160,
      "componentType": 5126,
      "count": 1604,
      "max": [
        0.4903411865234375,
        0.7234916090965271,
        0.11804107576608658
      ],
      "min": [
        -0.49019622802734375,
        -0.6925815343856812,
        -0.20578138530254364
      ],
      "type": "VEC3"
    },
    {
      "bufferView": 161,
      "componentType": 5126,
      "count": 1604,
      "type": "VEC3"
    },
    {
      "bufferView": 162,
      "componentType": 5126,
      "count": 1604,
      "type": "VEC2"
    },
    {
      "bufferView": 163,
      "componentType": 5123,
      "count": 2412,
      "type": "SCALAR"
    },
    {
      "bufferView": 164,
      "componentType": 5126,
      "count": 240,
      "max": [
        0.41082000732421875,
        0.7073058485984802,
        0.04403834044933319
      ],
      "min": [
        -0.41066741943359375,
        -0.6316377520561218,
        -0.025555184110999107
      ],
      "type": "VEC3"
    },
    {
      "bufferView": 165,
      "componentType": 5126,
      "count": 240,
      "type": "VEC3"
    },
    {
      "bufferView": 166,
      "componentType": 5126,
      "count": 240,
      "type": "VEC2"
    },
    {
      "bufferView": 167,
      "componentType": 5123,
      "count": 360,
      "type": "SCALAR"
    },
    {
      "bufferView": 168,
      "componentType": 5126,
      "count": 4,
      "max": [
        0.38544464111328125,
        0.6797453165054321,
        -0.02794022299349308
      ],
      "min": [
        -0.3852996826171875,
        -0.6071798205375671,
        -0.02794032171368599
      ],
      "type": "VEC3"
    },
    {
      "bufferView": 169,
      "componentType": 5126,
      "count": 4,
      "type": "VEC3"
    },
    {
      "bufferView": 170,
      "componentType": 5126,
      "count": 4,
      "type": "VEC2"
    },
    {
      "bufferView": 171,
      "componentType": 5123,
      "count": 6,
      "type": "SCALAR"
    },
    {
      "bufferView": 172,
      "componentType": 5126,
      "count": 1604,
      "max": [
        0.4903411865234375,
        0.7234916090965271,
        0.11804107576608658
      ],
      "min": [
        -0.49019622802734375,
        -0.6925815343856812,
        -0.20578138530254364
      ],
      "type": "VEC3"
    },
    {
      "bufferView": 173,
      "componentType": 5126,
      "count": 1604,
      "type": "VEC3"
    },
    {
      "bufferView": 174,
      "componentType": 5126,
      "count": 1604,
      "type": "VEC2"
    },
    {
      "bufferView": 175,
      "componentType": 5126,
      "count": 240,
      "max": [
        0.41082000732421875,
        0.7073058485984802,
        0.04403834044933319
      ],
      "min": [
        -0.41066741943359375,
        -0.6316377520561218,
        -0.025555184110999107
      ],
      "type": "VEC3"
    },
    {
      "bufferView": 176,
      "componentType": 5126,
      "count": 240,
      "type": "VEC3"
    },
    {
      "bufferView": 177,
      "componentType": 5126,
      "count": 240,
      "type": "VEC2"
    },
    {
      "bufferView": 178,
      "componentType": 5126,
      "count": 4,
      "max": [
        0.38544464111328125,
        0.6797453165054321,
        -0.02794022299349308
      ],
      "min": [
        -0.3852996826171875,
        -0.6071798205375671,
        -0.02794032171368599
      ],
      "type": "VEC3"
    },
    {
      "bufferView": 179,
      "componentType": 5126,
      "count": 4,
      "type": "VEC3"
    },
    {
      "bufferView": 180,
      "componentType": 5126,
      "count": 4,
      "type": "VEC2"
    }
  ],
  "bufferViews": [
    {
      "buffer": 0,
      "byteLength": 96,
      "byteOffset": 0,
      "target": 34962
    },
    {
      "buffer": 0,
      "byteLength": 96,
      "byteOffset": 96,
      "target": 34962
    },
    {
      "buffer": 0,
      "byteLength": 64,
      "byteOffset": 192,
      "target": 34962
    },
    {
      "buffer": 0,
      "byteLength": 24,
      "byteOffset": 256,
      "target": 34963
    },
    {
      "buffer": 0,
      "byteLength": 30972,
      "byteOffset": 280,
      "target": 34962
    },
    {
      "buffer": 0,
      "byteLength": 30972,
      "byteOffset": 31252,
      "target": 34962
    },
    {
      "buffer": 0,
      "byteLength": 20648,
      "byteOffset": 62224,
      "target": 34962
    },
    {
      "buffer": 0,
      "byteLength": 7752,
      "byteOffset": 82872,
      "target": 34963
    },
    {
      "buffer": 0,
      "byteLength": 576,
      "byteOffset": 90624,
      "target": 34962
    },
    {
      "buffer": 0,
      "byteLength": 576,
      "byteOffset": 91200,
      "target": 34962
    },
    {
      "buffer": 0,
      "byteLength": 384,
      "byteOffset": 91776,
      "target": 34962
    },
    {
      "buffer": 0,
      "byteLength": 144,
      "byteOffset": 92160,
      "target": 34963
    },
    {
      "buffer": 0,
      "byteLength": 23280,
      "byteOffset": 92304,
      "target": 34962
    },
    {
      "buffer": 0,
      "byteLength": 23280,
      "byteOffset": 115584,
      "target": 34962
    },
    {
      "buffer": 0,
      "byteLength": 15520,
      "byteOffset": 138864,
      "target": 34962
    },
    {
      "buffer": 0,
      "byteLength": 6024,
      "byteOffset": 154384,
      "target": 34963
    },
    {
      "buffer": 0,
      "byteLength": 480,
      "byteOffset": 160408,
      "target": 34962
    },
    {
      "buffer": 0,
      "byteLength": 480,
      "byteOffset": 160888,
      "target": 34962
    },
    {
      "buffer": 0,
      "byteLength": 320,
      "byteOffset": 161368,
      "target": 34962
    },
    {
      "buffer": 0,
      "byteLength": 120,
      "byteOffset": 161688,
      "target": 34963
    },
    {
      "buffer": 0,
      "byteLength": 96,
      "byteOffset": 161808,
      "target": 34962
    },
    {
      "buffer": 0,
      "byteLength": 96,
      "byteOffset": 161904,
      "target": 34962
    },
    {
      "buffer": 0,
      "byteLength": 64,
      "byteOffset": 162000,
      "target": 34962
    },
    {
      "buffer": 0,
      "byteLength": 288,
      "byteOffset": 162064,
      "target": 34962
    },
    {
      "buffer": 0,
      "byteLength": 288,
      "byteOffset": 162352,
      "target": 34962
    },
    {
      "buffer": 0,
      "byteLength": 192,
      "byteOffset": 162640,
      "target": 34962
    },
    {
      "buffer": 0,
      "byteLength": 72,
      "byteOffset": 162832,
      "target": 34963
    },
    {
      "buffer": 0,
      "byteLength": 432,
      "byteOffset": 162904,
      "target": 34962
    },
    {
      "buffer": 0,
      "byteLength": 432,
      "byteOffset": 163336,
      "target": 34962
    },
    {
      "buffer": 0,
      "byteLength": 288,
      "byteOffset": 163768,
      "target": 34962
    },
    {
      "buffer": 0,
      "byteLength": 120,
      "byteOffset": 164056,
      "target": 34963
    },
    {
      "buffer": 0,
      "byteLength": 3024,
      "byteOffset": 164176,
      "target": 34962
    },
    {
      "buffer": 0,
      "byteLength": 3024,
      "byteOffset": 167200,
      "target": 34962
    },
    {
      "buffer": 0,
      "byteLength": 2016,
      "byteOffset": 170224,
      "target": 34962
    },
    {
      "buffer": 0,
      "byteLength": 1344,
      "byteOffset": 172240,
      "target": 34963
    },
    {
      "buffer": 0,
      "byteLength": 192,
      "byteOffset": 173584,
      "target": 34962
    },
    {
      "buffer": 0,
      "byteLength": 192,
      "byteOffset": 173776,
      "target": 34962
    },
    {
      "buffer": 0,
      "byteLength": 128,
      "byteOffset": 173968,
      "target": 34962
    },
    {
      "buffer": 0,
      "byteLength": 72,
      "byteOffset": 174096,
      "target": 34963
    },
    {
      "buffer": 0,
      "byteLength": 4896,
      "byteOffset": 174168,
      "target": 34962
    },
    {
      "buffer": 0,
      "byteLength": 4896,
      "byteOffset": 179064,
      "target": 34962
    },
    {
      "buffer": 0,
      "byteLength": 3264,
      "byteOffset": 183960,
      "target": 34962
    },
    {
      "buffer": 0,
      "byteLength": 1224,
      "byteOffset": 187224,
      "target": 34963
    },
    {
      "buffer": 0,
      "byteLength": 1188,
      "byteOffset": 188448,
      "target": 34962
    },
    {
      "buffer": 0,
      "byteLength": 1188,
      "byteOffset": 189636,
      "target": 34962
    },
    {
      "buffer": 0,
      "byteLength": 792,
      "byteOffset": 190824,
      "target": 34962
    },
    {
      "buffer": 0,
      "byteLength": 960,
      "byteOffset": 191616,
      "target": 34963
    },
    {
      "buffer": 0,
      "byteLength": 864,
      "byteOffset": 192576,
      "target": 34962
    },
    {
      "buffer": 0,
      "byteLength": 864,
      "byteOffset": 193440,
      "target": 34962
    },
    {
      "buffer": 0,
      "byteLength": 576,
      "byteOffset": 194304,
      "target": 34962
    },
    {
      "buffer": 0,
      "byteLength": 216,
      "byteOffset": 194880,
      "target": 34963
    },
    {
      "buffer": 0,
      "byteLength": 4896,
      "byteOffset": 195096,
      "target": 34962
    },
    {
      "buffer": 0,
      "byteLength": 4896,
      "byteOffset": 199992,
      "target": 34962
    },
    {
      "buffer": 0,
      "byteLength": 3264,
      "byteOffset": 204888,
      "target": 34962
    },
    {
      "buffer": 0,
      "byteLength": 1224,
      "byteOffset": 208152,
      "target": 34963
    },
    {
      "buffer": 0,
      "byteLength": 1188,
      "byteOffset": 209376,
      "target": 34962
    },
    {
      "buffer": 0,
      "byteLength": 1188,
      "byteOffset": 210564,
      "target": 34962
    },
    {
      "buffer": 0,
      "byteLength": 792,
      "byteOffset": 211752,
      "target": 34962
    },
    {
      "buffer": 0,
      "byteLength": 960,
      "byteOffset": 212544,
      "target": 34963
    },
    {
      "buffer": 0,
      "byteLength": 864,
      "byteOffset": 213504,
      "target": 34962
    },
    {
      "buffer": 0,
      "byteLength": 864,
      "byteOffset": 214368,
      "target": 34962
    },
    {
      "buffer": 0,
      "byteLength": 576,
      "byteOffset": 215232,
      "target": 34962
    },
    {
      "buffer": 0,
      "byteLength": 216,
      "byteOffset": 215808,
      "target": 34963
    },
    {
      "buffer": 0,
      "byteLength": 4896,
      "byteOffset": 216024,
      "target": 34962
    },
    {
      "buffer": 0,
      "byteLength": 4896,
      "byteOffset": 220920,
      "target": 34962
    },
    {
      "buffer": 0,
      "byteLength": 3264,
      "byteOffset": 225816,
      "target": 34962
    },
    {
      "buffer": 0,
      "byteLength": 1188,
      "byteOffset": 229080,
      "target": 34962
    },
    {
      "buffer": 0,
      "byteLength": 1188,
      "byteOffset": 230268,
      "target": 34962
    },
    {
      "buffer": 0,
      "byteLength": 792,
      "byteOffset": 231456,
      "target": 34962
    },
    {
      "buffer": 0,
      "byteLength": 864,
      "byteOffset": 232248,
      "target": 34962
    },
    {
      "buffer": 0,
      "byteLength": 864,
      "byteOffset": 233112,
      "target": 34962
    },
    {
      "buffer": 0,
      "byteLength": 576,
      "byteOffset": 233976,
      "target": 34962
    },
    {
      "buffer": 0,
      "byteLength": 4896,
      "byteOffset": 234552,
      "target": 34962
    },
    {
      "buffer": 0,
      "byteLength": 4896,
      "byteOffset": 239448,
      "target": 34962
    },
    {
      "buffer": 0,
      "byteLength": 3264,
      "byteOffset": 244344,
      "target": 34962
    },
    {
      "buffer": 0,
      "byteLength": 1188,
      "byteOffset": 247608,
      "target": 34962
    },
    {
      "buffer": 0,
      "byteLength": 1188,
      "byteOffset": 248796,
      "target": 34962
    },
    {
      "buffer": 0,
      "byteLength": 792,
      "byteOffset": 249984,
      "target": 34962
    },
    {
      "buffer": 0,
      "byteLength": 864,
      "byteOffset": 250776,
      "target": 34962
    },
    {
      "buffer": 0,
      "byteLength": 864,
      "byteOffset": 251640,
      "target": 34962
    },
    {
      "buffer": 0,
      "byteLength": 576,
      "byteOffset": 252504,
      "target": 34962
    },
    {
      "buffer": 0,
      "byteLength": 624,
      "byteOffset": 253080,
      "target": 34962
    },
    {
      "buffer": 0,
      "byteLength": 624,
      "byteOffset": 253704,
      "target": 34962
    },
    {
      "buffer": 0,
      "byteLength": 416,
      "byteOffset": 254328,
      "target": 34962
    },
    {
      "buffer": 0,
      "byteLength": 156,
      "byteOffset": 254744,
      "target": 34963
    },
    {
      "buffer": 0,
      "byteLength": 48,
      "byteOffset": 254900,
      "target": 34962
    },
    {
      "buffer": 0,
      "byteLength": 48,
      "byteOffset": 254948,
      "target": 34962
    },
    {
      "buffer": 0,
      "byteLength": 32,
      "byteOffset": 254996,
      "target": 34962
    },
    {
      "buffer": 0,
      "byteLength": 12,
      "byteOffset": 255028,
      "target": 34963
    },
    {
      "buffer": 0,
      "byteLength": 624,
      "byteOffset": 255040,
      "target": 34962
    },
    {
      "buffer": 0,
      "byteLength": 624,
      "byteOffset": 255664,
      "target": 34962
    },
    {
      "buffer": 0,
      "byteLength": 416,
      "byteOffset": 256288,
      "target": 34962
    },
    {
      "buffer": 0,
      "byteLength": 48,
      "byteOffset": 256704,
      "target": 34962
    },
    {
      "buffer": 0,
      "byteLength": 48,
      "byteOffset": 256752,
      "target": 34962
    },
    {
      "buffer": 0,
      "byteLength": 32,
      "byteOffset": 256800,
      "target": 34962
    },
    {
      "buffer": 0,
      "byteLength": 624,
      "byteOffset": 256832,
      "target": 34962
    },
    {
      "buffer": 0,
      "byteLength": 624,
      "byteOffset": 257456,
      "target": 34962
    },
    {
      "buffer": 0,
      "byteLength": 416,
      "byteOffset": 258080,
      "target": 34962
    },
    {
      "buffer": 0,
      "byteLength": 48,
      "byteOffset": 258496,
      "target": 34962
    },
    {
      "buffer": 0,
      "byteLength": 48,
      "byteOffset": 258544,
      "target": 34962
    },
    {
      "buffer": 0,
      "byteLength": 32,
      "byteOffset": 258592,
      "target": 34962
    },
    {
      "buffer": 0,
      "byteLength": 13752,
      "byteOffset": 258624,
      "target": 34962
    },
    {
      "buffer": 0,
      "byteLength": 13752,
      "byteOffset": 272376,
      "target": 34962
    },
    {
      "buffer": 0,
      "byteLength": 9168,
      "byteOffset": 286128,
      "target": 34962
    },
    {
      "buffer": 0,
      "byteLength": 6768,
      "byteOffset": 295296,
      "target": 34963
    },
    {
      "buffer": 0,
      "byteLength": 72,
      "byteOffset": 302064,
      "target": 34962
    },
    {
      "buffer": 0,
      "byteLength": 72,
      "byteOffset": 302136,
      "target": 34962
    },
    {
      "buffer": 0,
      "byteLength": 48,
      "byteOffset": 302208,
      "target": 34962
    },
    {
      "buffer": 0,
      "byteLength": 24,
      "byteOffset": 302256,
      "target": 34963
    },
    {
      "buffer": 0,
      "byteLength": 20736,
      "byteOffset": 302280,
      "target": 34962
    },
    {
      "buffer": 0,
      "byteLength": 20736,
      "byteOffset": 323016,
      "target": 34962
    },
    {
      "buffer": 0,
      "byteLength": 13824,
      "byteOffset": 343752,
      "target": 34962
    },
    {
      "buffer": 0,
      "byteLength": 5184,
      "byteOffset": 357576,
      "target": 34963
    },
    {
      "buffer": 0,
      "byteLength": 3456,
      "byteOffset": 362760,
      "target": 34962
    },
    {
      "buffer": 0,
      "byteLength": 3456,
      "byteOffset": 366216,
      "target": 34962
    },
    {
      "buffer": 0,
      "byteLength": 2304,
      "byteOffset": 369672,
      "target": 34962
    },
    {
      "buffer": 0,
      "byteLength": 864,
      "byteOffset": 371976,
      "target": 34963
    },
    {
      "buffer": 0,
      "byteLength": 13752,
      "byteOffset": 372840,
      "target": 34962
    },
    {
      "buffer": 0,
      "byteLength": 13752,
      "byteOffset": 386592,
      "target": 34962
    },
    {
      "buffer": 0,
      "byteLength": 9168,
      "byteOffset": 400344,
      "target": 34962
    },
    {
      "buffer": 0,
      "byteLength": 72,
      "byteOffset": 409512,
      "target": 34962
    },
    {
      "buffer": 0,
      "byteLength": 72,
      "byteOffset": 409584,
      "target": 34962
    },
    {
      "buffer": 0,
      "byteLength": 48,
      "byteOffset": 409656,
      "target": 34962
    },
    {
      "buffer": 0,
      "byteLength": 20736,
      "byteOffset": 409704,
      "target": 34962
    },
    {
      "buffer": 0,
      "byteLength": 20736,
      "byteOffset": 430440,
      "target": 34962
    },
    {
      "buffer": 0,
      "byteLength": 13824,
      "byteOffset": 451176,
      "target": 34962
    },
    {
      "buffer": 0,
      "byteLength": 3456,
      "byteOffset": 465000,
      "target": 34962
    },
    {
      "buffer": 0,
      "byteLength": 3456,
      "byteOffset": 468456,
      "target": 34962
    },
    {
      "buffer": 0,
      "byteLength": 2304,
      "byteOffset": 471912,
      "target": 34962
    },
    {
      "buffer": 0,
      "byteLength": 13752,
      "byteOffset": 474216,
      "target": 34962
    },
    {
      "buffer": 0,
      "byteLength": 13752,
      "byteOffset": 487968,
      "target": 34962
    },
    {
      "buffer": 0,
      "byteLength": 9168,
      "byteOffset": 501720,
      "target": 34962
    },
    {
      "buffer": 0,
      "byteLength": 72,
      "byteOffset": 510888,
      "target": 34962
    },
    {
      "buffer": 0,
      "byteLength": 72,
      "byteOffset": 510960,
      "target": 34962
    },
    {
      "buffer": 0,
      "byteLength": 48,
      "byteOffset": 511032,
      "target": 34962
    },
    {
      "buffer": 0,
      "byteLength": 20736,
      "byteOffset": 511080,
      "target": 34962
    },
    {
      "buffer": 0,
      "byteLength": 20736,
      "byteOffset": 531816,
      "target": 34962
    },
    {
      "buffer": 0,
      "byteLength": 13824,
      "byteOffset": 552552,
      "target": 34962
    },
    {
      "buffer": 0,
      "byteLength": 3456,
      "byteOffset": 566376,
      "target": 34962
    },
    {
      "buffer": 0,
      "byteLength": 3456,
      "byteOffset": 569832,
      "target": 34962
    },
    {
      "buffer": 0,
      "byteLength": 2304,
      "byteOffset": 573288,
      "target": 34962
    },
    {
      "buffer": 0,
      "byteLength": 13752,
      "byteOffset": 575592,
      "target": 34962
    },
    {
      "buffer": 0,
      "byteLength": 13752,
      "byteOffset": 589344,
      "target": 34962
    },
    {
      "buffer": 0,
      "byteLength": 9168,
      "byteOffset": 603096,
      "target": 34962
    },
    {
      "buffer": 0,
      "byteLength": 72,
      "byteOffset": 612264,
      "target": 34962
    },
    {
      "buffer": 0,
      "byteLength": 72,
      "byteOffset": 612336,
      "target": 34962
    },
    {
      "buffer": 0,
      "byteLength": 48,
      "byteOffset": 612408,
      "target": 34962
    },
    {
      "buffer": 0,
      "byteLength": 20736,
      "byteOffset": 612456,
      "target": 34962
    },
    {
      "buffer": 0,
      "byteLength": 20736,
      "byteOffset": 633192,
      "target": 34962
    },
    {
      "buffer": 0,
      "byteLength": 13824,
      "byteOffset": 653928,
      "target": 34962
    },
    {
      "buffer": 0,
      "byteLength": 3456,
      "byteOffset": 667752,
      "target": 34962
    },
    {
      "buffer": 0,
      "byteLength": 3456,
      "byteOffset": 671208,
      "target": 34962
    },
    {
      "buffer": 0,
      "byteLength": 2304,
      "byteOffset": 674664,
      "target": 34962
    },
    {
      "buffer": 0,
      "byteLength": 768,
      "byteOffset": 676968,
      "target": 34962
    },
    {
      "buffer": 0,
      "byteLength": 768,
      "byteOffset": 677736,
      "target": 34962
    },
    {
      "buffer": 0,
      "byteLength": 512,
      "byteOffset": 678504,
      "target": 34962
    },
    {
      "buffer": 0,
      "byteLength": 264,
      "byteOffset": 679016,
      "target": 34963
    },
    {
      "buffer": 0,
      "byteLength": 768,
      "byteOffset": 679280,
      "target": 34962
    },
    {
      "buffer": 0,
      "byteLength": 768,
      "byteOffset": 680048,
      "target": 34962
    },
    {
      "buffer": 0,
      "byteLength": 512,
      "byteOffset": 680816,
      "target": 34962
    },
    {
      "buffer": 0,
      "byteLength": 19248,
      "byteOffset": 681328,
      "target": 34962
    },
    {
      "buffer": 0,
      "byteLength": 19248,
      "byteOffset": 700576,
      "target": 34962
    },
    {
      "buffer": 0,
      "byteLength": 12832,
      "byteOffset": 719824,
      "target": 34962
    },
    {
      "buffer": 0,
      "byteLength": 4824,
      "byteOffset": 732656,
      "target": 34963
    },
    {
      "buffer": 0,
      "byteLength": 2880,
      "byteOffset": 737480,
      "target": 34962
    },
    {
      "buffer": 0,
      "byteLength": 2880,
      "byteOffset": 740360,
      "target": 34962
    },
    {
      "buffer": 0,
      "byteLength": 1920,
      "byteOffset": 743240,
      "target": 34962
    },
    {
      "buffer": 0,
      "byteLength": 720,
      "byteOffset": 745160,
      "target": 34963
    },
    {
      "buffer": 0,
      "byteLength": 48,
      "byteOffset": 745880,
      "target": 34962
    },
    {
      "buffer": 0,
      "byteLength": 48,
      "byteOffset": 745928,
      "target": 34962
    },
    {
      "buffer": 0,
      "byteLength": 32,
      "byteOffset": 745976,
      "target": 34962
    },
    {
      "buffer": 0,
      "byteLength": 12,
      "byteOffset": 746008,
      "target": 34963
    },
    {
      "buffer": 0,
      "byteLength": 19248,
      "byteOffset": 746020,
      "target": 34962
    },
    {
      "buffer": 0,
      "byteLength": 19248,
      "byteOffset": 765268,
      "target": 34962
    },
    {
      "buffer": 0,
      "byteLength": 12832,
      "byteOffset": 784516,
      "target": 34962
    },
    {
      "buffer": 0,
      "byteLength": 2880,
      "byteOffset": 797348,
      "target": 34962
    },
    {
      "buffer": 0,
      "byteLength": 2880,
      "byteOffset": 800228,
      "target": 34962
    },
    {
      "buffer": 0,
      "byteLength": 1920,
      "byteOffset": 803108,
      "target": 34962
    },
    {
      "buffer": 0,
      "byteLength": 48,
      "byteOffset": 805028,
      "target": 34962
    },
    {
      "buffer": 0,
      "byteLength": 48,
      "byteOffset": 805076,
      "target": 34962
    },
    {
      "buffer": 0,
      "byteLength": 32,
      "byteOffset": 805124,
      "target": 34962
    }
  ],
  "samplers": [
    {
      "magFilter": 9729,
      "minFilter": 9987
    }
  ],
  "buffers": [
    {
      "byteLength": 805156,
      "uri": "prebuild_cottage.bin"
    }
  ]
}