{
  "asset": {
    "generator": "Khronos glTF Blender I/O v5.2.39",
    "version": "2.0"
  },
  "scene": 0,
  "scenes": [
    {
      "name": "Scene",
      "nodes": [
        1,
        3,
        5,
        7
      ]
    }
  ],
  "nodes": [
    {
      "mesh": 0,
      "name": "Round Tower Bottom"
    },
    {
      "children": [
        0
      ],
      "name": "xfer_CastleRoundTowerBottom",
      "translation": [
        -0.00044608116149902344,
        7.626662731170654,
        0
      ]
    },
    {
      "mesh": 1,
      "name": "Round Tower Large Interior"
    },
    {
      "children": [
        2
      ],
      "name": "xfer_CastleRoundTowerInt",
      "translation": [
        -0.00044608116149902344,
        7.626662731170654,
        0
      ]
    },
    {
      "mesh": 2,
      "name": "Round Tower Top Cone"
    },
    {
      "children": [
        4
      ],
      "name": "xfer_TowerRoof_Cone",
      "scale": [
        1.0794999599456787,
        1.0794999599456787,
        1.0794999599456787
      ],
      "translation": [
        -0.00044608116149902344,
        21.686662673950195,
        0
      ]
    },
    {
      "mesh": 3,
      "name": "Round Tower Top Extension"
    },
    {
      "children": [
        6
      ],
      "name": "xfer_TowerRoof_RoundExtension",
      "translation": [
        -0.00044608116149902344,
        17.486661911010742,
        0
      ]
    }
  ],
  "materials": [
    {
      "doubleSided": true,
      "name": "Castle Wall.001",
      "normalTexture": {
        "index": 1
      },
      "pbrMetallicRoughness": {
        "baseColorTexture": {
          "index": 0
        },
        "metallicFactor": 0.0,
        "roughnessFactor": 0.75
      }
    },
    {
      "doubleSided": true,
      "name": "Stone Floor.001",
      "normalTexture": {
        "index": 3
      },
      "pbrMetallicRoughness": {
        "baseColorTexture": {
          "index": 2
        },
        "metallicFactor": 0.0,
        "roughnessFactor": 0.75
      }
    },
    {
      "doubleSided": true,
      "name": "Stone Floor",
      "normalTexture": {
        "index": 3
      },
      "pbrMetallicRoughness": {
        "baseColorTexture": {
          "index": 2
        },
        "metallicFactor": 0.0,
        "roughnessFactor": 0.75
      }
    },
    {
      "doubleSided": true,
      "name": "Castle Wall",
      "normalTexture": {
        "index": 1
      },
      "pbrMetallicRoughness": {
        "baseColorTexture": {
          "index": 0
        },
        "metallicFactor": 0.0,
        "roughnessFactor": 0.75
      }
    },
    {
      "doubleSided": true,
      "name": "Weathered Wood.001",
      "pbrMetallicRoughness": {
        "baseColorTexture": {
          "index": 4
        },
        "metallicFactor": 0.0,
        "roughnessFactor": 0.75
      }
    },
    {
      "doubleSided": true,
      "name": "Castle Wall No Rocks",
      "normalTexture": {
        "index": 6
      },
      "pbrMetallicRoughness": {
        "baseColorTexture": {
          "index": 5
        },
        "metallicFactor": 0.0,
        "roughnessFactor": 0.75
      }
    },
    {
      "doubleSided": true,
      "name": "Weathered Wood",
      "pbrMetallicRoughness": {
        "baseColorTexture": {
          "index": 4
        },
        "metallicFactor": 0.0,
        "roughnessFactor": 0.75
      }
    },
    {
      "doubleSided": true,
      "name": "Wooden Planks",
      "pbrMetallicRoughness": {
        "baseColorTexture": {
          "index": 7
        },
        "metallicFactor": 0.0,
        "roughnessFactor": 0.75
      }
    },
    {
      "doubleSided": true,
      "name": "Roof Circle",
      "normalTexture": {
        "index": 9
      },
      "pbrMetallicRoughness": {
        "baseColorTexture": {
          "index": 8
        },
        "metallicFactor": 0.0,
        "roughnessFactor": 0.75
      }
    },
    {
      "doubleSided": true,
      "name": "Castle Wall.002",
      "normalTexture": {
        "index": 1
      },
      "pbrMetallicRoughness": {
        "baseColorTexture": {
          "index": 0
        },
        "metallicFactor": 0.0,
        "roughnessFactor": 0.75
      }
    },
    {
      "doubleSided": true,
      "name": "Stone Floor.002",
      "normalTexture": {
        "index": 3
      },
      "pbrMetallicRoughness": {
        "baseColorTexture": {
          "index": 2
        },
        "metallicFactor": 0.0,
        "roughnessFactor": 0.75
      }
    },
    {
      "doubleSided": true,
      "name": "Castle Wall No Rocks.001",
      "normalTexture": {
        "index": 6
      },
      "pbrMetallicRoughness": {
        "baseColorTexture": {
          "index": 5
        },
        "metallicFactor": 0.0,
        "roughnessFactor": 0.75
      }
    }
  ],
  "meshes": [
    {
      "name": "Cylinder.001",
      "primitives": [
        {
          "attributes": {
            "POSITION": 0,
            "NORMAL": 1,
            "TEXCOORD_0": 2
          },
          "indices": 3,
          "material": 0
        },
        {
          "attributes": {
            "POSITION": 4,
            "NORMAL": 5,
            "TEXCOORD_0": 6
          },
          "indices": 7,
          "material": 1
        }
      ]
    },
    {
      "name": "Cylinder.091",
      "primitives": [
        {
          "attributes": {
            "POSITION": 8,
            "NORMAL": 9,
            "TEXCOORD_0": 10
          },
          "indices": 11,
          "material": 2
        },
        {
          "attributes": {
            "POSITION": 12,
            "NORMAL": 13,
            "TEXCOORD_0": 14
          },
          "indices": 15,
          "material": 3
        },
        {
          "attributes": {
            "POSITION": 16,
            "NORMAL": 17,
            "TEXCOORD_0": 18
          },
          "indices": 19,
          "material": 4
        },
        {
          "attributes": {
            "POSITION": 20,
            "NORMAL": 21,
            "TEXCOORD_0": 22
          },
          "indices": 23,
          "material": 5
        }
      ]
    },
    {
      "name": "Cube.223",
      "primitives": [
        {
          "attributes": {
            "POSITION": 24,
            "NORMAL": 25,
            "TEXCOORD_0": 26
          },
          "indices": 27,
          "material": 6
        },
        {
          "attributes": {
            "POSITION": 28,
            "NORMAL": 29,
            "TEXCOORD_0": 30
          },
          "indices": 31,
          "material": 7
        },
        {
          "attributes": {
            "POSITION": 32,
            "NORMAL": 33,
            "TEXCOORD_0": 34
          },
          "indices": 35,
          "material": 8
        }
      ]
    },
    {
      "name": "Cylinder.002",
      "primitives": [
        {
          "attributes": {
            "POSITION": 36,
            "NORMAL": 37,
            "TEXCOORD_0": 38
          },
          "indices": 39,
          "material": 9
        },
        {
          "attributes": {
            "POSITION": 40,
            "NORMAL": 41,
            "TEXCOORD_0": 42
          },
          "indices": 7,
          "material": 10
        },
        {
          "attributes": {
            "POSITION": 43,
            "NORMAL": 44,
            "TEXCOORD_0": 45
          },
          "indices": 46,
          "material": 11
        }
      ]
    }
  ],
  "textures": [
    {
      "source": 0
    },
    {
      "source": 1
    },
    {
      "source": 2
    },
    {
      "source": 3
    },
    {
      "source": 4
    },
    {
      "source": 5
    },
    {
      "source": 6
    },
    {
      "source": 7
    },
    {
      "source": 8
    },
    {
      "source": 9
    }
  ],
  "images": [
    {
      "uri": "textures/castle_wall_color.png"
    },
    {
      "uri": "textures/castle_wall_normal.png"
    },
    {
      "uri": "textures/stone_floor_color.png"
    },
    {
      "uri": "textures/stone_floor_normal.png"
    },
    {
      "uri": "textures/wood_weather_color.png"
    },
    {
      "uri": "textures/castle_wall_norocks_color.png"
    },
    {
      "uri": "textures/castle_wall_norocks_normal.png"
    },
    {
      "uri": "textures/wood_planks_color.png"
    },
    {
      "uri": "textures/roof_round_color.png"
    },
    {
      "uri": "textures/roof_round_normal.png"
    }
  ],
  "accessors": [
    {
      "bufferView": 0,
      "componentType": 5126,
      "count": 184,
      "max": [
        3.00278639793396,
        2.1340499642974464e-06,
        3.0027525424957275
      ],
      "min": [
        -3.00272536277771,
        -7.626662731170654,
        -3.0027596950531006
      ],
      "type": "VEC3"
    },
    {
      "bufferView": 1,
      "componentType": 5126,
      "count": 184,
      "type": "VEC3"
    },
    {
      "bufferView": 2,
      "componentType": 5126,
      "count": 184,
      "type": "VEC2"
    },
    {
      "bufferView": 3,
      "componentType": 5123,
      "count": 414,
      "type": "SCALAR"
    },
    {
      "bufferView": 4,
      "componentType": 5126,
      "count": 20,
      "max": [
        2.447842836380005,
        -0.6854846477508545,
        2.447808265686035
      ],
      "min": [
        -2.447781801223755,
        -0.6854850053787231,
        -2.4478158950805664
      ],
      "type": "VEC3"
    },
    {
      "bufferView": 5,
      "componentType": 5126,
      "count": 20,
      "type": "VEC3"
    },
    {
      "bufferView": 6,
      "componentType": 5126,
      "count": 20,
      "type": "VEC2"
    },
    {
      "bufferView": 7,
      "componentType": 5123,
      "count": 54,
      "type": "SCALAR"
    },
    {
      "bufferView": 8,
      "componentType": 5126,
      "count": 2707,
      "max": [
        2.473097085952759,
        9.174111366271973,
        2.9957921504974365
      ],
      "min": [
        -2.473095178604126,
        0.17095939815044403,
        -2.473093271255493
      ],
      "type": "VEC3"
    },
    {
      "bufferView": 9,
      "componentType": 5126,
      "count": 2707,
      "type": "VEC3"
    },
    {
      "bufferView": 10,
      "componentType": 5126,
      "count": 2707,
      "type": "VEC2"
    },
    {
      "bufferView": 11,
      "componentType": 5123,
      "count": 5688,
      "type": "SCALAR"
    },
    {
      "bufferView": 12,
      "componentType": 5126,
      "count": 413,
      "max": [
        2.9957900047302246,
        10.565098762512207,
        2.9957921504974365
      ],
      "min": [
        -2.995788097381592,
        -2.2617551564962923e-07,
        -2.995786190032959
      ],
      "type": "VEC3"
    },
    {
      "bufferView": 13,
      "componentType": 5126,
      "count": 413,
      "type": "VEC3"
    },
    {
      "bufferView": 14,
      "componentType": 5126,
      "count": 413,
      "type": "VEC2"
    },
    {
      "bufferView": 15,
      "componentType": 5123,
      "count": 1116,
      "type": "SCALAR"
    },
    {
      "bufferView": 16,
      "componentType": 5126,
      "count": 311,
      "max": [
        0.6460321545600891,
        10.615396499633789,
        3.095017433166504
      ],
      "min": [
        -0.6381024122238159,
        0.1755056083202362,
        -0.17741964757442474
      ],
      "type": "VEC3"
    },
    {
      "bufferView": 17,
      "componentType": 5126,
      "count": 311,
      "type": "VEC3"
    },
    {
      "bufferView": 18,
      "componentType": 5126,
      "count": 311,
      "type": "VEC2"
    },
    {
      "bufferView": 19,
      "componentType": 5123,
      "count": 750,
      "type": "SCALAR"
    },
    {
      "bufferView": 20,
      "componentType": 5126,
      "count": 4046,
      "max": [
        1.5387624502182007,
        10.656106948852539,
        1.533772587776184
      ],
      "min": [
        -1.5373961925506592,
        10.551002502441406,
        -1.4734299182891846
      ],
      "type": "VEC3"
    },
    {
      "bufferView": 21,
      "componentType": 5126,
      "count": 4046,
      "type": "VEC3"
    },
    {
      "bufferView": 22,
      "componentType": 5126,
      "count": 4046,
      "type": "VEC2"
    },
    {
      "bufferView": 23,
      "componentType": 5123,
      "count": 9588,
      "type": "SCALAR"
    },
    {
      "bufferView": 24,
      "componentType": 5126,
      "count": 4993,
      "max": [
        3.6433613300323486,
        6.156801700592041,
        3.6425511837005615
      ],
      "min": [
        -3.6425349712371826,
        0.3658835291862488,
        -3.642552137374878
      ],
      "type": "VEC3"
    },
    {
      "bufferView": 25,
      "componentType": 5126,
      "count": 4993,
      "type": "VEC3"
    },
    {
      "bufferView": 26,
      "componentType": 5126,
      "count": 4993,
      "type": "VEC2"
    },
    {
      "bufferView": 27,
      "componentType": 5123,
      "count": 8676,
      "type": "SCALAR"
    },
    {
      "bufferView": 28,
      "componentType": 5126,
      "count": 216,
      "max": [
        2.9103503227233887,
        0.8873578310012817,
        2.9103329181671143
      ],
      "min": [
        -2.9103169441223145,
        -2.190588332950938e-07,
        -2.9103338718414307
      ],
      "type": "VEC3"
    },
    {
      "bufferView": 29,
      "componentType": 5126,
      "count": 216,
      "type": "VEC3"
    },
    {
      "bufferView": 30,
      "componentType": 5126,
      "count": 216,
      "type": "VEC2"
    },
    {
      "bufferView": 31,
      "componentType": 5123,
      "count": 576,
      "type": "SCALAR"
    },
    {
      "bufferView": 32,
      "componentType": 5126,
      "count": 1384,
      "max": [
        3.487989664077759,
        6.030330657958984,
        3.4897680282592773
      ],
      "min": [
        -3.4942195415496826,
        0.8144606351852417,
        -3.4942359924316406
      ],
      "type": "VEC3"
    },
    {
      "bufferView": 33,
      "componentType": 5126,
      "count": 1384,
      "type": "VEC3"
    },
    {
      "bufferView": 34,
      "componentType": 5126,
      "count": 1384,
      "type": "VEC2"
    },
    {
      "bufferView": 35,
      "componentType": 5123,
      "count": 2592,
      "type": "SCALAR"
    },
    {
      "bufferView": 36,
      "componentType": 5126,
      "count": 720,
      "max": [
        3.2512025833129883,
        4.207718849182129,
        3.251214027404785
      ],
      "min": [
        -3.2512264251708984,
        -7.035388307485846e-07,
        -3.2512145042419434
      ],
      "type": "VEC3"
    },
    {
      "bufferView": 37,
      "componentType": 5126,
      "count": 720,
      "type": "VEC3"
    },
    {
      "bufferView": 38,
      "componentType": 5126,
      "count": 720,
      "type": "VEC2"
    },
    {
      "bufferView": 39,
      "componentType": 5123,
      "count": 1080,
      "type": "SCALAR"
    },
    {
      "bufferView": 40,
      "componentType": 5126,
      "count": 20,
      "max": [
        2.447800397872925,
        3.512378454208374,
        2.4478118419647217
      ],
      "min": [
        -2.447824239730835,
        3.512377977371216,
        -2.44781231880188
      ],
      "type": "VEC3"
    },
    {
      "bufferView": 41,
      "componentType": 5126,
      "count": 20,
      "type": "VEC3"
    },
    {
      "bufferView": 42,
      "componentType": 5126,
      "count": 20,
      "type": "VEC2"
    },
    {
      "bufferView": 43,
      "componentType": 5126,
      "count": 2556,
      "max": [
        3.4113247394561768,
        1.9086546897888184,
        3.401864528656006
      ],
      "min": [
        -3.411348581314087,
        -0.4962354898452759,
        -3.4208083152770996
      ],
      "type": "VEC3"
    },
    {
      "bufferView": 44,
      "componentType": 5126,
      "count": 2556,
      "type": "VEC3"
    },
    {
      "bufferView": 45,
      "componentType": 5126,
      "count": 2556,
      "type": "VEC2"
    },
    {
      "bufferView": 46,
      "componentType": 5123,
      "count": 3912,
      "type": "SCALAR"
    }
  ],
  "bufferViews": [
    {
      "buffer": 0,
      "byteLength": 2208,
      "byteOffset": 0,
      "target": 34962
    },
    {
      "buffer": 0,
      "byteLength": 2208,
      "byteOffset": 2208,
      "target": 34962
    },
    {
      "buffer": 0,
      "byteLength": 1472,
      "byteOffset": 4416,
      "target": 34962
    },
    {
      "buffer": 0,
      "byteLength": 828,
      "byteOffset": 5888,
      "target": 34963
    },
    {
      "buffer": 0,
      "byteLength": 240,
      "byteOffset": 6716,
      "target": 34962
    },
    {
      "buffer": 0,
      "byteLength": 240,
      "byteOffset": 6956,
      "target": 34962
    },
    {
      "buffer": 0,
      "byteLength": 160,
      "byteOffset": 7196,
      "target": 34962
    },
    {
      "buffer": 0,
      "byteLength": 108,
      "byteOffset": 7356,
      "target": 34963
    },
    {
      "buffer": 0,
      "byteLength": 32484,
      "byteOffset": 7464,
      "target": 34962
    },
    {
      "buffer": 0,
      "byteLength": 32484,
      "byteOffset": 39948,
      "target": 34962
    },
    {
      "buffer": 0,
      "byteLength": 21656,
      "byteOffset": 72432,
      "target": 34962
    },
    {
      "buffer": 0,
      "byteLength": 11376,
      "byteOffset": 94088,
      "target": 34963
    },
    {
      "buffer": 0,
      "byteLength": 4956,
      "byteOffset": 105464,
      "target": 34962
    },
    {
      "buffer": 0,
      "byteLength": 4956,
      "byteOffset": 110420,
      "target": 34962
    },
    {
      "buffer": 0,
      "byteLength": 3304,
      "byteOffset": 115376,
      "target": 34962
    },
    {
      "buffer": 0,
      "byteLength": 2232,
      "byteOffset": 118680,
      "target": 34963
    },
    {
      "buffer": 0,
      "byteLength": 3732,
      "byteOffset": 120912,
      "target": 34962
    },
    {
      "buffer": 0,
      "byteLength": 3732,
      "byteOffset": 124644,
      "target": 34962
    },
    {
      "buffer": 0,
      "byteLength": 2488,
      "byteOffset": 128376,
      "target": 34962
    },
    {
      "buffer": 0,
      "byteLength": 1500,
      "byteOffset": 130864,
      "target": 34963
    },
    {
      "buffer": 0,
      "byteLength": 48552,
      "byteOffset": 132364,
      "target": 34962
    },
    {
      "buffer": 0,
      "byteLength": 48552,
      "byteOffset": 180916,
      "target": 34962
    },
    {
      "buffer": 0,
      "byteLength": 32368,
      "byteOffset": 229468,
      "target": 34962
    },
    {
      "buffer": 0,
      "byteLength": 19176,
      "byteOffset": 261836,
      "target": 34963
    },
    {
      "buffer": 0,
      "byteLength": 59916,
      "byteOffset": 281012,
      "target": 34962
    },
    {
      "buffer": 0,
      "byteLength": 59916,
      "byteOffset": 340928,
      "target": 34962
    },
    {
      "buffer": 0,
      "byteLength": 39944,
      "byteOffset": 400844,
      "target": 34962
    },
    {
      "buffer": 0,
      "byteLength": 17352,
      "byteOffset": 440788,
      "target": 34963
    },
    {
      "buffer": 0,
      "byteLength": 2592,
      "byteOffset": 458140,
      "target": 34962
    },
    {
      "buffer": 0,
      "byteLength": 2592,
      "byteOffset": 460732,
      "target": 34962
    },
    {
      "buffer": 0,
      "byteLength": 1728,
      "byteOffset": 463324,
      "target": 34962
    },
    {
      "buffer": 0,
      "byteLength": 1152,
      "byteOffset": 465052,
      "target": 34963
    },
    {
      "buffer": 0,
      "byteLength": 16608,
      "byteOffset": 466204,
      "target": 34962
    },
    {
      "buffer": 0,
      "byteLength": 16608,
      "byteOffset": 482812,
      "target": 34962
    },
    {
      "buffer": 0,
      "byteLength": 11072,
      "byteOffset": 499420,
      "target": 34962
    },
    {
      "buffer": 0,
      "byteLength": 5184,
      "byteOffset": 510492,
      "target": 34963
    },
    {
      "buffer": 0,
      "byteLength": 8640,
      "byteOffset": 515676,
      "target": 34962
    },
    {
      "buffer": 0,
      "byteLength": 8640,
      "byteOffset": 524316,
      "target": 34962
    },
    {
      "buffer": 0,
      "byteLength": 5760,
      "byteOffset": 532956,
      "target": 34962
    },
    {
      "buffer": 0,
      "byteLength": 2160,
      "byteOffset": 538716,
      "target": 34963
    },
    {
      "buffer": 0,
      "byteLength": 240,
      "byteOffset": 540876,
      "target": 34962
    },
    {
      "buffer": 0,
      "byteLength": 240,
      "byteOffset": 541116,
      "target": 34962
    },
    {
      "buffer": 0,
      "byteLength": 160,
      "byteOffset": 541356,
      "target": 34962
    },
    {
      "buffer": 0,
      "byteLength": 30672,
      "byteOffset": 541516,
      "target": 34962
    },
    {
      "buffer": 0,
      "byteLength": 30672,
      "byteOffset": 572188,
      "target": 34962
    },
    {
      "buffer": 0,
      "byteLength": 20448,
      "byteOffset": 602860,
      "target": 34962
    },
    {
      "buffer": 0,
      "byteLength": 7824,
      "byteOffset": 623308,
      "target": 34963
    }
  ],
  "samplers": [
    {
      "magFilter": 9729,
      "minFilter": 9987
    }
  ],
  "buffers": [
    {
      "byteLength": 631132,
      "uri": "prebuild_round_tower_tall.bin"
    }
  ]
}