{
  "asset": {
    "generator": "Khronos glTF Blender I/O v5.2.39",
    "version": "2.0"
  },
  "extensionsUsed": [
    "KHR_materials_specular"
  ],
  "scene": 0,
  "scenes": [
    {
      "name": "Scene",
      "nodes": [
        1,
        3,
        5,
        7,
        9,
        11,
        13,
        15,
        17,
        19,
        21,
        23,
        25,
        27,
        29,
        31,
        33,
        35,
        37,
        39,
        41,
        43,
        45,
        47,
        49,
        51,
        53
      ]
    }
  ],
  "nodes": [
    {
      "mesh": 0,
      "name": "Dock Platform"
    },
    {
      "children": [
        0
      ],
      "name": "xfer_DockPlatform",
      "rotation": [
        0,
        0.7071056962013245,
        0,
        0.7071078419685364
      ],
      "translation": [
        3.211442470550537,
        4.240854740142822,
        3.90999436378479
      ]
    },
    {
      "mesh": 1,
      "name": "Dock Platform.001"
    },
    {
      "children": [
        2
      ],
      "name": "xfer_DockPlatform.001",
      "rotation": [
        0,
        0.7071056962013245,
        0,
        0.7071078419685364
      ],
      "translation": [
        3.211442470550537,
        4.240854740142822,
        -3.8770055770874023
      ]
    },
    {
      "mesh": 2,
      "name": "Dock Platform.002"
    },
    {
      "children": [
        4
      ],
      "name": "xfer_DockPlatform.002",
      "rotation": [
        0,
        -0.7071068286895752,
        0,
        0.7071067094802856
      ],
      "translation": [
        -4.288557529449463,
        4.240854740142822,
        -5.7220458984375e-06
      ]
    },
    {
      "mesh": 3,
      "name": "Dock Platform.003"
    },
    {
      "children": [
        6
      ],
      "name": "xfer_DockPlatform.003",
      "rotation": [
        0,
        -0.7071068286895752,
        0,
        0.7071067094802856
      ],
      "translation": [
        -4.288557529449463,
        4.240854740142822,
        3.90999436378479
      ]
    },
    {
      "mesh": 4,
      "name": "Dock Platform.004"
    },
    {
      "children": [
        8
      ],
      "name": "xfer_DockPlatform.004",
      "rotation": [
        0,
        -0.7071068286895752,
        0,
        0.7071067094802856
      ],
      "translation": [
        -4.288557529449463,
        4.240854740142822,
        -3.8770055770874023
      ]
    },
    {
      "mesh": 5,
      "name": "Dock Platform.005"
    },
    {
      "children": [
        10
      ],
      "name": "xfer_DockPlatform.005",
      "rotation": [
        0,
        0.7071056962013245,
        0,
        0.7071078419685364
      ],
      "translation": [
        3.211442470550537,
        4.240854740142822,
        -5.7220458984375e-06
      ]
    },
    {
      "mesh": 6,
      "name": "Dock Platform.006"
    },
    {
      "children": [
        12
      ],
      "name": "xfer_DockPlatform.006",
      "rotation": [
        0,
        0.7071056962013245,
        0,
        0.7071078419685364
      ],
      "translation": [
        -0.2885575294494629,
        4.240854740142822,
        -3.8770055770874023
      ]
    },
    {
      "mesh": 7,
      "name": "Dock Platform.007"
    },
    {
      "children": [
        14
      ],
      "name": "xfer_DockPlatform.007",
      "rotation": [
        0,
        0.7071056962013245,
        0,
        0.7071078419685364
      ],
      "translation": [
        -0.2885575294494629,
        4.240854740142822,
        3.90999436378479
      ]
    },
    {
      "mesh": 8,
      "name": "Dock Platform.008"
    },
    {
      "children": [
        16
      ],
      "name": "xfer_DockPlatform.008",
      "rotation": [
        0,
        0.7071056962013245,
        0,
        0.7071078419685364
      ],
      "translation": [
        -0.2885575294494629,
        4.240854740142822,
        -5.7220458984375e-06
      ]
    },
    {
      "mesh": 9,
      "name": "Dock Stairs"
    },
    {
      "children": [
        18
      ],
      "name": "xfer_DockStairs",
      "rotation": [
        0,
        -5.632638476527063e-06,
        0,
        1
      ],
      "translation": [
        2.711442470550537,
        3.2408547401428223,
        6.749994277954102
      ]
    },
    {
      "mesh": 10,
      "name": "Dock Stairs.001"
    },
    {
      "children": [
        20
      ],
      "name": "xfer_DockStairs.001",
      "rotation": [
        0,
        1,
        0,
        2.6981022074323846e-06
      ],
      "translation": [
        2.711442470550537,
        3.2408547401428223,
        -6.750005722045898
      ]
    },
    {
      "mesh": 11,
      "name": "Dock Stairs.002"
    },
    {
      "children": [
        22
      ],
      "name": "xfer_DockStairs.002",
      "rotation": [
        0,
        0.7071058750152588,
        0,
        0.7071077823638916
      ],
      "translation": [
        5.711442470550537,
        3.2408547401428223,
        3.9999942779541016
      ]
    },
    {
      "mesh": 12,
      "name": "Regular Door"
    },
    {
      "children": [
        24
      ],
      "name": "xfer_Door",
      "rotation": [
        0,
        1,
        0,
        7.549790126404332e-08
      ],
      "translation": [
        -4.1229424476623535,
        4.240854740142822,
        1.4823641777038574
      ]
    },
    {
      "mesh": 13,
      "name": "Hay 2"
    },
    {
      "children": [
        26
      ],
      "name": "xfer_Hay1",
      "rotation": [
        0,
        0,
        -0.3702622652053833,
        0.9289273619651794
      ],
      "translation": [
        -1.7125575542449951,
        7.48985481262207,
        3.580994129180908
      ]
    },
    {
      "mesh": 14,
      "name": "Hay 2.001"
    },
    {
      "children": [
        28
      ],
      "name": "xfer_Hay1.001",
      "rotation": [
        0,
        0,
        -0.3702622652053833,
        0.9289273619651794
      ],
      "translation": [
        -1.7125575542449951,
        7.48985481262207,
        -0.6690058708190918
      ]
    },
    {
      "mesh": 15,
      "name": "Hay 1"
    },
    {
      "children": [
        30
      ],
      "name": "xfer_Hay2",
      "rotation": [
        0,
        0,
        0.37268537282943726,
        0.9279577732086182
      ],
      "translation": [
        -4.231557369232178,
        7.582854747772217,
        3.580994129180908
      ]
    },
    {
      "mesh": 16,
      "name": "Hay 1.001"
    },
    {
      "children": [
        32
      ],
      "name": "xfer_Hay2.001",
      "rotation": [
        0,
        0,
        0.37268537282943726,
        0.9279577732086182
      ],
      "translation": [
        -4.231557369232178,
        7.582854747772217,
        -0.6690058708190918
      ]
    },
    {
      "mesh": 17,
      "name": "Wood Wall Short 4m"
    },
    {
      "children": [
        34
      ],
      "name": "xfer_ShortWoodWall1",
      "rotation": [
        0,
        0.7071056962013245,
        0,
        0.7071078419685364
      ],
      "translation": [
        -5.038557529449463,
        4.240854740142822,
        -0.7500057220458984
      ]
    },
    {
      "mesh": 18,
      "name": "Wood Wall Short 4m.001"
    },
    {
      "children": [
        36
      ],
      "name": "xfer_ShortWoodWall1.001",
      "translation": [
        -3.038557529449463,
        4.240854740142822,
        -2.7500057220458984
      ]
    },
    {
      "mesh": 19,
      "name": "Wood Column"
    },
    {
      "children": [
        38
      ],
      "name": "xfer_WoodColumn",
      "translation": [
        -5.039557456970215,
        4.46522331237793,
        -2.7310056686401367
      ]
    },
    {
      "mesh": 20,
      "name": "Wood Column.001"
    },
    {
      "children": [
        40
      ],
      "name": "xfer_WoodColumn.001",
      "translation": [
        -1.1235575675964355,
        4.46522331237793,
        -2.7310056686401367
      ]
    },
    {
      "mesh": 21,
      "name": "Wood Roof"
    },
    {
      "children": [
        42
      ],
      "name": "xfer_WoodRoof2",
      "translation": [
        -3.038557529449463,
        6.672854423522949,
        3.4999942779541016
      ]
    },
    {
      "mesh": 22,
      "name": "Wood Roof.001"
    },
    {
      "children": [
        44
      ],
      "name": "xfer_WoodRoof2.001",
      "translation": [
        -3.038557529449463,
        6.672854423522949,
        -0.7500057220458984
      ]
    },
    {
      "mesh": 23,
      "name": "Wood Wall 4m"
    },
    {
      "children": [
        46
      ],
      "name": "xfer_WoodWall1",
      "translation": [
        -3.038557529449463,
        4.240854740142822,
        5.499994277954102
      ]
    },
    {
      "mesh": 24,
      "name": "Wood Wall 4m.001"
    },
    {
      "children": [
        48
      ],
      "name": "xfer_WoodWall1.001",
      "rotation": [
        0,
        0.7071056962013245,
        0,
        0.7071078419685364
      ],
      "translation": [
        -1.038557529449463,
        4.240854740142822,
        3.4999942779541016
      ]
    },
    {
      "mesh": 25,
      "name": "Wood Wall 4m.002"
    },
    {
      "children": [
        50
      ],
      "name": "xfer_WoodWall1.002",
      "rotation": [
        0,
        0.7071056962013245,
        0,
        0.7071078419685364
      ],
      "translation": [
        -5.038557529449463,
        4.240854740142822,
        3.4999942779541016
      ]
    },
    {
      "mesh": 26,
      "name": "Wood Wall Door 4m"
    },
    {
      "children": [
        52
      ],
      "name": "xfer_WoodWallDoor1",
      "translation": [
        -3.038557529449463,
        4.240854740142822,
        1.4999942779541016
      ]
    }
  ],
  "materials": [
    {
      "doubleSided": true,
      "name": "Weathered Wood.003",
      "pbrMetallicRoughness": {
        "baseColorTexture": {
          "index": 0
        },
        "metallicFactor": 0.0,
        "roughnessFactor": 0.75
      }
    },
    {
      "doubleSided": true,
      "name": "Metal Iron.001",
      "pbrMetallicRoughness": {
        "baseColorTexture": {
          "index": 1
        },
        "metallicFactor": 0.0,
        "roughnessFactor": 0.75
      }
    },
    {
      "doubleSided": true,
      "name": "Weathered Wood.004",
      "pbrMetallicRoughness": {
        "baseColorTexture": {
          "index": 0
        },
        "metallicFactor": 0.0,
        "roughnessFactor": 0.75
      }
    },
    {
      "doubleSided": true,
      "name": "Metal Iron.002",
      "pbrMetallicRoughness": {
        "baseColorTexture": {
          "index": 1
        },
        "metallicFactor": 0.0,
        "roughnessFactor": 0.75
      }
    },
    {
      "doubleSided": true,
      "name": "Weathered Wood.005",
      "pbrMetallicRoughness": {
        "baseColorTexture": {
          "index": 0
        },
        "metallicFactor": 0.0,
        "roughnessFactor": 0.75
      }
    },
    {
      "doubleSided": true,
      "name": "Metal Iron.004",
      "pbrMetallicRoughness": {
        "baseColorTexture": {
          "index": 1
        },
        "metallicFactor": 0.0,
        "roughnessFactor": 0.75
      }
    },
    {
      "doubleSided": true,
      "name": "Weathered Wood.010",
      "pbrMetallicRoughness": {
        "baseColorTexture": {
          "index": 0
        },
        "metallicFactor": 0.0,
        "roughnessFactor": 0.75
      }
    },
    {
      "doubleSided": true,
      "name": "Metal Iron.006",
      "pbrMetallicRoughness": {
        "baseColorTexture": {
          "index": 1
        },
        "metallicFactor": 0.0,
        "roughnessFactor": 0.75
      }
    },
    {
      "doubleSided": true,
      "name": "Weathered Wood.012",
      "pbrMetallicRoughness": {
        "baseColorTexture": {
          "index": 0
        },
        "metallicFactor": 0.0,
        "roughnessFactor": 0.75
      }
    },
    {
      "doubleSided": true,
      "name": "Metal Iron.008",
      "pbrMetallicRoughness": {
        "baseColorTexture": {
          "index": 1
        },
        "metallicFactor": 0.0,
        "roughnessFactor": 0.75
      }
    },
    {
      "doubleSided": true,
      "name": "Weathered Wood.014",
      "pbrMetallicRoughness": {
        "baseColorTexture": {
          "index": 0
        },
        "metallicFactor": 0.0,
        "roughnessFactor": 0.75
      }
    },
    {
      "doubleSided": true,
      "name": "Metal Iron.009",
      "pbrMetallicRoughness": {
        "baseColorTexture": {
          "index": 1
        },
        "metallicFactor": 0.0,
        "roughnessFactor": 0.75
      }
    },
    {
      "doubleSided": true,
      "name": "Weathered Wood.015",
      "pbrMetallicRoughness": {
        "baseColorTexture": {
          "index": 0
        },
        "metallicFactor": 0.0,
        "roughnessFactor": 0.75
      }
    },
    {
      "doubleSided": true,
      "name": "Metal Iron.010",
      "pbrMetallicRoughness": {
        "baseColorTexture": {
          "index": 1
        },
        "metallicFactor": 0.0,
        "roughnessFactor": 0.75
      }
    },
    {
      "doubleSided": true,
      "name": "Weathered Wood.018",
      "pbrMetallicRoughness": {
        "baseColorTexture": {
          "index": 0
        },
        "metallicFactor": 0.0,
        "roughnessFactor": 0.75
      }
    },
    {
      "doubleSided": true,
      "name": "Metal Iron.011",
      "pbrMetallicRoughness": {
        "baseColorTexture": {
          "index": 1
        },
        "metallicFactor": 0.0,
        "roughnessFactor": 0.75
      }
    },
    {
      "doubleSided": true,
      "name": "Weathered Wood.019",
      "pbrMetallicRoughness": {
        "baseColorTexture": {
          "index": 0
        },
        "metallicFactor": 0.0,
        "roughnessFactor": 0.75
      }
    },
    {
      "doubleSided": true,
      "name": "Metal Iron.012",
      "pbrMetallicRoughness": {
        "baseColorTexture": {
          "index": 1
        },
        "metallicFactor": 0.0,
        "roughnessFactor": 0.75
      }
    },
    {
      "doubleSided": true,
      "name": "Weathered Wood.001",
      "pbrMetallicRoughness": {
        "baseColorTexture": {
          "index": 0
        },
        "metallicFactor": 0.0,
        "roughnessFactor": 0.75
      }
    },
    {
      "doubleSided": true,
      "name": "Metal Iron",
      "pbrMetallicRoughness": {
        "baseColorTexture": {
          "index": 1
        },
        "metallicFactor": 0.0,
        "roughnessFactor": 0.75
      }
    },
    {
      "doubleSided": true,
      "name": "Weathered Wood.007",
      "pbrMetallicRoughness": {
        "baseColorTexture": {
          "index": 0
        },
        "metallicFactor": 0.0,
        "roughnessFactor": 0.75
      }
    },
    {
      "doubleSided": true,
      "name": "Metal Iron.005",
      "pbrMetallicRoughness": {
        "baseColorTexture": {
          "index": 1
        },
        "metallicFactor": 0.0,
        "roughnessFactor": 0.75
      }
    },
    {
      "doubleSided": true,
      "name": "Weathered Wood.011",
      "pbrMetallicRoughness": {
        "baseColorTexture": {
          "index": 0
        },
        "metallicFactor": 0.0,
        "roughnessFactor": 0.75
      }
    },
    {
      "doubleSided": true,
      "name": "Metal Iron.007",
      "pbrMetallicRoughness": {
        "baseColorTexture": {
          "index": 1
        },
        "metallicFactor": 0.0,
        "roughnessFactor": 0.75
      }
    },
    {
      "doubleSided": true,
      "name": "Wooden Planks.002",
      "pbrMetallicRoughness": {
        "baseColorTexture": {
          "index": 2
        },
        "metallicFactor": 0.0,
        "roughnessFactor": 0.75
      }
    },
    {
      "doubleSided": true,
      "name": "Metal Iron.003",
      "pbrMetallicRoughness": {
        "baseColorTexture": {
          "index": 1
        },
        "metallicFactor": 0.0,
        "roughnessFactor": 0.75
      }
    },
    {
      "doubleSided": true,
      "extensions": {
        "KHR_materials_specular": {
          "specularFactor": 0
        }
      },
      "name": "Hay 2",
      "normalTexture": {
        "index": 4
      },
      "pbrMetallicRoughness": {
        "baseColorTexture": {
          "index": 3
        },
        "metallicFactor": 0.0,
        "roughnessFactor": 0.75
      }
    },
    {
      "doubleSided": true,
      "extensions": {
        "KHR_materials_specular": {
          "specularFactor": 0
        }
      },
      "name": "Hay 2.001",
      "normalTexture": {
        "index": 4
      },
      "pbrMetallicRoughness": {
        "baseColorTexture": {
          "index": 3
        },
        "metallicFactor": 0.0,
        "roughnessFactor": 0.75
      }
    },
    {
      "doubleSided": true,
      "extensions": {
        "KHR_materials_specular": {
          "specularFactor": 0
        }
      },
      "name": "Hay 1",
      "normalTexture": {
        "index": 6
      },
      "pbrMetallicRoughness": {
        "baseColorTexture": {
          "index": 5
        },
        "metallicFactor": 0.0,
        "roughnessFactor": 0.75
      }
    },
    {
      "doubleSided": true,
      "extensions": {
        "KHR_materials_specular": {
          "specularFactor": 0
        }
      },
      "name": "Hay 1.001",
      "normalTexture": {
        "index": 6
      },
      "pbrMetallicRoughness": {
        "baseColorTexture": {
          "index": 5
        },
        "metallicFactor": 0.0,
        "roughnessFactor": 0.75
      }
    },
    {
      "doubleSided": true,
      "name": "Wooden Planks.006",
      "pbrMetallicRoughness": {
        "baseColorTexture": {
          "index": 2
        },
        "metallicFactor": 0.0,
        "roughnessFactor": 0.75
      }
    },
    {
      "doubleSided": true,
      "name": "Weathered Wood.013",
      "pbrMetallicRoughness": {
        "baseColorTexture": {
          "index": 0
        },
        "metallicFactor": 0.0,
        "roughnessFactor": 0.75
      }
    },
    {
      "doubleSided": true,
      "name": "Wooden Planks.008",
      "pbrMetallicRoughness": {
        "baseColorTexture": {
          "index": 2
        },
        "metallicFactor": 0.0,
        "roughnessFactor": 0.75
      }
    },
    {
      "doubleSided": true,
      "name": "Weathered Wood.017",
      "pbrMetallicRoughness": {
        "baseColorTexture": {
          "index": 0
        },
        "metallicFactor": 0.0,
        "roughnessFactor": 0.75
      }
    },
    {
      "doubleSided": true,
      "name": "Weathered Wood.016",
      "pbrMetallicRoughness": {
        "baseColorTexture": {
          "index": 0
        },
        "metallicFactor": 0.0,
        "roughnessFactor": 0.75
      }
    },
    {
      "doubleSided": true,
      "name": "Weathered Wood.021",
      "pbrMetallicRoughness": {
        "baseColorTexture": {
          "index": 0
        },
        "metallicFactor": 0.0,
        "roughnessFactor": 0.75
      }
    },
    {
      "doubleSided": true,
      "name": "Weathered Wood.006",
      "pbrMetallicRoughness": {
        "baseColorTexture": {
          "index": 0
        },
        "metallicFactor": 0.0,
        "roughnessFactor": 0.75
      }
    },
    {
      "doubleSided": true,
      "name": "Wooden Planks.003",
      "pbrMetallicRoughness": {
        "baseColorTexture": {
          "index": 2
        },
        "metallicFactor": 0.0,
        "roughnessFactor": 0.75
      }
    },
    {
      "doubleSided": true,
      "name": "Weathered Wood.008",
      "pbrMetallicRoughness": {
        "baseColorTexture": {
          "index": 0
        },
        "metallicFactor": 0.0,
        "roughnessFactor": 0.75
      }
    },
    {
      "doubleSided": true,
      "name": "Wooden Planks.004",
      "pbrMetallicRoughness": {
        "baseColorTexture": {
          "index": 2
        },
        "metallicFactor": 0.0,
        "roughnessFactor": 0.75
      }
    },
    {
      "doubleSided": true,
      "name": "Wooden Planks",
      "pbrMetallicRoughness": {
        "baseColorTexture": {
          "index": 2
        },
        "metallicFactor": 0.0,
        "roughnessFactor": 0.75
      }
    },
    {
      "doubleSided": true,
      "name": "Weathered Wood",
      "pbrMetallicRoughness": {
        "baseColorTexture": {
          "index": 0
        },
        "metallicFactor": 0.0,
        "roughnessFactor": 0.75
      }
    },
    {
      "doubleSided": true,
      "name": "Wooden Planks.001",
      "pbrMetallicRoughness": {
        "baseColorTexture": {
          "index": 2
        },
        "metallicFactor": 0.0,
        "roughnessFactor": 0.75
      }
    },
    {
      "doubleSided": true,
      "name": "Weathered Wood.002",
      "pbrMetallicRoughness": {
        "baseColorTexture": {
          "index": 0
        },
        "metallicFactor": 0.0,
        "roughnessFactor": 0.75
      }
    },
    {
      "doubleSided": true,
      "name": "Wooden Planks.005",
      "pbrMetallicRoughness": {
        "baseColorTexture": {
          "index": 2
        },
        "metallicFactor": 0.0,
        "roughnessFactor": 0.75
      }
    },
    {
      "doubleSided": true,
      "name": "Weathered Wood.009",
      "pbrMetallicRoughness": {
        "baseColorTexture": {
          "index": 0
        },
        "metallicFactor": 0.0,
        "roughnessFactor": 0.75
      }
    },
    {
      "doubleSided": true,
      "name": "Wooden Planks.009",
      "pbrMetallicRoughness": {
        "baseColorTexture": {
          "index": 2
        },
        "metallicFactor": 0.0,
        "roughnessFactor": 0.75
      }
    },
    {
      "doubleSided": true,
      "name": "Weathered Wood.020",
      "pbrMetallicRoughness": {
        "baseColorTexture": {
          "index": 0
        },
        "metallicFactor": 0.0,
        "roughnessFactor": 0.75
      }
    }
  ],
  "meshes": [
    {
      "name": "Cube.136",
      "primitives": [
        {
          "attributes": {
            "POSITION": 0,
            "NORMAL": 1,
            "TEXCOORD_0": 2
          },
          "indices": 3,
          "material": 0
        },
        {
          "attributes": {
            "POSITION": 4,
            "NORMAL": 5,
            "TEXCOORD_0": 6
          },
          "indices": 7,
          "material": 1
        }
      ]
    },
    {
      "name": "Cube.002",
      "primitives": [
        {
          "attributes": {
            "POSITION": 8,
            "NORMAL": 9,
            "TEXCOORD_0": 10
          },
          "indices": 3,
          "material": 2
        },
        {
          "attributes": {
            "POSITION": 11,
            "NORMAL": 12,
            "TEXCOORD_0": 13
          },
          "indices": 7,
          "material": 3
        }
      ]
    },
    {
      "name": "Cube.003",
      "primitives": [
        {
          "attributes": {
            "POSITION": 14,
            "NORMAL": 15,
            "TEXCOORD_0": 16
          },
          "indices": 3,
          "material": 4
        },
        {
          "attributes": {
            "POSITION": 17,
            "NORMAL": 18,
            "TEXCOORD_0": 19
          },
          "indices": 7,
          "material": 5
        }
      ]
    },
    {
      "name": "Cube.007",
      "primitives": [
        {
          "attributes": {
            "POSITION": 20,
            "NORMAL": 21,
            "TEXCOORD_0": 22
          },
          "indices": 3,
          "material": 6
        },
        {
          "attributes": {
            "POSITION": 23,
            "NORMAL": 24,
            "TEXCOORD_0": 25
          },
          "indices": 7,
          "material": 7
        }
      ]
    },
    {
      "name": "Cube.009",
      "primitives": [
        {
          "attributes": {
            "POSITION": 26,
            "NORMAL": 27,
            "TEXCOORD_0": 28
          },
          "indices": 3,
          "material": 8
        },
        {
          "attributes": {
            "POSITION": 29,
            "NORMAL": 30,
            "TEXCOORD_0": 31
          },
          "indices": 7,
          "material": 9
        }
      ]
    },
    {
      "name": "Cube.010",
      "primitives": [
        {
          "attributes": {
            "POSITION": 32,
            "NORMAL": 33,
            "TEXCOORD_0": 34
          },
          "indices": 3,
          "material": 10
        },
        {
          "attributes": {
            "POSITION": 35,
            "NORMAL": 36,
            "TEXCOORD_0": 37
          },
          "indices": 7,
          "material": 11
        }
      ]
    },
    {
      "name": "Cube.011",
      "primitives": [
        {
          "attributes": {
            "POSITION": 38,
            "NORMAL": 39,
            "TEXCOORD_0": 40
          },
          "indices": 3,
          "material": 12
        },
        {
          "attributes": {
            "POSITION": 41,
            "NORMAL": 42,
            "TEXCOORD_0": 43
          },
          "indices": 7,
          "material": 13
        }
      ]
    },
    {
      "name": "Cube.013",
      "primitives": [
        {
          "attributes": {
            "POSITION": 44,
            "NORMAL": 45,
            "TEXCOORD_0": 46
          },
          "indices": 3,
          "material": 14
        },
        {
          "attributes": {
            "POSITION": 47,
            "NORMAL": 48,
            "TEXCOORD_0": 49
          },
          "indices": 7,
          "material": 15
        }
      ]
    },
    {
      "name": "Cube.014",
      "primitives": [
        {
          "attributes": {
            "POSITION": 50,
            "NORMAL": 51,
            "TEXCOORD_0": 52
          },
          "indices": 3,
          "material": 16
        },
        {
          "attributes": {
            "POSITION": 53,
            "NORMAL": 54,
            "TEXCOORD_0": 55
          },
          "indices": 7,
          "material": 17
        }
      ]
    },
    {
      "name": "Cube.146",
      "primitives": [
        {
          "attributes": {
            "POSITION": 56,
            "NORMAL": 57,
            "TEXCOORD_0": 58
          },
          "indices": 59,
          "material": 18
        },
        {
          "attributes": {
            "POSITION": 60,
            "NORMAL": 61,
            "TEXCOORD_0": 62
          },
          "indices": 63,
          "material": 19
        }
      ]
    },
    {
      "name": "Cube.004",
      "primitives": [
        {
          "attributes": {
            "POSITION": 64,
            "NORMAL": 65,
            "TEXCOORD_0": 66
          },
          "indices": 59,
          "material": 20
        },
        {
          "attributes": {
            "POSITION": 67,
            "NORMAL": 68,
            "TEXCOORD_0": 69
          },
          "indices": 63,
          "material": 21
        }
      ]
    },
    {
      "name": "Cube.008",
      "primitives": [
        {
          "attributes": {
            "POSITION": 70,
            "NORMAL": 71,
            "TEXCOORD_0": 72
          },
          "indices": 59,
          "material": 22
        },
        {
          "attributes": {
            "POSITION": 73,
            "NORMAL": 74,
            "TEXCOORD_0": 75
          },
          "indices": 63,
          "material": 23
        }
      ]
    },
    {
      "name": "Cube.124",
      "primitives": [
        {
          "attributes": {
            "POSITION": 76,
            "NORMAL": 77,
            "TEXCOORD_0": 78
          },
          "indices": 79,
          "material": 24
        },
        {
          "attributes": {
            "POSITION": 80,
            "NORMAL": 81,
            "TEXCOORD_0": 82
          },
          "indices": 83,
          "material": 25
        }
      ]
    },
    {
      "name": "Plane.001",
      "primitives": [
        {
          "attributes": {
            "POSITION": 84,
            "NORMAL": 85,
            "TEXCOORD_0": 86
          },
          "indices": 87,
          "material": 26
        }
      ]
    },
    {
      "name": "Plane.003",
      "primitives": [
        {
          "attributes": {
            "POSITION": 88,
            "NORMAL": 89,
            "TEXCOORD_0": 90
          },
          "indices": 87,
          "material": 27
        }
      ]
    },
    {
      "name": "Plane",
      "primitives": [
        {
          "attributes": {
            "POSITION": 91,
            "NORMAL": 92,
            "TEXCOORD_0": 93
          },
          "indices": 94,
          "material": 28
        }
      ]
    },
    {
      "name": "Plane.002",
      "primitives": [
        {
          "attributes": {
            "POSITION": 95,
            "NORMAL": 96,
            "TEXCOORD_0": 97
          },
          "indices": 94,
          "material": 29
        }
      ]
    },
    {
      "name": "Cube.078",
      "primitives": [
        {
          "attributes": {
            "POSITION": 98,
            "NORMAL": 99,
            "TEXCOORD_0": 100
          },
          "indices": 101,
          "material": 30
        },
        {
          "attributes": {
            "POSITION": 102,
            "NORMAL": 103,
            "TEXCOORD_0": 104
          },
          "indices": 105,
          "material": 31
        }
      ]
    },
    {
      "name": "Cube.012",
      "primitives": [
        {
          "attributes": {
            "POSITION": 106,
            "NORMAL": 107,
            "TEXCOORD_0": 108
          },
          "indices": 101,
          "material": 32
        },
        {
          "attributes": {
            "POSITION": 109,
            "NORMAL": 110,
            "TEXCOORD_0": 111
          },
          "indices": 105,
          "material": 33
        }
      ]
    },
    {
      "name": "Cube.388",
      "primitives": [
        {
          "attributes": {
            "POSITION": 112,
            "NORMAL": 113,
            "TEXCOORD_0": 114
          },
          "indices": 115,
          "material": 34
        }
      ]
    },
    {
      "name": "Cube.015",
      "primitives": [
        {
          "attributes": {
            "POSITION": 116,
            "NORMAL": 117,
            "TEXCOORD_0": 118
          },
          "indices": 115,
          "material": 35
        }
      ]
    },
    {
      "name": "Cube.127",
      "primitives": [
        {
          "attributes": {
            "POSITION": 119,
            "NORMAL": 120,
            "TEXCOORD_0": 121
          },
          "indices": 122,
          "material": 36
        },
        {
          "attributes": {
            "POSITION": 123,
            "NORMAL": 124,
            "TEXCOORD_0": 125
          },
          "indices": 126,
          "material": 37
        }
      ]
    },
    {
      "name": "Cube.005",
      "primitives": [
        {
          "attributes": {
            "POSITION": 127,
            "NORMAL": 128,
            "TEXCOORD_0": 129
          },
          "indices": 122,
          "material": 38
        },
        {
          "attributes": {
            "POSITION": 130,
            "NORMAL": 131,
            "TEXCOORD_0": 132
          },
          "indices": 126,
          "material": 39
        }
      ]
    },
    {
      "name": "Cube.057",
      "primitives": [
        {
          "attributes": {
            "POSITION": 133,
            "NORMAL": 134,
            "TEXCOORD_0": 135
          },
          "indices": 136,
          "material": 40
        },
        {
          "attributes": {
            "POSITION": 137,
            "NORMAL": 138,
            "TEXCOORD_0": 139
          },
          "indices": 140,
          "material": 41
        }
      ]
    },
    {
      "name": "Cube.001",
      "primitives": [
        {
          "attributes": {
            "POSITION": 141,
            "NORMAL": 142,
            "TEXCOORD_0": 143
          },
          "indices": 136,
          "material": 42
        },
        {
          "attributes": {
            "POSITION": 144,
            "NORMAL": 145,
            "TEXCOORD_0": 146
          },
          "indices": 140,
          "material": 43
        }
      ]
    },
    {
      "name": "Cube.006",
      "primitives": [
        {
          "attributes": {
            "POSITION": 147,
            "NORMAL": 148,
            "TEXCOORD_0": 149
          },
          "indices": 136,
          "material": 44
        },
        {
          "attributes": {
            "POSITION": 150,
            "NORMAL": 151,
            "TEXCOORD_0": 152
          },
          "indices": 140,
          "material": 45
        }
      ]
    },
    {
      "name": "Cube.098",
      "primitives": [
        {
          "attributes": {
            "POSITION": 153,
            "NORMAL": 154,
            "TEXCOORD_0": 155
          },
          "indices": 156,
          "material": 46
        },
        {
          "attributes": {
            "POSITION": 157,
            "NORMAL": 158,
            "TEXCOORD_0": 159
          },
          "indices": 160,
          "material": 47
        }
      ]
    }
  ],
  "textures": [
    {
      "source": 0
    },
    {
      "source": 1
    },
    {
      "source": 2
    },
    {
      "source": 3
    },
    {
      "source": 4
    },
    {
      "source": 5
    },
    {
      "source": 6
    }
  ],
  "images": [
    {
      "uri": "textures/wood_weather_color.png"
    },
    {
      "uri": "textures/iron_color.png"
    },
    {
      "uri": "textures/wood_planks_color.png"
    },
    {
      "uri": "textures/hay2_color.png"
    },
    {
      "uri": "textures/hay2_normal.png"
    },
    {
      "uri": "textures/hay1_color.png"
    },
    {
      "uri": "textures/hay1_normal.png"
    }
  ],
  "accessors": [
    {
      "bufferView": 0,
      "componentType": 5126,
      "count": 1928,
      "max": [
        2.1614913940429688,
        0.6745573878288269,
        1.5526123046875
      ],
      "min": [
        -2.161487579345703,
        -4.240854740142822,
        -1.9498594999313354
      ],
      "type": "VEC3"
    },
    {
      "bufferView": 1,
      "componentType": 5126,
      "count": 1928,
      "type": "VEC3"
    },
    {
      "bufferView": 2,
      "componentType": 5126,
      "count": 1928,
      "type": "VEC2"
    },
    {
      "bufferView": 3,
      "componentType": 5123,
      "count": 3144,
      "type": "SCALAR"
    },
    {
      "bufferView": 4,
      "componentType": 5126,
      "count": 312,
      "max": [
        1.4210643768310547,
        0.23224113881587982,
        1.4128036499023438
      ],
      "min": [
        -1.4210604429244995,
        0.22320769727230072,
        -1.805713415145874
      ],
      "type": "VEC3"
    },
    {
      "bufferView": 5,
      "componentType": 5126,
      "count": 312,
      "type": "VEC3"
    },
    {
      "bufferView": 6,
      "componentType": 5126,
      "count": 312,
      "type": "VEC2"
    },
    {
      "bufferView": 7,
      "componentType": 5123,
      "count": 720,
      "type": "SCALAR"
    },
    {
      "bufferView": 8,
      "componentType": 5126,
      "count": 1928,
      "max": [
        2.1614913940429688,
        0.6745573878288269,
        1.5526123046875
      ],
      "min": [
        -2.161487579345703,
        -4.240854740142822,
        -1.9498594999313354
      ],
      "type": "VEC3"
    },
    {
      "bufferView": 9,
      "componentType": 5126,
      "count": 1928,
      "type": "VEC3"
    },
    {
      "bufferView": 10,
      "componentType": 5126,
      "count": 1928,
      "type": "VEC2"
    },
    {
      "bufferView": 11,
      "componentType": 5126,
      "count": 312,
      "max": [
        1.4210643768310547,
        0.23224113881587982,
        1.4128036499023438
      ],
      "min": [
        -1.4210604429244995,
        0.22320769727230072,
        -1.805713415145874
      ],
      "type": "VEC3"
    },
    {
      "bufferView": 12,
      "componentType": 5126,
      "count": 312,
      "type": "VEC3"
    },
    {
      "bufferView": 13,
      "componentType": 5126,
      "count": 312,
      "type": "VEC2"
    },
    {
      "bufferView": 14,
      "componentType": 5126,
      "count": 1928,
      "max": [
        2.1614913940429688,
        0.6745573878288269,
        1.5526123046875
      ],
      "min": [
        -2.161487579345703,
        -4.240854740142822,
        -1.9498594999313354
      ],
      "type": "VEC3"
    },
    {
      "bufferView": 15,
      "componentType": 5126,
      "count": 1928,
      "type": "VEC3"
    },
    {
      "bufferView": 16,
      "componentType": 5126,
      "count": 1928,
      "type": "VEC2"
    },
    {
      "bufferView": 17,
      "componentType": 5126,
      "count": 312,
      "max": [
        1.4210643768310547,
        0.23224113881587982,
        1.4128036499023438
      ],
      "min": [
        -1.4210604429244995,
        0.22320769727230072,
        -1.805713415145874
      ],
      "type": "VEC3"
    },
    {
      "bufferView": 18,
      "componentType": 5126,
      "count": 312,
      "type": "VEC3"
    },
    {
      "bufferView": 19,
      "componentType": 5126,
      "count": 312,
      "type": "VEC2"
    },
    {
      "bufferView": 20,
      "componentType": 5126,
      "count": 1928,
      "max": [
        2.1614913940429688,
        0.6745573878288269,
        1.5526123046875
      ],
      "min": [
        -2.161487579345703,
        -4.240854740142822,
        -1.9498594999313354
      ],
      "type": "VEC3"
    },
    {
      "bufferView": 21,
      "componentType": 5126,
      "count": 1928,
      "type": "VEC3"
    },
    {
      "bufferView": 22,
      "componentType": 5126,
      "count": 1928,
      "type": "VEC2"
    },
    {
      "bufferView": 23,
      "componentType": 5126,
      "count": 312,
      "max": [
        1.4210643768310547,
        0.23224113881587982,
        1.4128036499023438
      ],
      "min": [
        -1.4210604429244995,
        0.22320769727230072,
        -1.805713415145874
      ],
      "type": "VEC3"
    },
    {
      "bufferView": 24,
      "componentType": 5126,
      "count": 312,
      "type": "VEC3"
    },
    {
      "bufferView": 25,
      "componentType": 5126,
      "count": 312,
      "type": "VEC2"
    },
    {
      "bufferView": 26,
      "componentType": 5126,
      "count": 1928,
      "max": [
        2.1614913940429688,
        0.6745573878288269,
        1.5526123046875
      ],
      "min": [
        -2.161487579345703,
        -4.240854740142822,
        -1.9498594999313354
      ],
      "type": "VEC3"
    },
    {
      "bufferView": 27,
      "componentType": 5126,
      "count": 1928,
      "type": "VEC3"
    },
    {
      "bufferView": 28,
      "componentType": 5126,
      "count": 1928,
      "type": "VEC2"
    },
    {
      "bufferView": 29,
      "componentType": 5126,
      "count": 312,
      "max": [
        1.4210643768310547,
        0.23224113881587982,
        1.4128036499023438
      ],
      "min": [
        -1.4210604429244995,
        0.22320769727230072,
        -1.805713415145874
      ],
      "type": "VEC3"
    },
    {
      "bufferView": 30,
      "componentType": 5126,
      "count": 312,
      "type": "VEC3"
    },
    {
      "bufferView": 31,
      "componentType": 5126,
      "count": 312,
      "type": "VEC2"
    },
    {
      "bufferView": 32,
      "componentType": 5126,
      "count": 1928,
      "max": [
        2.1614913940429688,
        0.6745573878288269,
        1.5526123046875
      ],
      "min": [
        -2.161487579345703,
        -4.240854740142822,
        -1.9498594999313354
      ],
      "type": "VEC3"
    },
    {
      "bufferView": 33,
      "componentType": 5126,
      "count": 1928,
      "type": "VEC3"
    },
    {
      "bufferView": 34,
      "componentType": 5126,
      "count": 1928,
      "type": "VEC2"
    },
    {
      "bufferView": 35,
      "componentType": 5126,
      "count": 312,
      "max": [
        1.4210643768310547,
        0.23224113881587982,
        1.4128036499023438
      ],
      "min": [
        -1.4210604429244995,
        0.22320769727230072,
        -1.805713415145874
      ],
      "type": "VEC3"
    },
    {
      "bufferView": 36,
      "componentType": 5126,
      "count": 312,
      "type": "VEC3"
    },
    {
      "bufferView": 37,
      "componentType": 5126,
      "count": 312,
      "type": "VEC2"
    },
    {
      "bufferView": 38,
      "componentType": 5126,
      "count": 1928,
      "max": [
        2.1614913940429688,
        0.6745573878288269,
        1.5526123046875
      ],
      "min": [
        -2.161487579345703,
        -4.240854740142822,
        -1.9498594999313354
      ],
      "type": "VEC3"
    },
    {
      "bufferView": 39,
      "componentType": 5126,
      "count": 1928,
      "type": "VEC3"
    },
    {
      "bufferView": 40,
      "componentType": 5126,
      "count": 1928,
      "type": "VEC2"
    },
    {
      "bufferView": 41,
      "componentType": 5126,
      "count": 312,
      "max": [
        1.4210643768310547,
        0.23224113881587982,
        1.4128036499023438
      ],
      "min": [
        -1.4210604429244995,
        0.22320769727230072,
        -1.805713415145874
      ],
      "type": "VEC3"
    },
    {
      "bufferView": 42,
      "componentType": 5126,
      "count": 312,
      "type": "VEC3"
    },
    {
      "bufferView": 43,
      "componentType": 5126,
      "count": 312,
      "type": "VEC2"
    },
    {
      "bufferView": 44,
      "componentType": 5126,
      "count": 1928,
      "max": [
        2.1614913940429688,
        0.6745573878288269,
        1.5526123046875
      ],
      "min": [
        -2.161487579345703,
        -4.240854740142822,
        -1.9498594999313354
      ],
      "type": "VEC3"
    },
    {
      "bufferView": 45,
      "componentType": 5126,
      "count": 1928,
      "type": "VEC3"
    },
    {
      "bufferView": 46,
      "componentType": 5126,
      "count": 1928,
      "type": "VEC2"
    },
    {
      "bufferView": 47,
      "componentType": 5126,
      "count": 312,
      "max": [
        1.4210643768310547,
        0.23224113881587982,
        1.4128036499023438
      ],
      "min": [
        -1.4210604429244995,
        0.22320769727230072,
        -1.805713415145874
      ],
      "type": "VEC3"
    },
    {
      "bufferView": 48,
      "componentType": 5126,
      "count": 312,
      "type": "VEC3"
    },
    {
      "bufferView": 49,
      "componentType": 5126,
      "count": 312,
      "type": "VEC2"
    },
    {
      "bufferView": 50,
      "componentType": 5126,
      "count": 1928,
      "max": [
        2.1614913940429688,
        0.6745573878288269,
        1.5526123046875
      ],
      "min": [
        -2.161487579345703,
        -4.240854740142822,
        -1.9498594999313354
      ],
      "type": "VEC3"
    },
    {
      "bufferView": 51,
      "componentType": 5126,
      "count": 1928,
      "type": "VEC3"
    },
    {
      "bufferView": 52,
      "componentType": 5126,
      "count": 1928,
      "type": "VEC2"
    },
    {
      "bufferView": 53,
      "componentType": 5126,
      "count": 312,
      "max": [
        1.4210643768310547,
        0.23224113881587982,
        1.4128036499023438
      ],
      "min": [
        -1.4210604429244995,
        0.22320769727230072,
        -1.805713415145874
      ],
      "type": "VEC3"
    },
    {
      "bufferView": 54,
      "componentType": 5126,
      "count": 312,
      "type": "VEC3"
    },
    {
      "bufferView": 55,
      "componentType": 5126,
      "count": 312,
      "type": "VEC2"
    },
    {
      "bufferView": 56,
      "componentType": 5126,
      "count": 1304,
      "max": [
        1.99066162109375,
        1.2106585502624512,
        0.12972258031368256
      ],
      "min": [
        -1.99066162109375,
        5.2519052218258366e-08,
        -1.0587193965911865
      ],
      "type": "VEC3"
    },
    {
      "bufferView": 57,
      "componentType": 5126,
      "count": 1304,
      "type": "VEC3"
    },
    {
      "bufferView": 58,
      "componentType": 5126,
      "count": 1304,
      "type": "VEC2"
    },
    {
      "bufferView": 59,
      "componentType": 5123,
      "count": 1980,
      "type": "SCALAR"
    },
    {
      "bufferView": 60,
      "componentType": 5126,
      "count": 156,
      "max": [
        1.998260498046875,
        1.0070518255233765,
        0.010067443363368511
      ],
      "min": [
        -1.998565673828125,
        0.22336417436599731,
        -0.9701420664787292
      ],
      "type": "VEC3"
    },
    {
      "bufferView": 61,
      "componentType": 5126,
      "count": 156,
      "type": "VEC3"
    },
    {
      "bufferView": 62,
      "componentType": 5126,
      "count": 156,
      "type": "VEC2"
    },
    {
      "bufferView": 63,
      "componentType": 5123,
      "count": 360,
      "type": "SCALAR"
    },
    {
      "bufferView": 64,
      "componentType": 5126,
      "count": 1304,
      "max": [
        1.99066162109375,
        1.2106585502624512,
        0.12972258031368256
      ],
      "min": [
        -1.99066162109375,
        5.2519052218258366e-08,
        -1.0587193965911865
      ],
      "type": "VEC3"
    },
    {
      "bufferView": 65,
      "componentType": 5126,
      "count": 1304,
      "type": "VEC3"
    },
    {
      "bufferView": 66,
      "componentType": 5126,
      "count": 1304,
      "type": "VEC2"
    },
    {
      "bufferView": 67,
      "componentType": 5126,
      "count": 156,
      "max": [
        1.998260498046875,
        1.0070518255233765,
        0.010067443363368511
      ],
      "min": [
        -1.998565673828125,
        0.22336417436599731,
        -0.9701420664787292
      ],
      "type": "VEC3"
    },
    {
      "bufferView": 68,
      "componentType": 5126,
      "count": 156,
      "type": "VEC3"
    },
    {
      "bufferView": 69,
      "componentType": 5126,
      "count": 156,
      "type": "VEC2"
    },
    {
      "bufferView": 70,
      "componentType": 5126,
      "count": 1304,
      "max": [
        1.99066162109375,
        1.2106585502624512,
        0.12972258031368256
      ],
      "min": [
        -1.99066162109375,
        5.2519052218258366e-08,
        -1.0587193965911865
      ],
      "type": "VEC3"
    },
    {
      "bufferView": 71,
      "componentType": 5126,
      "count": 1304,
      "type": "VEC3"
    },
    {
      "bufferView": 72,
      "componentType": 5126,
      "count": 1304,
      "type": "VEC2"
    },
    {
      "bufferView": 73,
      "componentType": 5126,
      "count": 156,
      "max": [
        1.998260498046875,
        1.0070518255233765,
        0.010067443363368511
      ],
      "min": [
        -1.998565673828125,
        0.22336417436599731,
        -0.9701420664787292
      ],
      "type": "VEC3"
    },
    {
      "bufferView": 74,
      "componentType": 5126,
      "count": 156,
      "type": "VEC3"
    },
    {
      "bufferView": 75,
      "componentType": 5126,
      "count": 156,
      "type": "VEC2"
    },
    {
      "bufferView": 76,
      "componentType": 5126,
      "count": 408,
      "max": [
        0.44745582342147827,
        1.9523507356643677,
        0.04633566737174988
      ],
      "min": [
        -0.44744673371315,
        -3.498245693123181e-09,
        -0.046335816383361816
      ],
      "type": "VEC3"
    },
    {
      "bufferView": 77,
      "componentType": 5126,
      "count": 408,
      "type": "VEC3"
    },
    {
      "bufferView": 78,
      "componentType": 5126,
      "count": 408,
      "type": "VEC2"
    },
    {
      "bufferView": 79,
      "componentType": 5123,
      "count": 612,
      "type": "SCALAR"
    },
    {
      "bufferView": 80,
      "componentType": 5126,
      "count": 99,
      "max": [
        0.40589120984077454,
        1.259553074836731,
        0.1364600509405136
      ],
      "min": [
        0.35112860798835754,
        0.9304835200309753,
        0.036551207304000854
      ],
      "type": "VEC3"
    },
    {
      "bufferView": 81,
      "componentType": 5126,
      "count": 99,
      "type": "VEC3"
    },
    {
      "bufferView": 82,
      "componentType": 5126,
      "count": 99,
      "type": "VEC2"
    },
    {
      "bufferView": 83,
      "componentType": 5123,
      "count": 480,
      "type": "SCALAR"
    },
    {
      "bufferView": 84,
      "componentType": 5126,
      "count": 740,
      "max": [
        1.0000001192092896,
        0.042366690933704376,
        1
      ],
      "min": [
        -1.0000001192092896,
        -0.01370434183627367,
        -1
      ],
      "type": "VEC3"
    },
    {
      "bufferView": 85,
      "componentType": 5126,
      "count": 740,
      "type": "VEC3"
    },
    {
      "bufferView": 86,
      "componentType": 5126,
      "count": 740,
      "type": "VEC2"
    },
    {
      "bufferView": 87,
      "componentType": 5123,
      "count": 1536,
      "type": "SCALAR"
    },
    {
      "bufferView": 88,
      "componentType": 5126,
      "count": 740,
      "max": [
        1.0000001192092896,
        0.042366690933704376,
        1
      ],
      "min": [
        -1.0000001192092896,
        -0.01370434183627367,
        -1
      ],
      "type": "VEC3"
    },
    {
      "bufferView": 89,
      "componentType": 5126,
      "count": 740,
      "type": "VEC3"
    },
    {
      "bufferView": 90,
      "componentType": 5126,
      "count": 740,
      "type": "VEC2"
    },
    {
      "bufferView": 91,
      "componentType": 5126,
      "count": 808,
      "max": [
        1.0000001192092896,
        0.04047449678182602,
        1
      ],
      "min": [
        -1.0000001192092896,
        -0.015672482550144196,
        -1
      ],
      "type": "VEC3"
    },
    {
      "bufferView": 92,
      "componentType": 5126,
      "count": 808,
      "type": "VEC3"
    },
    {
      "bufferView": 93,
      "componentType": 5126,
      "count": 808,
      "type": "VEC2"
    },
    {
      "bufferView": 94,
      "componentType": 5123,
      "count": 1536,
      "type": "SCALAR"
    },
    {
      "bufferView": 95,
      "componentType": 5126,
      "count": 808,
      "max": [
        1.0000001192092896,
        0.04047449678182602,
        1
      ],
      "min": [
        -1.0000001192092896,
        -0.015672482550144196,
        -1
      ],
      "type": "VEC3"
    },
    {
      "bufferView": 96,
      "componentType": 5126,
      "count": 808,
      "type": "VEC3"
    },
    {
      "bufferView": 97,
      "componentType": 5126,
      "count": 808,
      "type": "VEC2"
    },
    {
      "bufferView": 98,
      "componentType": 5126,
      "count": 20,
      "max": [
        1.9559059143066406,
        1.09199059009552,
        0.146956667304039
      ],
      "min": [
        -1.9558982849121094,
        -1.109499159213101e-08,
        -0.14695771038532257
      ],
      "type": "VEC3"
    },
    {
      "bufferView": 99,
      "componentType": 5126,
      "count": 20,
      "type": "VEC3"
    },
    {
      "bufferView": 100,
      "componentType": 5126,
      "count": 20,
      "type": "VEC2"
    },
    {
      "bufferView": 101,
      "componentType": 5123,
      "count": 30,
      "type": "SCALAR"
    },
    {
      "bufferView": 102,
      "componentType": 5126,
      "count": 160,
      "max": [
        2.149089813232422,
        1.316504716873169,
        0.20285047590732574
      ],
      "min": [
        -2.1722068786621094,
        -0.006294977385550737,
        -0.20285160839557648
      ],
      "type": "VEC3"
    },
    {
      "bufferView": 103,
      "componentType": 5126,
      "count": 160,
      "type": "VEC3"
    },
    {
      "bufferView": 104,
      "componentType": 5126,
      "count": 160,
      "type": "VEC2"
    },
    {
      "bufferView": 105,
      "componentType": 5123,
      "count": 312,
      "type": "SCALAR"
    },
    {
      "bufferView": 106,
      "componentType": 5126,
      "count": 20,
      "max": [
        1.9559059143066406,
        1.09199059009552,
        0.146956667304039
      ],
      "min": [
        -1.9558982849121094,
        -1.109499159213101e-08,
        -0.14695771038532257
      ],
      "type": "VEC3"
    },
    {
      "bufferView": 107,
      "componentType": 5126,
      "count": 20,
      "type": "VEC3"
    },
    {
      "bufferView": 108,
      "componentType": 5126,
      "count": 20,
      "type": "VEC2"
    },
    {
      "bufferView": 109,
      "componentType": 5126,
      "count": 160,
      "max": [
        2.149089813232422,
        1.316504716873169,
        0.20285047590732574
      ],
      "min": [
        -2.1722068786621094,
        -0.006294977385550737,
        -0.20285160839557648
      ],
      "type": "VEC3"
    },
    {
      "bufferView": 110,
      "componentType": 5126,
      "count": 160,
      "type": "VEC3"
    },
    {
      "bufferView": 111,
      "componentType": 5126,
      "count": 160,
      "type": "VEC2"
    },
    {
      "bufferView": 112,
      "componentType": 5126,
      "count": 64,
      "max": [
        0.170928955078125,
        2.2100954055786133,
        0.1691419780254364
      ],
      "min": [
        -0.191925048828125,
        -1.2769891810648915e-08,
        -0.16914249956607819
      ],
      "type": "VEC3"
    },
    {
      "bufferView": 113,
      "componentType": 5126,
      "count": 64,
      "type": "VEC3"
    },
    {
      "bufferView": 114,
      "componentType": 5126,
      "count": 64,
      "type": "VEC2"
    },
    {
      "bufferView": 115,
      "componentType": 5123,
      "count": 132,
      "type": "SCALAR"
    },
    {
      "bufferView": 116,
      "componentType": 5126,
      "count": 64,
      "max": [
        0.170928955078125,
        2.2100954055786133,
        0.1691419780254364
      ],
      "min": [
        -0.191925048828125,
        -1.2769891810648915e-08,
        -0.16914249956607819
      ],
      "type": "VEC3"
    },
    {
      "bufferView": 117,
      "componentType": 5126,
      "count": 64,
      "type": "VEC3"
    },
    {
      "bufferView": 118,
      "componentType": 5126,
      "count": 64,
      "type": "VEC2"
    },
    {
      "bufferView": 119,
      "componentType": 5126,
      "count": 560,
      "max": [
        2.5315611362457275,
        2.120514154434204,
        2.2713446617126465
      ],
      "min": [
        -2.5778613090515137,
        -0.5180249214172363,
        -2.3194563388824463
      ],
      "type": "VEC3"
    },
    {
      "bufferView": 120,
      "componentType": 5126,
      "count": 560,
      "type": "VEC3"
    },
    {
      "bufferView": 121,
      "componentType": 5126,
      "count": 560,
      "type": "VEC2"
    },
    {
      "bufferView": 122,
      "componentType": 5123,
      "count": 1092,
      "type": "SCALAR"
    },
    {
      "bufferView": 123,
      "componentType": 5126,
      "count": 84,
      "max": [
        2.256417989730835,
        2.0328667163848877,
        2.1247236728668213
      ],
      "min": [
        -2.3111963272094727,
        -0.18243470788002014,
        -2.100205183029175
      ],
      "type": "VEC3"
    },
    {
      "bufferView": 124,
      "componentType": 5126,
      "count": 84,
      "type": "VEC3"
    },
    {
      "bufferView": 125,
      "componentType": 5126,
      "count": 84,
      "type": "VEC2"
    },
    {
      "bufferView": 126,
      "componentType": 5123,
      "count": 120,
      "type": "SCALAR"
    },
    {
      "bufferView": 127,
      "componentType": 5126,
      "count": 560,
      "max": [
        2.5315611362457275,
        2.120514154434204,
        2.2713446617126465
      ],
      "min": [
        -2.5778613090515137,
        -0.5180249214172363,
        -2.3194563388824463
      ],
      "type": "VEC3"
    },
    {
      "bufferView": 128,
      "componentType": 5126,
      "count": 560,
      "type": "VEC3"
    },
    {
      "bufferView": 129,
      "componentType": 5126,
      "count": 560,
      "type": "VEC2"
    },
    {
      "bufferView": 130,
      "componentType": 5126,
      "count": 84,
      "max": [
        2.256417989730835,
        2.0328667163848877,
        2.1247236728668213
      ],
      "min": [
        -2.3111963272094727,
        -0.18243470788002014,
        -2.100205183029175
      ],
      "type": "VEC3"
    },
    {
      "bufferView": 131,
      "componentType": 5126,
      "count": 84,
      "type": "VEC3"
    },
    {
      "bufferView": 132,
      "componentType": 5126,
      "count": 84,
      "type": "VEC2"
    },
    {
      "bufferView": 133,
      "componentType": 5126,
      "count": 24,
      "max": [
        1.9559109210968018,
        2.18398118019104,
        0.1469571888446808
      ],
      "min": [
        -1.955896258354187,
        -1.1094951624102123e-08,
        -0.14695726335048676
      ],
      "type": "VEC3"
    },
    {
      "bufferView": 134,
      "componentType": 5126,
      "count": 24,
      "type": "VEC3"
    },
    {
      "bufferView": 135,
      "componentType": 5126,
      "count": 24,
      "type": "VEC2"
    },
    {
      "bufferView": 136,
      "componentType": 5123,
      "count": 36,
      "type": "SCALAR"
    },
    {
      "bufferView": 137,
      "componentType": 5126,
      "count": 192,
      "max": [
        2.1490936279296875,
        2.37178373336792,
        0.2028508186340332
      ],
      "min": [
        -2.1722044944763184,
        -0.006294977385550737,
        -0.2028513103723526
      ],
      "type": "VEC3"
    },
    {
      "bufferView": 138,
      "componentType": 5126,
      "count": 192,
      "type": "VEC3"
    },
    {
      "bufferView": 139,
      "componentType": 5126,
      "count": 192,
      "type": "VEC2"
    },
    {
      "bufferView": 140,
      "componentType": 5123,
      "count": 420,
      "type": "SCALAR"
    },
    {
      "bufferView": 141,
      "componentType": 5126,
      "count": 24,
      "max": [
        1.9559109210968018,
        2.18398118019104,
        0.1469571888446808
      ],
      "min": [
        -1.955896258354187,
        -1.1094951624102123e-08,
        -0.14695726335048676
      ],
      "type": "VEC3"
    },
    {
      "bufferView": 142,
      "componentType": 5126,
      "count": 24,
      "type": "VEC3"
    },
    {
      "bufferView": 143,
      "componentType": 5126,
      "count": 24,
      "type": "VEC2"
    },
    {
      "bufferView": 144,
      "componentType": 5126,
      "count": 192,
      "max": [
        2.1490936279296875,
        2.37178373336792,
        0.2028508186340332
      ],
      "min": [
        -2.1722044944763184,
        -0.006294977385550737,
        -0.2028513103723526
      ],
      "type": "VEC3"
    },
    {
      "bufferView": 145,
      "componentType": 5126,
      "count": 192,
      "type": "VEC3"
    },
    {
      "bufferView": 146,
      "componentType": 5126,
      "count": 192,
      "type": "VEC2"
    },
    {
      "bufferView": 147,
      "componentType": 5126,
      "count": 24,
      "max": [
        1.9559109210968018,
        2.18398118019104,
        0.1469571888446808
      ],
      "min": [
        -1.955896258354187,
        -1.1094951624102123e-08,
        -0.14695726335048676
      ],
      "type": "VEC3"
    },
    {
      "bufferView": 148,
      "componentType": 5126,
      "count": 24,
      "type": "VEC3"
    },
    {
      "bufferView": 149,
      "componentType": 5126,
      "count": 24,
      "type": "VEC2"
    },
    {
      "bufferView": 150,
      "componentType": 5126,
      "count": 192,
      "max": [
        2.1490936279296875,
        2.37178373336792,
        0.2028508186340332
      ],
      "min": [
        -2.1722044944763184,
        -0.006294977385550737,
        -0.2028513103723526
      ],
      "type": "VEC3"
    },
    {
      "bufferView": 151,
      "componentType": 5126,
      "count": 192,
      "type": "VEC3"
    },
    {
      "bufferView": 152,
      "componentType": 5126,
      "count": 192,
      "type": "VEC2"
    },
    {
      "bufferView": 153,
      "componentType": 5126,
      "count": 48,
      "max": [
        1.948052167892456,
        2.1902761459350586,
        0.1469561755657196
      ],
      "min": [
        -1.9637551307678223,
        0.006294953636825085,
        -0.14695827662944794
      ],
      "type": "VEC3"
    },
    {
      "bufferView": 154,
      "componentType": 5126,
      "count": 48,
      "type": "VEC3"
    },
    {
      "bufferView": 155,
      "componentType": 5126,
      "count": 48,
      "type": "VEC2"
    },
    {
      "bufferView": 156,
      "componentType": 5123,
      "count": 84,
      "type": "SCALAR"
    },
    {
      "bufferView": 157,
      "componentType": 5126,
      "count": 750,
      "max": [
        2.141234874725342,
        2.3780786991119385,
        0.20284980535507202
      ],
      "min": [
        -2.180063009262085,
        -0.0025844681076705456,
        -0.20285232365131378
      ],
      "type": "VEC3"
    },
    {
      "bufferView": 158,
      "componentType": 5126,
      "count": 750,
      "type": "VEC3"
    },
    {
      "bufferView": 159,
      "componentType": 5126,
      "count": 750,
      "type": "VEC2"
    },
    {
      "bufferView": 160,
      "componentType": 5123,
      "count": 1344,
      "type": "SCALAR"
    }
  ],
  "bufferViews": [
    {
      "buffer": 0,
      "byteLength": 23136,
      "byteOffset": 0,
      "target": 34962
    },
    {
      "buffer": 0,
      "byteLength": 23136,
      "byteOffset": 23136,
      "target": 34962
    },
    {
      "buffer": 0,
      "byteLength": 15424,
      "byteOffset": 46272,
      "target": 34962
    },
    {
      "buffer": 0,
      "byteLength": 6288,
      "byteOffset": 61696,
      "target": 34963
    },
    {
      "buffer": 0,
      "byteLength": 3744,
      "byteOffset": 67984,
      "target": 34962
    },
    {
      "buffer": 0,
      "byteLength": 3744,
      "byteOffset": 71728,
      "target": 34962
    },
    {
      "buffer": 0,
      "byteLength": 2496,
      "byteOffset": 75472,
      "target": 34962
    },
    {
      "buffer": 0,
      "byteLength": 1440,
      "byteOffset": 77968,
      "target": 34963
    },
    {
      "buffer": 0,
      "byteLength": 23136,
      "byteOffset": 79408,
      "target": 34962
    },
    {
      "buffer": 0,
      "byteLength": 23136,
      "byteOffset": 102544,
      "target": 34962
    },
    {
      "buffer": 0,
      "byteLength": 15424,
      "byteOffset": 125680,
      "target": 34962
    },
    {
      "buffer": 0,
      "byteLength": 3744,
      "byteOffset": 141104,
      "target": 34962
    },
    {
      "buffer": 0,
      "byteLength": 3744,
      "byteOffset": 144848,
      "target": 34962
    },
    {
      "buffer": 0,
      "byteLength": 2496,
      "byteOffset": 148592,
      "target": 34962
    },
    {
      "buffer": 0,
      "byteLength": 23136,
      "byteOffset": 151088,
      "target": 34962
    },
    {
      "buffer": 0,
      "byteLength": 23136,
      "byteOffset": 174224,
      "target": 34962
    },
    {
      "buffer": 0,
      "byteLength": 15424,
      "byteOffset": 197360,
      "target": 34962
    },
    {
      "buffer": 0,
      "byteLength": 3744,
      "byteOffset": 212784,
      "target": 34962
    },
    {
      "buffer": 0,
      "byteLength": 3744,
      "byteOffset": 216528,
      "target": 34962
    },
    {
      "buffer": 0,
      "byteLength": 2496,
      "byteOffset": 220272,
      "target": 34962
    },
    {
      "buffer": 0,
      "byteLength": 23136,
      "byteOffset": 222768,
      "target": 34962
    },
    {
      "buffer": 0,
      "byteLength": 23136,
      "byteOffset": 245904,
      "target": 34962
    },
    {
      "buffer": 0,
      "byteLength": 15424,
      "byteOffset": 269040,
      "target": 34962
    },
    {
      "buffer": 0,
      "byteLength": 3744,
      "byteOffset": 284464,
      "target": 34962
    },
    {
      "buffer": 0,
      "byteLength": 3744,
      "byteOffset": 288208,
      "target": 34962
    },
    {
      "buffer": 0,
      "byteLength": 2496,
      "byteOffset": 291952,
      "target": 34962
    },
    {
      "buffer": 0,
      "byteLength": 23136,
      "byteOffset": 294448,
      "target": 34962
    },
    {
      "buffer": 0,
      "byteLength": 23136,
      "byteOffset": 317584,
      "target": 34962
    },
    {
      "buffer": 0,
      "byteLength": 15424,
      "byteOffset": 340720,
      "target": 34962
    },
    {
      "buffer": 0,
      "byteLength": 3744,
      "byteOffset": 356144,
      "target": 34962
    },
    {
      "buffer": 0,
      "byteLength": 3744,
      "byteOffset": 359888,
      "target": 34962
    },
    {
      "buffer": 0,
      "byteLength": 2496,
      "byteOffset": 363632,
      "target": 34962
    },
    {
      "buffer": 0,
      "byteLength": 23136,
      "byteOffset": 366128,
      "target": 34962
    },
    {
      "buffer": 0,
      "byteLength": 23136,
      "byteOffset": 389264,
      "target": 34962
    },
    {
      "buffer": 0,
      "byteLength": 15424,
      "byteOffset": 412400,
      "target": 34962
    },
    {
      "buffer": 0,
      "byteLength": 3744,
      "byteOffset": 427824,
      "target": 34962
    },
    {
      "buffer": 0,
      "byteLength": 3744,
      "byteOffset": 431568,
      "target": 34962
    },
    {
      "buffer": 0,
      "byteLength": 2496,
      "byteOffset": 435312,
      "target": 34962
    },
    {
      "buffer": 0,
      "byteLength": 23136,
      "byteOffset": 437808,
      "target": 34962
    },
    {
      "buffer": 0,
      "byteLength": 23136,
      "byteOffset": 460944,
      "target": 34962
    },
    {
      "buffer": 0,
      "byteLength": 15424,
      "byteOffset": 484080,
      "target": 34962
    },
    {
      "buffer": 0,
      "byteLength": 3744,
      "byteOffset": 499504,
      "target": 34962
    },
    {
      "buffer": 0,
      "byteLength": 3744,
      "byteOffset": 503248,
      "target": 34962
    },
    {
      "buffer": 0,
      "byteLength": 2496,
      "byteOffset": 506992,
      "target": 34962
    },
    {
      "buffer": 0,
      "byteLength": 23136,
      "byteOffset": 509488,
      "target": 34962
    },
    {
      "buffer": 0,
      "byteLength": 23136,
      "byteOffset": 532624,
      "target": 34962
    },
    {
      "buffer": 0,
      "byteLength": 15424,
      "byteOffset": 555760,
      "target": 34962
    },
    {
      "buffer": 0,
      "byteLength": 3744,
      "byteOffset": 571184,
      "target": 34962
    },
    {
      "buffer": 0,
      "byteLength": 3744,
      "byteOffset": 574928,
      "target": 34962
    },
    {
      "buffer": 0,
      "byteLength": 2496,
      "byteOffset": 578672,
      "target": 34962
    },
    {
      "buffer": 0,
      "byteLength": 23136,
      "byteOffset": 581168,
      "target": 34962
    },
    {
      "buffer": 0,
      "byteLength": 23136,
      "byteOffset": 604304,
      "target": 34962
    },
    {
      "buffer": 0,
      "byteLength": 15424,
      "byteOffset": 627440,
      "target": 34962
    },
    {
      "buffer": 0,
      "byteLength": 3744,
      "byteOffset": 642864,
      "target": 34962
    },
    {
      "buffer": 0,
      "byteLength": 3744,
      "byteOffset": 646608,
      "target": 34962
    },
    {
      "buffer": 0,
      "byteLength": 2496,
      "byteOffset": 650352,
      "target": 34962
    },
    {
      "buffer": 0,
      "byteLength": 15648,
      "byteOffset": 652848,
      "target": 34962
    },
    {
      "buffer": 0,
      "byteLength": 15648,
      "byteOffset": 668496,
      "target": 34962
    },
    {
      "buffer": 0,
      "byteLength": 10432,
      "byteOffset": 684144,
      "target": 34962
    },
    {
      "buffer": 0,
      "byteLength": 3960,
      "byteOffset": 694576,
      "target": 34963
    },
    {
      "buffer": 0,
      "byteLength": 1872,
      "byteOffset": 698536,
      "target": 34962
    },
    {
      "buffer": 0,
      "byteLength": 1872,
      "byteOffset": 700408,
      "target": 34962
    },
    {
      "buffer": 0,
      "byteLength": 1248,
      "byteOffset": 702280,
      "target": 34962
    },
    {
      "buffer": 0,
      "byteLength": 720,
      "byteOffset": 703528,
      "target": 34963
    },
    {
      "buffer": 0,
      "byteLength": 15648,
      "byteOffset": 704248,
      "target": 34962
    },
    {
      "buffer": 0,
      "byteLength": 15648,
      "byteOffset": 719896,
      "target": 34962
    },
    {
      "buffer": 0,
      "byteLength": 10432,
      "byteOffset": 735544,
      "target": 34962
    },
    {
      "buffer": 0,
      "byteLength": 1872,
      "byteOffset": 745976,
      "target": 34962
    },
    {
      "buffer": 0,
      "byteLength": 1872,
      "byteOffset": 747848,
      "target": 34962
    },
    {
      "buffer": 0,
      "byteLength": 1248,
      "byteOffset": 749720,
      "target": 34962
    },
    {
      "buffer": 0,
      "byteLength": 15648,
      "byteOffset": 750968,
      "target": 34962
    },
    {
      "buffer": 0,
      "byteLength": 15648,
      "byteOffset": 766616,
      "target": 34962
    },
    {
      "buffer": 0,
      "byteLength": 10432,
      "byteOffset": 782264,
      "target": 34962
    },
    {
      "buffer": 0,
      "byteLength": 1872,
      "byteOffset": 792696,
      "target": 34962
    },
    {
      "buffer": 0,
      "byteLength": 1872,
      "byteOffset": 794568,
      "target": 34962
    },
    {
      "buffer": 0,
      "byteLength": 1248,
      "byteOffset": 796440,
      "target": 34962
    },
    {
      "buffer": 0,
      "byteLength": 4896,
      "byteOffset": 797688,
      "target": 34962
    },
    {
      "buffer": 0,
      "byteLength": 4896,
      "byteOffset": 802584,
      "target": 34962
    },
    {
      "buffer": 0,
      "byteLength": 3264,
      "byteOffset": 807480,
      "target": 34962
    },
    {
      "buffer": 0,
      "byteLength": 1224,
      "byteOffset": 810744,
      "target": 34963
    },
    {
      "buffer": 0,
      "byteLength": 1188,
      "byteOffset": 811968,
      "target": 34962
    },
    {
      "buffer": 0,
      "byteLength": 1188,
      "byteOffset": 813156,
      "target": 34962
    },
    {
      "buffer": 0,
      "byteLength": 792,
      "byteOffset": 814344,
      "target": 34962
    },
    {
      "buffer": 0,
      "byteLength": 960,
      "byteOffset": 815136,
      "target": 34963
    },
    {
      "buffer": 0,
      "byteLength": 8880,
      "byteOffset": 816096,
      "target": 34962
    },
    {
      "buffer": 0,
      "byteLength": 8880,
      "byteOffset": 824976,
      "target": 34962
    },
    {
      "buffer": 0,
      "byteLength": 5920,
      "byteOffset": 833856,
      "target": 34962
    },
    {
      "buffer": 0,
      "byteLength": 3072,
      "byteOffset": 839776,
      "target": 34963
    },
    {
      "buffer": 0,
      "byteLength": 8880,
      "byteOffset": 842848,
      "target": 34962
    },
    {
      "buffer": 0,
      "byteLength": 8880,
      "byteOffset": 851728,
      "target": 34962
    },
    {
      "buffer": 0,
      "byteLength": 5920,
      "byteOffset": 860608,
      "target": 34962
    },
    {
      "buffer": 0,
      "byteLength": 9696,
      "byteOffset": 866528,
      "target": 34962
    },
    {
      "buffer": 0,
      "byteLength": 9696,
      "byteOffset": 876224,
      "target": 34962
    },
    {
      "buffer": 0,
      "byteLength": 6464,
      "byteOffset": 885920,
      "target": 34962
    },
    {
      "buffer": 0,
      "byteLength": 3072,
      "byteOffset": 892384,
      "target": 34963
    },
    {
      "buffer": 0,
      "byteLength": 9696,
      "byteOffset": 895456,
      "target": 34962
    },
    {
      "buffer": 0,
      "byteLength": 9696,
      "byteOffset": 905152,
      "target": 34962
    },
    {
      "buffer": 0,
      "byteLength": 6464,
      "byteOffset": 914848,
      "target": 34962
    },
    {
      "buffer": 0,
      "byteLength": 240,
      "byteOffset": 921312,
      "target": 34962
    },
    {
      "buffer": 0,
      "byteLength": 240,
      "byteOffset": 921552,
      "target": 34962
    },
    {
      "buffer": 0,
      "byteLength": 160,
      "byteOffset": 921792,
      "target": 34962
    },
    {
      "buffer": 0,
      "byteLength": 60,
      "byteOffset": 921952,
      "target": 34963
    },
    {
      "buffer": 0,
      "byteLength": 1920,
      "byteOffset": 922012,
      "target": 34962
    },
    {
      "buffer": 0,
      "byteLength": 1920,
      "byteOffset": 923932,
      "target": 34962
    },
    {
      "buffer": 0,
      "byteLength": 1280,
      "byteOffset": 925852,
      "target": 34962
    },
    {
      "buffer": 0,
      "byteLength": 624,
      "byteOffset": 927132,
      "target": 34963
    },
    {
      "buffer": 0,
      "byteLength": 240,
      "byteOffset": 927756,
      "target": 34962
    },
    {
      "buffer": 0,
      "byteLength": 240,
      "byteOffset": 927996,
      "target": 34962
    },
    {
      "buffer": 0,
      "byteLength": 160,
      "byteOffset": 928236,
      "target": 34962
    },
    {
      "buffer": 0,
      "byteLength": 1920,
      "byteOffset": 928396,
      "target": 34962
    },
    {
      "buffer": 0,
      "byteLength": 1920,
      "byteOffset": 930316,
      "target": 34962
    },
    {
      "buffer": 0,
      "byteLength": 1280,
      "byteOffset": 932236,
      "target": 34962
    },
    {
      "buffer": 0,
      "byteLength": 768,
      "byteOffset": 933516,
      "target": 34962
    },
    {
      "buffer": 0,
      "byteLength": 768,
      "byteOffset": 934284,
      "target": 34962
    },
    {
      "buffer": 0,
      "byteLength": 512,
      "byteOffset": 935052,
      "target": 34962
    },
    {
      "buffer": 0,
      "byteLength": 264,
      "byteOffset": 935564,
      "target": 34963
    },
    {
      "buffer": 0,
      "byteLength": 768,
      "byteOffset": 935828,
      "target": 34962
    },
    {
      "buffer": 0,
      "byteLength": 768,
      "byteOffset": 936596,
      "target": 34962
    },
    {
      "buffer": 0,
      "byteLength": 512,
      "byteOffset": 937364,
      "target": 34962
    },
    {
      "buffer": 0,
      "byteLength": 6720,
      "byteOffset": 937876,
      "target": 34962
    },
    {
      "buffer": 0,
      "byteLength": 6720,
      "byteOffset": 944596,
      "target": 34962
    },
    {
      "buffer": 0,
      "byteLength": 4480,
      "byteOffset": 951316,
      "target": 34962
    },
    {
      "buffer": 0,
      "byteLength": 2184,
      "byteOffset": 955796,
      "target": 34963
    },
    {
      "buffer": 0,
      "byteLength": 1008,
      "byteOffset": 957980,
      "target": 34962
    },
    {
      "buffer": 0,
      "byteLength": 1008,
      "byteOffset": 958988,
      "target": 34962
    },
    {
      "buffer": 0,
      "byteLength": 672,
      "byteOffset": 959996,
      "target": 34962
    },
    {
      "buffer": 0,
      "byteLength": 240,
      "byteOffset": 960668,
      "target": 34963
    },
    {
      "buffer": 0,
      "byteLength": 6720,
      "byteOffset": 960908,
      "target": 34962
    },
    {
      "buffer": 0,
      "byteLength": 6720,
      "byteOffset": 967628,
      "target": 34962
    },
    {
      "buffer": 0,
      "byteLength": 4480,
      "byteOffset": 974348,
      "target": 34962
    },
    {
      "buffer": 0,
      "byteLength": 1008,
      "byteOffset": 978828,
      "target": 34962
    },
    {
      "buffer": 0,
      "byteLength": 1008,
      "byteOffset": 979836,
      "target": 34962
    },
    {
      "buffer": 0,
      "byteLength": 672,
      "byteOffset": 980844,
      "target": 34962
    },
    {
      "buffer": 0,
      "byteLength": 288,
      "byteOffset": 981516,
      "target": 34962
    },
    {
      "buffer": 0,
      "byteLength": 288,
      "byteOffset": 981804,
      "target": 34962
    },
    {
      "buffer": 0,
      "byteLength": 192,
      "byteOffset": 982092,
      "target": 34962
    },
    {
      "buffer": 0,
      "byteLength": 72,
      "byteOffset": 982284,
      "target": 34963
    },
    {
      "buffer": 0,
      "byteLength": 2304,
      "byteOffset": 982356,
      "target": 34962
    },
    {
      "buffer": 0,
      "byteLength": 2304,
      "byteOffset": 984660,
      "target": 34962
    },
    {
      "buffer": 0,
      "byteLength": 1536,
      "byteOffset": 986964,
      "target": 34962
    },
    {
      "buffer": 0,
      "byteLength": 840,
      "byteOffset": 988500,
      "target": 34963
    },
    {
      "buffer": 0,
      "byteLength": 288,
      "byteOffset": 989340,
      "target": 34962
    },
    {
      "buffer": 0,
      "byteLength": 288,
      "byteOffset": 989628,
      "target": 34962
    },
    {
      "buffer": 0,
      "byteLength": 192,
      "byteOffset": 989916,
      "target": 34962
    },
    {
      "buffer": 0,
      "byteLength": 2304,
      "byteOffset": 990108,
      "target": 34962
    },
    {
      "buffer": 0,
      "byteLength": 2304,
      "byteOffset": 992412,
      "target": 34962
    },
    {
      "buffer": 0,
      "byteLength": 1536,
      "byteOffset": 994716,
      "target": 34962
    },
    {
      "buffer": 0,
      "byteLength": 288,
      "byteOffset": 996252,
      "target": 34962
    },
    {
      "buffer": 0,
      "byteLength": 288,
      "byteOffset": 996540,
      "target": 34962
    },
    {
      "buffer": 0,
      "byteLength": 192,
      "byteOffset": 996828,
      "target": 34962
    },
    {
      "buffer": 0,
      "byteLength": 2304,
      "byteOffset": 997020,
      "target": 34962
    },
    {
      "buffer": 0,
      "byteLength": 2304,
      "byteOffset": 999324,
      "target": 34962
    },
    {
      "buffer": 0,
      "byteLength": 1536,
      "byteOffset": 1001628,
      "target": 34962
    },
    {
      "buffer": 0,
      "byteLength": 576,
      "byteOffset": 1003164,
      "target": 34962
    },
    {
      "buffer": 0,
      "byteLength": 576,
      "byteOffset": 1003740,
      "target": 34962
    },
    {
      "buffer": 0,
      "byteLength": 384,
      "byteOffset": 1004316,
      "target": 34962
    },
    {
      "buffer": 0,
      "byteLength": 168,
      "byteOffset": 1004700,
      "target": 34963
    },
    {
      "buffer": 0,
      "byteLength": 9000,
      "byteOffset": 1004868,
      "target": 34962
    },
    {
      "buffer": 0,
      "byteLength": 9000,
      "byteOffset": 1013868,
      "target": 34962
    },
    {
      "buffer": 0,
      "byteLength": 6000,
      "byteOffset": 1022868,
      "target": 34962
    },
    {
      "buffer": 0,
      "byteLength": 2688,
      "byteOffset": 1028868,
      "target": 34963
    }
  ],
  "samplers": [
    {
      "magFilter": 9729,
      "minFilter": 9987
    }
  ],
  "buffers": [
    {
      "byteLength": 1031556,
      "uri": "prebuild_fishing_house.bin"
    }
  ]
}