{
  "asset": {
    "generator": "Khronos glTF Blender I/O v5.2.39",
    "version": "2.0"
  },
  "scene": 0,
  "scenes": [
    {
      "name": "Scene",
      "nodes": [
        0
      ]
    }
  ],
  "nodes": [
    {
      "mesh": 0,
      "name": "Sqyare Tower Top Wood",
      "rotation": [
        0.7071068286895752,
        0,
        0,
        0.7071068286895752
      ],
      "scale": [
        0.009999999776482582,
        0.009999999776482582,
        0.009999999776482582
      ],
      "translation": [
        -0.001373291015625,
        1.1543807983398438,
        0
      ]
    }
  ],
  "materials": [
    {
      "doubleSided": true,
      "name": "Weathered Wood",
      "pbrMetallicRoughness": {
        "metallicFactor": 0.0,
        "roughnessFactor": 0.75,
        "baseColorTexture": {
          "index": 0
        }
      }
    },
    {
      "doubleSided": true,
      "name": "Metal Black Rough",
      "pbrMetallicRoughness": {
        "baseColorTexture": {
          "index": 1
        },
        "metallicFactor": 0.0,
        "roughnessFactor": 0.75
      }
    }
  ],
  "meshes": [
    {
      "name": "Cube.076",
      "primitives": [
        {
          "attributes": {
            "POSITION": 0,
            "NORMAL": 1,
            "TEXCOORD_0": 2
          },
          "indices": 3,
          "material": 0
        },
        {
          "attributes": {
            "POSITION": 4,
            "NORMAL": 5,
            "TEXCOORD_0": 6
          },
          "indices": 7,
          "material": 1
        }
      ]
    }
  ],
  "textures": [
    {
      "source": 0
    },
    {
      "source": 1
    }
  ],
  "images": [
    {
      "uri": "textures/wood_weather_color.png"
    },
    {
      "uri": "textures/metal_rough_color.png"
    }
  ],
  "accessors": [
    {
      "bufferView": 0,
      "componentType": 5126,
      "count": 6048,
      "max": [
        340.24652099609375,
        352.10430908203125,
        115.4380111694336
      ],
      "min": [
        -340.2515563964844,
        -352.1042785644531,
        -22.145343780517578
      ],
      "type": "VEC3"
    },
    {
      "bufferView": 1,
      "componentType": 5126,
      "count": 6048,
      "type": "VEC3"
    },
    {
      "bufferView": 2,
      "componentType": 5126,
      "count": 6048,
      "type": "VEC2"
    },
    {
      "bufferView": 3,
      "componentType": 5123,
      "count": 9072,
      "type": "SCALAR"
    },
    {
      "bufferView": 4,
      "componentType": 5126,
      "count": 736,
      "max": [
        342.3144836425781,
        322.8525085449219,
        104.16905975341797
      ],
      "min": [
        -342.04559326171875,
        -322.67156982421875,
        -17.01434898376465
      ],
      "type": "VEC3"
    },
    {
      "bufferView": 5,
      "componentType": 5126,
      "count": 736,
      "type": "VEC3"
    },
    {
      "bufferView": 6,
      "componentType": 5126,
      "count": 736,
      "type": "VEC2"
    },
    {
      "bufferView": 7,
      "componentType": 5123,
      "count": 2304,
      "type": "SCALAR"
    }
  ],
  "bufferViews": [
    {
      "buffer": 0,
      "byteLength": 72576,
      "byteOffset": 0,
      "target": 34962
    },
    {
      "buffer": 0,
      "byteLength": 72576,
      "byteOffset": 72576,
      "target": 34962
    },
    {
      "buffer": 0,
      "byteLength": 48384,
      "byteOffset": 145152,
      "target": 34962
    },
    {
      "buffer": 0,
      "byteLength": 18144,
      "byteOffset": 193536,
      "target": 34963
    },
    {
      "buffer": 0,
      "byteLength": 8832,
      "byteOffset": 211680,
      "target": 34962
    },
    {
      "buffer": 0,
      "byteLength": 8832,
      "byteOffset": 220512,
      "target": 34962
    },
    {
      "buffer": 0,
      "byteLength": 5888,
      "byteOffset": 229344,
      "target": 34962
    },
    {
      "buffer": 0,
      "byteLength": 4608,
      "byteOffset": 235232,
      "target": 34963
    }
  ],
  "samplers": [
    {
      "magFilter": 9729,
      "minFilter": 9987
    }
  ],
  "buffers": [
    {
      "byteLength": 239840,
      "uri": "roof_square_wood.bin"
    }
  ]
}