{
  "asset": {
    "generator": "Khronos glTF Blender I/O v5.2.39",
    "version": "2.0"
  },
  "scene": 0,
  "scenes": [
    {
      "name": "Scene",
      "nodes": [
        0
      ]
    }
  ],
  "nodes": [
    {
      "mesh": 0,
      "name": "Round Tower Large No Interior",
      "rotation": [
        0.7071068286895752,
        0,
        0,
        0.7071068286895752
      ],
      "scale": [
        0.009999999776482582,
        0.009999999776482582,
        0.009999999776482582
      ],
      "translation": [
        3.0517578125e-05,
        0,
        0
      ]
    }
  ],
  "materials": [
    {
      "doubleSided": true,
      "name": "Stone Floor",
      "normalTexture": {
        "index": 1
      },
      "pbrMetallicRoughness": {
        "baseColorTexture": {
          "index": 0
        },
        "metallicFactor": 0.0,
        "roughnessFactor": 0.75
      }
    },
    {
      "doubleSided": true,
      "name": "Castle Wall",
      "normalTexture": {
        "index": 3
      },
      "pbrMetallicRoughness": {
        "baseColorTexture": {
          "index": 2
        },
        "metallicFactor": 0.0,
        "roughnessFactor": 0.75
      }
    },
    {
      "doubleSided": true,
      "name": "Weathered Wood",
      "pbrMetallicRoughness": {
        "metallicFactor": 0.0,
        "roughnessFactor": 0.75,
        "baseColorTexture": {
          "index": 4
        }
      }
    },
    {
      "doubleSided": true,
      "name": "Castle Wall No Rocks",
      "normalTexture": {
        "index": 6
      },
      "pbrMetallicRoughness": {
        "baseColorTexture": {
          "index": 5
        },
        "metallicFactor": 0.0,
        "roughnessFactor": 0.75
      }
    }
  ],
  "meshes": [
    {
      "name": "Cylinder.091",
      "primitives": [
        {
          "attributes": {
            "POSITION": 0,
            "NORMAL": 1,
            "TEXCOORD_0": 2
          },
          "indices": 3,
          "material": 0
        },
        {
          "attributes": {
            "POSITION": 4,
            "NORMAL": 5,
            "TEXCOORD_0": 6
          },
          "indices": 7,
          "material": 1
        },
        {
          "attributes": {
            "POSITION": 8,
            "NORMAL": 9,
            "TEXCOORD_0": 10
          },
          "indices": 11,
          "material": 2
        },
        {
          "attributes": {
            "POSITION": 12,
            "NORMAL": 13,
            "TEXCOORD_0": 14
          },
          "indices": 15,
          "material": 3
        }
      ]
    }
  ],
  "textures": [
    {
      "source": 0
    },
    {
      "source": 1
    },
    {
      "source": 2
    },
    {
      "source": 3
    },
    {
      "source": 4
    },
    {
      "source": 5
    },
    {
      "source": 6
    }
  ],
  "images": [
    {
      "uri": "textures/stone_floor_color.png"
    },
    {
      "uri": "textures/stone_floor_normal.png"
    },
    {
      "uri": "textures/castle_wall_color.png"
    },
    {
      "uri": "textures/castle_wall_normal.png"
    },
    {
      "uri": "textures/wood_weather_color.png"
    },
    {
      "uri": "textures/castle_wall_norocks_color.png"
    },
    {
      "uri": "textures/castle_wall_norocks_normal.png"
    }
  ],
  "accessors": [
    {
      "bufferView": 0,
      "componentType": 5126,
      "count": 2699,
      "max": [
        247.30792236328125,
        247.3096160888672,
        -17.095947265625
      ],
      "min": [
        -247.31130981445312,
        -247.3096160888672,
        -917.4112548828125
      ],
      "type": "VEC3"
    },
    {
      "bufferView": 1,
      "componentType": 5126,
      "count": 2699,
      "type": "VEC3"
    },
    {
      "bufferView": 2,
      "componentType": 5126,
      "count": 2699,
      "type": "VEC2"
    },
    {
      "bufferView": 3,
      "componentType": 5123,
      "count": 5670,
      "type": "SCALAR"
    },
    {
      "bufferView": 4,
      "componentType": 5126,
      "count": 381,
      "max": [
        299.5772399902344,
        299.57891845703125,
        0
      ],
      "min": [
        -299.58062744140625,
        -299.57891845703125,
        -1056.510009765625
      ],
      "type": "VEC3"
    },
    {
      "bufferView": 5,
      "componentType": 5126,
      "count": 381,
      "type": "VEC3"
    },
    {
      "bufferView": 6,
      "componentType": 5126,
      "count": 381,
      "type": "VEC2"
    },
    {
      "bufferView": 7,
      "componentType": 5123,
      "count": 1026,
      "type": "SCALAR"
    },
    {
      "bufferView": 8,
      "componentType": 5126,
      "count": 191,
      "max": [
        93.40184783935547,
        101.80134582519531,
        -17.55056381225586
      ],
      "min": [
        -17.743715286254883,
        -17.74212646484375,
        -1061.539794921875
      ],
      "type": "VEC3"
    },
    {
      "bufferView": 9,
      "componentType": 5126,
      "count": 191,
      "type": "VEC3"
    },
    {
      "bufferView": 10,
      "componentType": 5126,
      "count": 191,
      "type": "VEC2"
    },
    {
      "bufferView": 11,
      "componentType": 5123,
      "count": 570,
      "type": "SCALAR"
    },
    {
      "bufferView": 12,
      "componentType": 5126,
      "count": 4046,
      "max": [
        147.34156799316406,
        153.87615966796875,
        -1055.100341796875
      ],
      "min": [
        -153.3787078857422,
        -153.73973083496094,
        -1065.61083984375
      ],
      "type": "VEC3"
    },
    {
      "bufferView": 13,
      "componentType": 5126,
      "count": 4046,
      "type": "VEC3"
    },
    {
      "bufferView": 14,
      "componentType": 5126,
      "count": 4046,
      "type": "VEC2"
    },
    {
      "bufferView": 15,
      "componentType": 5123,
      "count": 9588,
      "type": "SCALAR"
    }
  ],
  "bufferViews": [
    {
      "buffer": 0,
      "byteLength": 32388,
      "byteOffset": 0,
      "target": 34962
    },
    {
      "buffer": 0,
      "byteLength": 32388,
      "byteOffset": 32388,
      "target": 34962
    },
    {
      "buffer": 0,
      "byteLength": 21592,
      "byteOffset": 64776,
      "target": 34962
    },
    {
      "buffer": 0,
      "byteLength": 11340,
      "byteOffset": 86368,
      "target": 34963
    },
    {
      "buffer": 0,
      "byteLength": 4572,
      "byteOffset": 97708,
      "target": 34962
    },
    {
      "buffer": 0,
      "byteLength": 4572,
      "byteOffset": 102280,
      "target": 34962
    },
    {
      "buffer": 0,
      "byteLength": 3048,
      "byteOffset": 106852,
      "target": 34962
    },
    {
      "buffer": 0,
      "byteLength": 2052,
      "byteOffset": 109900,
      "target": 34963
    },
    {
      "buffer": 0,
      "byteLength": 2292,
      "byteOffset": 111952,
      "target": 34962
    },
    {
      "buffer": 0,
      "byteLength": 2292,
      "byteOffset": 114244,
      "target": 34962
    },
    {
      "buffer": 0,
      "byteLength": 1528,
      "byteOffset": 116536,
      "target": 34962
    },
    {
      "buffer": 0,
      "byteLength": 1140,
      "byteOffset": 118064,
      "target": 34963
    },
    {
      "buffer": 0,
      "byteLength": 48552,
      "byteOffset": 119204,
      "target": 34962
    },
    {
      "buffer": 0,
      "byteLength": 48552,
      "byteOffset": 167756,
      "target": 34962
    },
    {
      "buffer": 0,
      "byteLength": 32368,
      "byteOffset": 216308,
      "target": 34962
    },
    {
      "buffer": 0,
      "byteLength": 19176,
      "byteOffset": 248676,
      "target": 34963
    }
  ],
  "samplers": [
    {
      "magFilter": 9729,
      "minFilter": 9987
    }
  ],
  "buffers": [
    {
      "byteLength": 267852,
      "uri": "tower_round.bin"
    }
  ]
}