{
  "asset": {
    "generator": "Khronos glTF Blender I/O v5.2.39",
    "version": "2.0"
  },
  "scene": 0,
  "scenes": [
    {
      "name": "Scene",
      "nodes": [
        0
      ]
    }
  ],
  "nodes": [
    {
      "mesh": 0,
      "name": "White Wall Roof Small",
      "rotation": [
        0.7071068286895752,
        0,
        0,
        0.7071068286895752
      ],
      "scale": [
        0.009999999776482582,
        0.009999999776482582,
        0.009999999776482582
      ],
      "translation": [
        0.0010223388671875,
        0.10820308327674866,
        -0.05895042419433594
      ]
    }
  ],
  "materials": [
    {
      "doubleSided": true,
      "name": "Weathered Wood",
      "pbrMetallicRoughness": {
        "baseColorTexture": {
          "index": 0
        },
        "metallicFactor": 0.0,
        "roughnessFactor": 0.75
      }
    },
    {
      "doubleSided": true,
      "name": "Plastered Wall",
      "pbrMetallicRoughness": {
        "baseColorTexture": {
          "index": 1
        },
        "metallicFactor": 0.0,
        "roughnessFactor": 0.75
      }
    },
    {
      "doubleSided": true,
      "name": "Roof Circle",
      "normalTexture": {
        "index": 3
      },
      "pbrMetallicRoughness": {
        "baseColorTexture": {
          "index": 2
        },
        "metallicFactor": 0.0,
        "roughnessFactor": 0.75
      }
    }
  ],
  "meshes": [
    {
      "name": "Cube.056",
      "primitives": [
        {
          "attributes": {
            "POSITION": 0,
            "NORMAL": 1,
            "TEXCOORD_0": 2
          },
          "indices": 3,
          "material": 0
        },
        {
          "attributes": {
            "POSITION": 4,
            "NORMAL": 5,
            "TEXCOORD_0": 6
          },
          "indices": 7,
          "material": 1
        },
        {
          "attributes": {
            "POSITION": 8,
            "NORMAL": 9,
            "TEXCOORD_0": 10
          },
          "indices": 11,
          "material": 2
        }
      ]
    }
  ],
  "textures": [
    {
      "source": 0
    },
    {
      "source": 1
    },
    {
      "source": 2
    },
    {
      "source": 3
    }
  ],
  "images": [
    {
      "uri": "textures/wood_weather_color.png"
    },
    {
      "uri": "textures/plaster_color.png"
    },
    {
      "uri": "textures/roof_round_color.png"
    },
    {
      "uri": "textures/roof_round_normal.png"
    }
  ],
  "accessors": [
    {
      "bufferView": 0,
      "componentType": 5126,
      "count": 1999,
      "max": [
        131.97940063476562,
        191.98782348632812,
        10.820293426513672
      ],
      "min": [
        -132.1824188232422,
        -180.19776916503906,
        -315.6299743652344
      ],
      "type": "VEC3"
    },
    {
      "bufferView": 1,
      "componentType": 5126,
      "count": 1999,
      "type": "VEC3"
    },
    {
      "bufferView": 2,
      "componentType": 5126,
      "count": 1999,
      "type": "VEC2"
    },
    {
      "bufferView": 3,
      "componentType": 5123,
      "count": 3312,
      "type": "SCALAR"
    },
    {
      "bufferView": 4,
      "componentType": 5126,
      "count": 52,
      "max": [
        100.18136596679688,
        180.68963623046875,
        0.11034011840820312
      ],
      "min": [
        -100.0615463256836,
        -179.689697265625,
        -305.24017333984375
      ],
      "type": "VEC3"
    },
    {
      "bufferView": 5,
      "componentType": 5126,
      "count": 52,
      "type": "VEC3"
    },
    {
      "bufferView": 6,
      "componentType": 5126,
      "count": 52,
      "type": "VEC2"
    },
    {
      "bufferView": 7,
      "componentType": 5123,
      "count": 75,
      "type": "SCALAR"
    },
    {
      "bufferView": 8,
      "componentType": 5126,
      "count": 2356,
      "max": [
        114.8882064819336,
        180.6897430419922,
        -190.42874145507812
      ],
      "min": [
        -113.06482696533203,
        -179.689697265625,
        -304.54205322265625
      ],
      "type": "VEC3"
    },
    {
      "bufferView": 9,
      "componentType": 5126,
      "count": 2356,
      "type": "VEC3"
    },
    {
      "bufferView": 10,
      "componentType": 5126,
      "count": 2356,
      "type": "VEC2"
    },
    {
      "bufferView": 11,
      "componentType": 5123,
      "count": 3540,
      "type": "SCALAR"
    }
  ],
  "bufferViews": [
    {
      "buffer": 0,
      "byteLength": 23988,
      "byteOffset": 0,
      "target": 34962
    },
    {
      "buffer": 0,
      "byteLength": 23988,
      "byteOffset": 23988,
      "target": 34962
    },
    {
      "buffer": 0,
      "byteLength": 15992,
      "byteOffset": 47976,
      "target": 34962
    },
    {
      "buffer": 0,
      "byteLength": 6624,
      "byteOffset": 63968,
      "target": 34963
    },
    {
      "buffer": 0,
      "byteLength": 624,
      "byteOffset": 70592,
      "target": 34962
    },
    {
      "buffer": 0,
      "byteLength": 624,
      "byteOffset": 71216,
      "target": 34962
    },
    {
      "buffer": 0,
      "byteLength": 416,
      "byteOffset": 71840,
      "target": 34962
    },
    {
      "buffer": 0,
      "byteLength": 150,
      "byteOffset": 72256,
      "target": 34963
    },
    {
      "buffer": 0,
      "byteLength": 28272,
      "byteOffset": 72408,
      "target": 34962
    },
    {
      "buffer": 0,
      "byteLength": 28272,
      "byteOffset": 100680,
      "target": 34962
    },
    {
      "buffer": 0,
      "byteLength": 18848,
      "byteOffset": 128952,
      "target": 34962
    },
    {
      "buffer": 0,
      "byteLength": 7080,
      "byteOffset": 147800,
      "target": 34963
    }
  ],
  "samplers": [
    {
      "magFilter": 9729,
      "minFilter": 9987
    }
  ],
  "buffers": [
    {
      "byteLength": 154880,
      "uri": "wall_roof_small.bin"
    }
  ]
}