{
    "asset" : {
        "generator" : "Khronos glTF Blender I/O v3.4.50",
        "version" : "2.0"
    },
    "scene" : 0,
    "scenes" : [
        {
            "name" : "Scene",
            "nodes" : [
                1
            ]
        }
    ],
    "nodes" : [
        {
            "mesh" : 0,
            "name" : "fishing_tacklebox_lid",
            "translation" : [
                0,
                0.2767820358276367,
                -0.23976993560791016
            ]
        },
        {
            "children" : [
                0
            ],
            "mesh" : 1,
            "name" : "fishing_tacklebox"
        }
    ],
    "materials" : [
        {
            "name" : "tools",
            "pbrMetallicRoughness" : {
                "baseColorTexture" : {
                    "index" : 0
                },
                "metallicFactor" : 0,
                "roughnessFactor" : 0.5
            }
        }
    ],
    "meshes" : [
        {
            "name" : "fishing_tacklebox_lid",
            "primitives" : [
                {
                    "attributes" : {
                        "POSITION" : 0,
                        "TEXCOORD_0" : 1,
                        "NORMAL" : 2
                    },
                    "indices" : 3,
                    "material" : 0
                }
            ]
        },
        {
            "name" : "fishing_tacklebox",
            "primitives" : [
                {
                    "attributes" : {
                        "POSITION" : 4,
                        "TEXCOORD_0" : 5,
                        "NORMAL" : 6
                    },
                    "indices" : 7,
                    "material" : 0
                }
            ]
        }
    ],
    "textures" : [
        {
            "sampler" : 0,
            "source" : 0
        }
    ],
    "images" : [
        {
            "mimeType" : "image/png",
            "name" : "tools_bits_texture",
            "uri" : "tools_bits_texture.png"
        }
    ],
    "accessors" : [
        {
            "bufferView" : 0,
            "componentType" : 5126,
            "count" : 1197,
            "max" : [
                0.479539692401886,
                0.22439730167388916,
                0.5251966118812561
            ],
            "min" : [
                -0.479539692401886,
                -0.07413405179977417,
                -0.03333410620689392
            ],
            "type" : "VEC3"
        },
        {
            "bufferView" : 1,
            "componentType" : 5126,
            "count" : 1197,
            "type" : "VEC2"
        },
        {
            "bufferView" : 2,
            "componentType" : 5126,
            "count" : 1197,
            "type" : "VEC3"
        },
        {
            "bufferView" : 3,
            "componentType" : 5123,
            "count" : 2808,
            "type" : "SCALAR"
        },
        {
            "bufferView" : 4,
            "componentType" : 5126,
            "count" : 1411,
            "max" : [
                0.4797302782535553,
                0.3947638273239136,
                0.273661345243454
            ],
            "min" : [
                -0.4797302782535553,
                0,
                -0.23006172478199005
            ],
            "type" : "VEC3"
        },
        {
            "bufferView" : 5,
            "componentType" : 5126,
            "count" : 1411,
            "type" : "VEC2"
        },
        {
            "bufferView" : 6,
            "componentType" : 5126,
            "count" : 1411,
            "type" : "VEC3"
        },
        {
            "bufferView" : 7,
            "componentType" : 5123,
            "count" : 2937,
            "type" : "SCALAR"
        }
    ],
    "bufferViews" : [
        {
            "buffer" : 0,
            "byteLength" : 14364,
            "byteOffset" : 0,
            "target" : 34962
        },
        {
            "buffer" : 0,
            "byteLength" : 9576,
            "byteOffset" : 14364,
            "target" : 34962
        },
        {
            "buffer" : 0,
            "byteLength" : 14364,
            "byteOffset" : 23940,
            "target" : 34962
        },
        {
            "buffer" : 0,
            "byteLength" : 5616,
            "byteOffset" : 38304,
            "target" : 34963
        },
        {
            "buffer" : 0,
            "byteLength" : 16932,
            "byteOffset" : 43920,
            "target" : 34962
        },
        {
            "buffer" : 0,
            "byteLength" : 11288,
            "byteOffset" : 60852,
            "target" : 34962
        },
        {
            "buffer" : 0,
            "byteLength" : 16932,
            "byteOffset" : 72140,
            "target" : 34962
        },
        {
            "buffer" : 0,
            "byteLength" : 5874,
            "byteOffset" : 89072,
            "target" : 34963
        }
    ],
    "samplers" : [
        {
            "magFilter" : 9729,
            "minFilter" : 9987
        }
    ],
    "buffers" : [
        {
            "byteLength" : 94948,
            "uri" : "fishing_tacklebox.bin"
        }
    ]
}
