{
    "asset" : {
        "generator" : "Khronos glTF Blender I/O v3.4.50",
        "version" : "2.0"
    },
    "scene" : 0,
    "scenes" : [
        {
            "name" : "Scene",
            "nodes" : [
                1
            ]
        }
    ],
    "nodes" : [
        {
            "mesh" : 0,
            "name" : "fishing_tacklebox_empty_lid",
            "translation" : [
                0,
                0.2767820358276367,
                -0.23976993560791016
            ]
        },
        {
            "children" : [
                0
            ],
            "mesh" : 1,
            "name" : "fishing_tacklebox_empty"
        }
    ],
    "materials" : [
        {
            "name" : "tools",
            "pbrMetallicRoughness" : {
                "baseColorTexture" : {
                    "index" : 0
                },
                "metallicFactor" : 0,
                "roughnessFactor" : 0.5
            }
        }
    ],
    "meshes" : [
        {
            "name" : "fishing_tacklebox_empty_lid",
            "primitives" : [
                {
                    "attributes" : {
                        "POSITION" : 0,
                        "TEXCOORD_0" : 1,
                        "NORMAL" : 2
                    },
                    "indices" : 3,
                    "material" : 0
                }
            ]
        },
        {
            "name" : "fishing_tacklebox_empty",
            "primitives" : [
                {
                    "attributes" : {
                        "POSITION" : 4,
                        "TEXCOORD_0" : 5,
                        "NORMAL" : 6
                    },
                    "indices" : 7,
                    "material" : 0
                }
            ]
        }
    ],
    "textures" : [
        {
            "sampler" : 0,
            "source" : 0
        }
    ],
    "images" : [
        {
            "mimeType" : "image/png",
            "name" : "tools_bits_texture",
            "uri" : "tools_bits_texture.png"
        }
    ],
    "accessors" : [
        {
            "bufferView" : 0,
            "componentType" : 5126,
            "count" : 895,
            "max" : [
                0.479539692401886,
                0.22439730167388916,
                0.5251966118812561
            ],
            "min" : [
                -0.479539692401886,
                -0.06435977667570114,
                -0.03333410620689392
            ],
            "type" : "VEC3"
        },
        {
            "bufferView" : 1,
            "componentType" : 5126,
            "count" : 895,
            "type" : "VEC2"
        },
        {
            "bufferView" : 2,
            "componentType" : 5126,
            "count" : 895,
            "type" : "VEC3"
        },
        {
            "bufferView" : 3,
            "componentType" : 5123,
            "count" : 1728,
            "type" : "SCALAR"
        },
        {
            "bufferView" : 4,
            "componentType" : 5126,
            "count" : 767,
            "max" : [
                0.4797302782535553,
                0.33711567521095276,
                0.273661345243454
            ],
            "min" : [
                -0.4797302782535553,
                0,
                -0.2259332686662674
            ],
            "type" : "VEC3"
        },
        {
            "bufferView" : 5,
            "componentType" : 5126,
            "count" : 767,
            "type" : "VEC2"
        },
        {
            "bufferView" : 6,
            "componentType" : 5126,
            "count" : 767,
            "type" : "VEC3"
        },
        {
            "bufferView" : 7,
            "componentType" : 5123,
            "count" : 1476,
            "type" : "SCALAR"
        }
    ],
    "bufferViews" : [
        {
            "buffer" : 0,
            "byteLength" : 10740,
            "byteOffset" : 0,
            "target" : 34962
        },
        {
            "buffer" : 0,
            "byteLength" : 7160,
            "byteOffset" : 10740,
            "target" : 34962
        },
        {
            "buffer" : 0,
            "byteLength" : 10740,
            "byteOffset" : 17900,
            "target" : 34962
        },
        {
            "buffer" : 0,
            "byteLength" : 3456,
            "byteOffset" : 28640,
            "target" : 34963
        },
        {
            "buffer" : 0,
            "byteLength" : 9204,
            "byteOffset" : 32096,
            "target" : 34962
        },
        {
            "buffer" : 0,
            "byteLength" : 6136,
            "byteOffset" : 41300,
            "target" : 34962
        },
        {
            "buffer" : 0,
            "byteLength" : 9204,
            "byteOffset" : 47436,
            "target" : 34962
        },
        {
            "buffer" : 0,
            "byteLength" : 2952,
            "byteOffset" : 56640,
            "target" : 34963
        }
    ],
    "samplers" : [
        {
            "magFilter" : 9729,
            "minFilter" : 9987
        }
    ],
    "buffers" : [
        {
            "byteLength" : 59592,
            "uri" : "fishing_tacklebox_empty.bin"
        }
    ]
}
