{
    "asset" : {
        "generator" : "Khronos glTF Blender I/O v3.4.50",
        "version" : "2.0"
    },
    "scene" : 0,
    "scenes" : [
        {
            "name" : "Scene",
            "nodes" : [
                4
            ]
        }
    ],
    "nodes" : [
        {
            "mesh" : 0,
            "name" : "fishing_rod_floater",
            "translation" : [
                0,
                -1.5714324712753296,
                0
            ]
        },
        {
            "mesh" : 1,
            "name" : "fishing_rod_hook",
            "translation" : [
                0,
                -1.9414324760437012,
                0
            ]
        },
        {
            "children" : [
                0,
                1
            ],
            "mesh" : 2,
            "name" : "fishing_rod_line",
            "translation" : [
                0,
                2.1714324951171875,
                0.9644336700439453
            ]
        },
        {
            "mesh" : 3,
            "name" : "fishing_rod_reelhandle",
            "translation" : [
                0.11720657348632812,
                0.4097328186035156,
                0.18176937103271484
            ]
        },
        {
            "children" : [
                2,
                3
            ],
            "mesh" : 4,
            "name" : "fishing_rod"
        }
    ],
    "materials" : [
        {
            "name" : "tools",
            "pbrMetallicRoughness" : {
                "baseColorTexture" : {
                    "index" : 0
                },
                "metallicFactor" : 0,
                "roughnessFactor" : 0.5
            }
        }
    ],
    "meshes" : [
        {
            "name" : "fishing_rod_floater",
            "primitives" : [
                {
                    "attributes" : {
                        "POSITION" : 0,
                        "TEXCOORD_0" : 1,
                        "NORMAL" : 2
                    },
                    "indices" : 3,
                    "material" : 0
                }
            ]
        },
        {
            "name" : "fishing_rod_hook",
            "primitives" : [
                {
                    "attributes" : {
                        "POSITION" : 4,
                        "TEXCOORD_0" : 5,
                        "NORMAL" : 6
                    },
                    "indices" : 7,
                    "material" : 0
                }
            ]
        },
        {
            "name" : "fishing_rod_line",
            "primitives" : [
                {
                    "attributes" : {
                        "POSITION" : 8,
                        "TEXCOORD_0" : 9,
                        "NORMAL" : 10
                    },
                    "indices" : 11,
                    "material" : 0
                }
            ]
        },
        {
            "name" : "fishing_rod_reelhandle",
            "primitives" : [
                {
                    "attributes" : {
                        "POSITION" : 12,
                        "TEXCOORD_0" : 13,
                        "NORMAL" : 14
                    },
                    "indices" : 15,
                    "material" : 0
                }
            ]
        },
        {
            "name" : "fishing_rod",
            "primitives" : [
                {
                    "attributes" : {
                        "POSITION" : 16,
                        "TEXCOORD_0" : 17,
                        "NORMAL" : 18
                    },
                    "indices" : 19,
                    "material" : 0
                }
            ]
        }
    ],
    "textures" : [
        {
            "sampler" : 0,
            "source" : 0
        }
    ],
    "images" : [
        {
            "mimeType" : "image/png",
            "name" : "tools_bits_texture",
            "uri" : "tools_bits_texture.png"
        }
    ],
    "accessors" : [
        {
            "bufferView" : 0,
            "componentType" : 5126,
            "count" : 405,
            "max" : [
                0.20712602138519287,
                0.3303239643573761,
                0.20712603628635406
            ],
            "min" : [
                -0.2071259766817093,
                -0.19473685324192047,
                -0.20712599158287048
            ],
            "type" : "VEC3"
        },
        {
            "bufferView" : 1,
            "componentType" : 5126,
            "count" : 405,
            "type" : "VEC2"
        },
        {
            "bufferView" : 2,
            "componentType" : 5126,
            "count" : 405,
            "type" : "VEC3"
        },
        {
            "bufferView" : 3,
            "componentType" : 5123,
            "count" : 1536,
            "type" : "SCALAR"
        },
        {
            "bufferView" : 4,
            "componentType" : 5126,
            "count" : 360,
            "max" : [
                0.11848640441894531,
                0.09014751762151718,
                0.03611879423260689
            ],
            "min" : [
                -0.1317276954650879,
                -0.44030651450157166,
                -0.0361187644302845
            ],
            "type" : "VEC3"
        },
        {
            "bufferView" : 5,
            "componentType" : 5126,
            "count" : 360,
            "type" : "VEC2"
        },
        {
            "bufferView" : 6,
            "componentType" : 5126,
            "count" : 360,
            "type" : "VEC3"
        },
        {
            "bufferView" : 7,
            "componentType" : 5123,
            "count" : 1143,
            "type" : "SCALAR"
        },
        {
            "bufferView" : 8,
            "componentType" : 5126,
            "count" : 40,
            "max" : [
                0.009506420232355595,
                0.009780109860002995,
                0.009506432339549065
            ],
            "min" : [
                -0.009506423026323318,
                -1.9059817790985107,
                -0.009506420232355595
            ],
            "type" : "VEC3"
        },
        {
            "bufferView" : 9,
            "componentType" : 5126,
            "count" : 40,
            "type" : "VEC2"
        },
        {
            "bufferView" : 10,
            "componentType" : 5126,
            "count" : 40,
            "type" : "VEC3"
        },
        {
            "bufferView" : 11,
            "componentType" : 5123,
            "count" : 60,
            "type" : "SCALAR"
        },
        {
            "bufferView" : 12,
            "componentType" : 5126,
            "count" : 185,
            "max" : [
                0.21393506228923798,
                0.05886135622859001,
                0.02874046191573143
            ],
            "min" : [
                -0.02874039299786091,
                -0.058861590921878815,
                -0.28497132658958435
            ],
            "type" : "VEC3"
        },
        {
            "bufferView" : 13,
            "componentType" : 5126,
            "count" : 185,
            "type" : "VEC2"
        },
        {
            "bufferView" : 14,
            "componentType" : 5126,
            "count" : 185,
            "type" : "VEC3"
        },
        {
            "bufferView" : 15,
            "componentType" : 5123,
            "count" : 546,
            "type" : "SCALAR"
        },
        {
            "bufferView" : 16,
            "componentType" : 5126,
            "count" : 2258,
            "max" : [
                0.11971279233694077,
                2.3678135871887207,
                1.0044187307357788
            ],
            "min" : [
                -0.11971326172351837,
                -0.23995770514011383,
                -0.07769069820642471
            ],
            "type" : "VEC3"
        },
        {
            "bufferView" : 17,
            "componentType" : 5126,
            "count" : 2258,
            "type" : "VEC2"
        },
        {
            "bufferView" : 18,
            "componentType" : 5126,
            "count" : 2258,
            "type" : "VEC3"
        },
        {
            "bufferView" : 19,
            "componentType" : 5123,
            "count" : 7530,
            "type" : "SCALAR"
        }
    ],
    "bufferViews" : [
        {
            "buffer" : 0,
            "byteLength" : 4860,
            "byteOffset" : 0,
            "target" : 34962
        },
        {
            "buffer" : 0,
            "byteLength" : 3240,
            "byteOffset" : 4860,
            "target" : 34962
        },
        {
            "buffer" : 0,
            "byteLength" : 4860,
            "byteOffset" : 8100,
            "target" : 34962
        },
        {
            "buffer" : 0,
            "byteLength" : 3072,
            "byteOffset" : 12960,
            "target" : 34963
        },
        {
            "buffer" : 0,
            "byteLength" : 4320,
            "byteOffset" : 16032,
            "target" : 34962
        },
        {
            "buffer" : 0,
            "byteLength" : 2880,
            "byteOffset" : 20352,
            "target" : 34962
        },
        {
            "buffer" : 0,
            "byteLength" : 4320,
            "byteOffset" : 23232,
            "target" : 34962
        },
        {
            "buffer" : 0,
            "byteLength" : 2286,
            "byteOffset" : 27552,
            "target" : 34963
        },
        {
            "buffer" : 0,
            "byteLength" : 480,
            "byteOffset" : 29840,
            "target" : 34962
        },
        {
            "buffer" : 0,
            "byteLength" : 320,
            "byteOffset" : 30320,
            "target" : 34962
        },
        {
            "buffer" : 0,
            "byteLength" : 480,
            "byteOffset" : 30640,
            "target" : 34962
        },
        {
            "buffer" : 0,
            "byteLength" : 120,
            "byteOffset" : 31120,
            "target" : 34963
        },
        {
            "buffer" : 0,
            "byteLength" : 2220,
            "byteOffset" : 31240,
            "target" : 34962
        },
        {
            "buffer" : 0,
            "byteLength" : 1480,
            "byteOffset" : 33460,
            "target" : 34962
        },
        {
            "buffer" : 0,
            "byteLength" : 2220,
            "byteOffset" : 34940,
            "target" : 34962
        },
        {
            "buffer" : 0,
            "byteLength" : 1092,
            "byteOffset" : 37160,
            "target" : 34963
        },
        {
            "buffer" : 0,
            "byteLength" : 27096,
            "byteOffset" : 38252,
            "target" : 34962
        },
        {
            "buffer" : 0,
            "byteLength" : 18064,
            "byteOffset" : 65348,
            "target" : 34962
        },
        {
            "buffer" : 0,
            "byteLength" : 27096,
            "byteOffset" : 83412,
            "target" : 34962
        },
        {
            "buffer" : 0,
            "byteLength" : 15060,
            "byteOffset" : 110508,
            "target" : 34963
        }
    ],
    "samplers" : [
        {
            "magFilter" : 9729,
            "minFilter" : 9987
        }
    ],
    "buffers" : [
        {
            "byteLength" : 125568,
            "uri" : "fishing_rod.bin"
        }
    ]
}
