{
    "asset" : {
        "generator" : "Khronos glTF Blender I/O v3.4.50",
        "version" : "2.0"
    },
    "scene" : 0,
    "scenes" : [
        {
            "name" : "Scene",
            "nodes" : [
                1
            ]
        }
    ],
    "nodes" : [
        {
            "mesh" : 0,
            "name" : "fishing_rod_base_reelhandle",
            "translation" : [
                0.11720657348632812,
                0.4097328186035156,
                0.18176937103271484
            ]
        },
        {
            "children" : [
                0
            ],
            "mesh" : 1,
            "name" : "fishing_rod_base"
        }
    ],
    "materials" : [
        {
            "name" : "tools",
            "pbrMetallicRoughness" : {
                "baseColorTexture" : {
                    "index" : 0
                },
                "metallicFactor" : 0,
                "roughnessFactor" : 0.5
            }
        }
    ],
    "meshes" : [
        {
            "name" : "fishing_rod_base_reelhandle",
            "primitives" : [
                {
                    "attributes" : {
                        "POSITION" : 0,
                        "TEXCOORD_0" : 1,
                        "NORMAL" : 2
                    },
                    "indices" : 3,
                    "material" : 0
                }
            ]
        },
        {
            "name" : "fishing_rod_base",
            "primitives" : [
                {
                    "attributes" : {
                        "POSITION" : 4,
                        "TEXCOORD_0" : 5,
                        "NORMAL" : 6
                    },
                    "indices" : 7,
                    "material" : 0
                }
            ]
        }
    ],
    "textures" : [
        {
            "sampler" : 0,
            "source" : 0
        }
    ],
    "images" : [
        {
            "mimeType" : "image/png",
            "name" : "tools_bits_texture",
            "uri" : "tools_bits_texture.png"
        }
    ],
    "accessors" : [
        {
            "bufferView" : 0,
            "componentType" : 5126,
            "count" : 185,
            "max" : [
                0.21393506228923798,
                0.05886135622859001,
                0.02874046191573143
            ],
            "min" : [
                -0.02874039299786091,
                -0.058861590921878815,
                -0.28497132658958435
            ],
            "type" : "VEC3"
        },
        {
            "bufferView" : 1,
            "componentType" : 5126,
            "count" : 185,
            "type" : "VEC2"
        },
        {
            "bufferView" : 2,
            "componentType" : 5126,
            "count" : 185,
            "type" : "VEC3"
        },
        {
            "bufferView" : 3,
            "componentType" : 5123,
            "count" : 546,
            "type" : "SCALAR"
        },
        {
            "bufferView" : 4,
            "componentType" : 5126,
            "count" : 2258,
            "max" : [
                0.11971279233694077,
                2.3678135871887207,
                1.0044187307357788
            ],
            "min" : [
                -0.11971326172351837,
                -0.23995770514011383,
                -0.07769069820642471
            ],
            "type" : "VEC3"
        },
        {
            "bufferView" : 5,
            "componentType" : 5126,
            "count" : 2258,
            "type" : "VEC2"
        },
        {
            "bufferView" : 6,
            "componentType" : 5126,
            "count" : 2258,
            "type" : "VEC3"
        },
        {
            "bufferView" : 7,
            "componentType" : 5123,
            "count" : 7530,
            "type" : "SCALAR"
        }
    ],
    "bufferViews" : [
        {
            "buffer" : 0,
            "byteLength" : 2220,
            "byteOffset" : 0,
            "target" : 34962
        },
        {
            "buffer" : 0,
            "byteLength" : 1480,
            "byteOffset" : 2220,
            "target" : 34962
        },
        {
            "buffer" : 0,
            "byteLength" : 2220,
            "byteOffset" : 3700,
            "target" : 34962
        },
        {
            "buffer" : 0,
            "byteLength" : 1092,
            "byteOffset" : 5920,
            "target" : 34963
        },
        {
            "buffer" : 0,
            "byteLength" : 27096,
            "byteOffset" : 7012,
            "target" : 34962
        },
        {
            "buffer" : 0,
            "byteLength" : 18064,
            "byteOffset" : 34108,
            "target" : 34962
        },
        {
            "buffer" : 0,
            "byteLength" : 27096,
            "byteOffset" : 52172,
            "target" : 34962
        },
        {
            "buffer" : 0,
            "byteLength" : 15060,
            "byteOffset" : 79268,
            "target" : 34963
        }
    ],
    "samplers" : [
        {
            "magFilter" : 9729,
            "minFilter" : 9987
        }
    ],
    "buffers" : [
        {
            "byteLength" : 94328,
            "uri" : "fishing_rod_base.bin"
        }
    ]
}
