{
  "asset": {
    "generator": "Khronos glTF Blender I/O v5.2.39",
    "version": "2.0"
  },
  "extensionsUsed": [
    "KHR_materials_specular"
  ],
  "scene": 0,
  "scenes": [
    {
      "name": "Scene",
      "nodes": [
        0
      ]
    }
  ],
  "nodes": [
    {
      "mesh": 0,
      "name": "SM_PROP_campfire",
      "translation": [
        0.027093499898910522,
        0.040262605994939804,
        -0.01604980230331421
      ]
    }
  ],
  "materials": [
    {
      "doubleSided": true,
      "extensions": {
        "KHR_materials_specular": {
          "specularFactor": 0
        }
      },
      "name": "M_ENV_stone",
      "normalTexture": {
        "index": 1
      },
      "pbrMetallicRoughness": {
        "baseColorTexture": {
          "index": 0
        },
        "metallicFactor": 0.0,
        "roughnessFactor": 0.8
      },
      "alphaMode": "OPAQUE"
    },
    {
      "doubleSided": true,
      "extensions": {
        "KHR_materials_specular": {
          "specularFactor": 0
        }
      },
      "name": "M_PROP_wood_log_burn",
      "pbrMetallicRoughness": {
        "baseColorTexture": {
          "index": 2
        },
        "metallicFactor": 0.0,
        "roughnessFactor": 0.8
      },
      "alphaMode": "OPAQUE"
    }
  ],
  "meshes": [
    {
      "name": "Mesh.2332",
      "primitives": [
        {
          "attributes": {
            "POSITION": 0,
            "NORMAL": 1,
            "TEXCOORD_0": 2,
            "TEXCOORD_1": 3
          },
          "indices": 4,
          "material": 0
        },
        {
          "attributes": {
            "POSITION": 5,
            "NORMAL": 6,
            "TEXCOORD_0": 7,
            "TEXCOORD_1": 8
          },
          "indices": 9,
          "material": 1
        }
      ]
    }
  ],
  "textures": [
    {
      "source": 0
    },
    {
      "source": 1
    },
    {
      "source": 2
    }
  ],
  "images": [
    {
      "uri": "textures/T_ENV_stone_BC.png"
    },
    {
      "uri": "textures/T_ENV_stone_N.png"
    },
    {
      "uri": "textures/T_PROP_wood_log_burn_BC.png"
    }
  ],
  "accessors": [
    {
      "bufferView": 0,
      "componentType": 5126,
      "count": 410,
      "max": [
        0.481153666973114,
        0.17543336749076843,
        0.5433067083358765
      ],
      "min": [
        -0.5353406667709351,
        -0.040262605994939804,
        -0.511207103729248
      ],
      "type": "VEC3"
    },
    {
      "bufferView": 1,
      "componentType": 5126,
      "count": 410,
      "type": "VEC3"
    },
    {
      "bufferView": 2,
      "componentType": 5126,
      "count": 410,
      "type": "VEC2"
    },
    {
      "bufferView": 3,
      "componentType": 5126,
      "count": 410,
      "type": "VEC2"
    },
    {
      "bufferView": 4,
      "componentType": 5123,
      "count": 1584,
      "type": "SCALAR"
    },
    {
      "bufferView": 5,
      "componentType": 5126,
      "count": 182,
      "max": [
        0.251885324716568,
        0.28727829456329346,
        0.32779109477996826
      ],
      "min": [
        -0.3776080906391144,
        -0.035309966653585434,
        -0.3304034471511841
      ],
      "type": "VEC3"
    },
    {
      "bufferView": 6,
      "componentType": 5126,
      "count": 182,
      "type": "VEC3"
    },
    {
      "bufferView": 7,
      "componentType": 5126,
      "count": 182,
      "type": "VEC2"
    },
    {
      "bufferView": 8,
      "componentType": 5126,
      "count": 182,
      "type": "VEC2"
    },
    {
      "bufferView": 9,
      "componentType": 5123,
      "count": 420,
      "type": "SCALAR"
    }
  ],
  "bufferViews": [
    {
      "buffer": 0,
      "byteLength": 4920,
      "byteOffset": 0,
      "target": 34962
    },
    {
      "buffer": 0,
      "byteLength": 4920,
      "byteOffset": 4920,
      "target": 34962
    },
    {
      "buffer": 0,
      "byteLength": 3280,
      "byteOffset": 9840,
      "target": 34962
    },
    {
      "buffer": 0,
      "byteLength": 3280,
      "byteOffset": 13120,
      "target": 34962
    },
    {
      "buffer": 0,
      "byteLength": 3168,
      "byteOffset": 16400,
      "target": 34963
    },
    {
      "buffer": 0,
      "byteLength": 2184,
      "byteOffset": 19568,
      "target": 34962
    },
    {
      "buffer": 0,
      "byteLength": 2184,
      "byteOffset": 21752,
      "target": 34962
    },
    {
      "buffer": 0,
      "byteLength": 1456,
      "byteOffset": 23936,
      "target": 34962
    },
    {
      "buffer": 0,
      "byteLength": 1456,
      "byteOffset": 25392,
      "target": 34962
    },
    {
      "buffer": 0,
      "byteLength": 840,
      "byteOffset": 26848,
      "target": 34963
    }
  ],
  "samplers": [
    {
      "magFilter": 9729,
      "minFilter": 9987
    }
  ],
  "buffers": [
    {
      "byteLength": 27688,
      "uri": "campfire.bin"
    }
  ]
}