{
  "asset": {
    "generator": "Khronos glTF Blender I/O v5.2.39",
    "version": "2.0"
  },
  "scene": 0,
  "scenes": [
    {
      "name": "Scene",
      "nodes": [
        0
      ]
    }
  ],
  "nodes": [
    {
      "mesh": 0,
      "name": "SM_PROP_food_mushroom_02",
      "translation": [
        -0.002155289053916931,
        0,
        0.0004809647798538208
      ]
    }
  ],
  "materials": [
    {
      "doubleSided": true,
      "name": "M_food",
      "pbrMetallicRoughness": {
        "baseColorTexture": {
          "index": 0
        },
        "metallicFactor": 0.0,
        "roughnessFactor": 0.8
      },
      "alphaMode": "OPAQUE"
    }
  ],
  "meshes": [
    {
      "name": "Mesh.1715",
      "primitives": [
        {
          "attributes": {
            "POSITION": 0,
            "NORMAL": 1,
            "TEXCOORD_0": 2,
            "TEXCOORD_1": 3
          },
          "indices": 4,
          "material": 0
        }
      ]
    }
  ],
  "textures": [
    {
      "source": 0
    }
  ],
  "images": [
    {
      "uri": "textures/T_food.png"
    }
  ],
  "accessors": [
    {
      "bufferView": 0,
      "componentType": 5126,
      "count": 127,
      "max": [
        0.06363331526517868,
        0.09779135137796402,
        0.06284287571907043
      ],
      "min": [
        -0.05932273715734482,
        -2.7713633699022466e-07,
        -0.06380480527877808
      ],
      "type": "VEC3"
    },
    {
      "bufferView": 1,
      "componentType": 5126,
      "count": 127,
      "type": "VEC3"
    },
    {
      "bufferView": 2,
      "componentType": 5126,
      "count": 127,
      "type": "VEC2"
    },
    {
      "bufferView": 3,
      "componentType": 5126,
      "count": 127,
      "type": "VEC2"
    },
    {
      "bufferView": 4,
      "componentType": 5123,
      "count": 354,
      "type": "SCALAR"
    }
  ],
  "bufferViews": [
    {
      "buffer": 0,
      "byteLength": 1524,
      "byteOffset": 0,
      "target": 34962
    },
    {
      "buffer": 0,
      "byteLength": 1524,
      "byteOffset": 1524,
      "target": 34962
    },
    {
      "buffer": 0,
      "byteLength": 1016,
      "byteOffset": 3048,
      "target": 34962
    },
    {
      "buffer": 0,
      "byteLength": 1016,
      "byteOffset": 4064,
      "target": 34962
    },
    {
      "buffer": 0,
      "byteLength": 708,
      "byteOffset": 5080,
      "target": 34963
    }
  ],
  "samplers": [
    {
      "magFilter": 9729,
      "minFilter": 9987
    }
  ],
  "buffers": [
    {
      "byteLength": 5788,
      "uri": "food_mushroom_02.bin"
    }
  ]
}