{
  "asset": {
    "generator": "Khronos glTF Blender I/O v5.2.39",
    "version": "2.0"
  },
  "extensionsUsed": [
    "KHR_materials_specular"
  ],
  "scene": 0,
  "scenes": [
    {
      "name": "Scene",
      "nodes": [
        0
      ]
    }
  ],
  "nodes": [
    {
      "mesh": 0,
      "name": "SM_PROP_mailbox",
      "translation": [
        0.24270710349082947,
        0.0020706020295619965,
        0.03260079026222229
      ]
    }
  ],
  "materials": [
    {
      "doubleSided": true,
      "extensions": {
        "KHR_materials_specular": {
          "specularFactor": 0
        }
      },
      "name": "M_wood_planks_06",
      "pbrMetallicRoughness": {
        "baseColorTexture": {
          "index": 0
        },
        "metallicFactor": 0.0,
        "roughnessFactor": 0.8
      },
      "alphaMode": "OPAQUE"
    },
    {
      "doubleSided": true,
      "extensions": {
        "KHR_materials_specular": {
          "specularFactor": 0
        }
      },
      "name": "M_wood_planks_05",
      "normalTexture": {
        "index": 2
      },
      "pbrMetallicRoughness": {
        "baseColorTexture": {
          "index": 1
        },
        "metallicFactor": 0.0,
        "roughnessFactor": 0.8
      },
      "alphaMode": "OPAQUE"
    },
    {
      "doubleSided": true,
      "extensions": {
        "KHR_materials_specular": {
          "specularFactor": 0.41176465153694153
        }
      },
      "name": "M_metal_02",
      "pbrMetallicRoughness": {
        "baseColorTexture": {
          "index": 3
        },
        "metallicFactor": 0.0,
        "roughnessFactor": 0.8
      },
      "alphaMode": "OPAQUE"
    }
  ],
  "meshes": [
    {
      "name": "Mesh.056",
      "primitives": [
        {
          "attributes": {
            "POSITION": 0,
            "NORMAL": 1,
            "TEXCOORD_0": 2,
            "TEXCOORD_1": 3
          },
          "indices": 4,
          "material": 0
        },
        {
          "attributes": {
            "POSITION": 5,
            "NORMAL": 6,
            "TEXCOORD_0": 7,
            "TEXCOORD_1": 8
          },
          "indices": 9,
          "material": 1
        },
        {
          "attributes": {
            "POSITION": 10,
            "NORMAL": 11,
            "TEXCOORD_0": 12,
            "TEXCOORD_1": 13
          },
          "indices": 14,
          "material": 2
        }
      ]
    }
  ],
  "textures": [
    {
      "source": 0
    },
    {
      "source": 1
    },
    {
      "source": 2
    },
    {
      "source": 3
    }
  ],
  "images": [
    {
      "uri": "textures/T_wood_planks_06_BC.png"
    },
    {
      "uri": "textures/T_wood_planks_05_BC.png"
    },
    {
      "uri": "textures/T_wood_planks_05_N.png"
    },
    {
      "uri": "textures/T_metal_02_BC.png"
    }
  ],
  "accessors": [
    {
      "bufferView": 0,
      "componentType": 5126,
      "count": 373,
      "max": [
        0.09264081716537476,
        1.5093441009521484,
        0.14830781519412994
      ],
      "min": [
        -0.5780550241470337,
        -0.0020706020295619965,
        -0.21350939571857452
      ],
      "type": "VEC3"
    },
    {
      "bufferView": 1,
      "componentType": 5126,
      "count": 373,
      "type": "VEC3"
    },
    {
      "bufferView": 2,
      "componentType": 5126,
      "count": 373,
      "type": "VEC2"
    },
    {
      "bufferView": 3,
      "componentType": 5126,
      "count": 373,
      "type": "VEC2"
    },
    {
      "bufferView": 4,
      "componentType": 5123,
      "count": 672,
      "type": "SCALAR"
    },
    {
      "bufferView": 5,
      "componentType": 5126,
      "count": 66,
      "max": [
        -0.2371707260608673,
        1.395519733428955,
        0.11630497127771378
      ],
      "min": [
        -0.4138513505458832,
        1.1483886241912842,
        0.02757216989994049
      ],
      "type": "VEC3"
    },
    {
      "bufferView": 6,
      "componentType": 5126,
      "count": 66,
      "type": "VEC3"
    },
    {
      "bufferView": 7,
      "componentType": 5126,
      "count": 66,
      "type": "VEC2"
    },
    {
      "bufferView": 8,
      "componentType": 5126,
      "count": 66,
      "type": "VEC2"
    },
    {
      "bufferView": 9,
      "componentType": 5123,
      "count": 120,
      "type": "SCALAR"
    },
    {
      "bufferView": 10,
      "componentType": 5126,
      "count": 26,
      "max": [
        -0.5351086854934692,
        1.1879193782806396,
        0.03462577238678932
      ],
      "min": [
        -0.575614869594574,
        1.1206402778625488,
        -0.10801063477993011
      ],
      "type": "VEC3"
    },
    {
      "bufferView": 11,
      "componentType": 5126,
      "count": 26,
      "type": "VEC3"
    },
    {
      "bufferView": 12,
      "componentType": 5126,
      "count": 26,
      "type": "VEC2"
    },
    {
      "bufferView": 13,
      "componentType": 5126,
      "count": 26,
      "type": "VEC2"
    },
    {
      "bufferView": 14,
      "componentType": 5123,
      "count": 48,
      "type": "SCALAR"
    }
  ],
  "bufferViews": [
    {
      "buffer": 0,
      "byteLength": 4476,
      "byteOffset": 0,
      "target": 34962
    },
    {
      "buffer": 0,
      "byteLength": 4476,
      "byteOffset": 4476,
      "target": 34962
    },
    {
      "buffer": 0,
      "byteLength": 2984,
      "byteOffset": 8952,
      "target": 34962
    },
    {
      "buffer": 0,
      "byteLength": 2984,
      "byteOffset": 11936,
      "target": 34962
    },
    {
      "buffer": 0,
      "byteLength": 1344,
      "byteOffset": 14920,
      "target": 34963
    },
    {
      "buffer": 0,
      "byteLength": 792,
      "byteOffset": 16264,
      "target": 34962
    },
    {
      "buffer": 0,
      "byteLength": 792,
      "byteOffset": 17056,
      "target": 34962
    },
    {
      "buffer": 0,
      "byteLength": 528,
      "byteOffset": 17848,
      "target": 34962
    },
    {
      "buffer": 0,
      "byteLength": 528,
      "byteOffset": 18376,
      "target": 34962
    },
    {
      "buffer": 0,
      "byteLength": 240,
      "byteOffset": 18904,
      "target": 34963
    },
    {
      "buffer": 0,
      "byteLength": 312,
      "byteOffset": 19144,
      "target": 34962
    },
    {
      "buffer": 0,
      "byteLength": 312,
      "byteOffset": 19456,
      "target": 34962
    },
    {
      "buffer": 0,
      "byteLength": 208,
      "byteOffset": 19768,
      "target": 34962
    },
    {
      "buffer": 0,
      "byteLength": 208,
      "byteOffset": 19976,
      "target": 34962
    },
    {
      "buffer": 0,
      "byteLength": 96,
      "byteOffset": 20184,
      "target": 34963
    }
  ],
  "samplers": [
    {
      "magFilter": 9729,
      "minFilter": 9987
    }
  ],
  "buffers": [
    {
      "byteLength": 20280,
      "uri": "mailbox.bin"
    }
  ]
}