{
  "asset": {
    "generator": "Khronos glTF Blender I/O v5.2.39",
    "version": "2.0"
  },
  "extensionsUsed": [
    "KHR_materials_specular"
  ],
  "scene": 0,
  "scenes": [
    {
      "name": "Scene",
      "nodes": [
        0
      ]
    }
  ],
  "nodes": [
    {
      "mesh": 0,
      "name": "SM_PROP_spikes_v02_03",
      "translation": [
        -0.060269951820373535,
        0.25896838307380676,
        0.034309446811676025
      ]
    }
  ],
  "materials": [
    {
      "doubleSided": true,
      "extensions": {
        "KHR_materials_specular": {
          "specularFactor": 0
        }
      },
      "name": "M_wood_06",
      "normalTexture": {
        "index": 1
      },
      "pbrMetallicRoughness": {
        "baseColorTexture": {
          "index": 0
        },
        "metallicFactor": 0.0,
        "roughnessFactor": 0.8
      },
      "alphaMode": "OPAQUE"
    },
    {
      "doubleSided": true,
      "extensions": {
        "KHR_materials_specular": {
          "specularFactor": 0
        }
      },
      "name": "M_wood_detail_01",
      "pbrMetallicRoughness": {
        "baseColorTexture": {
          "index": 2
        },
        "metallicFactor": 0.0,
        "roughnessFactor": 0.8
      },
      "alphaMode": "OPAQUE"
    }
  ],
  "meshes": [
    {
      "name": "Mesh.007",
      "primitives": [
        {
          "attributes": {
            "POSITION": 0,
            "NORMAL": 1,
            "TEXCOORD_0": 2,
            "TEXCOORD_1": 3
          },
          "indices": 4,
          "material": 0
        },
        {
          "attributes": {
            "POSITION": 5,
            "NORMAL": 6,
            "TEXCOORD_0": 7,
            "TEXCOORD_1": 8
          },
          "indices": 9,
          "material": 1
        }
      ]
    }
  ],
  "textures": [
    {
      "source": 0
    },
    {
      "source": 1
    },
    {
      "source": 2
    }
  ],
  "images": [
    {
      "uri": "textures/T_wood_06_BC.png"
    },
    {
      "uri": "textures/T_wood_06_N.png"
    },
    {
      "uri": "textures/T_wood_detail_01_BC.png"
    }
  ],
  "accessors": [
    {
      "bufferView": 0,
      "componentType": 5126,
      "count": 330,
      "max": [
        1.7882766723632812,
        1.7080764770507812,
        0.9211831092834473
      ],
      "min": [
        -1.6677367687225342,
        -0.25896838307380676,
        -0.9843636751174927
      ],
      "type": "VEC3"
    },
    {
      "bufferView": 1,
      "componentType": 5126,
      "count": 330,
      "type": "VEC3"
    },
    {
      "bufferView": 2,
      "componentType": 5126,
      "count": 330,
      "type": "VEC2"
    },
    {
      "bufferView": 3,
      "componentType": 5126,
      "count": 330,
      "type": "VEC2"
    },
    {
      "bufferView": 4,
      "componentType": 5123,
      "count": 792,
      "type": "SCALAR"
    },
    {
      "bufferView": 5,
      "componentType": 5126,
      "count": 287,
      "max": [
        1.7882766723632812,
        1.8227119445800781,
        1.0359079837799072
      ],
      "min": [
        -1.6677367687225342,
        -0.25896838307380676,
        -1.1045268774032593
      ],
      "type": "VEC3"
    },
    {
      "bufferView": 6,
      "componentType": 5126,
      "count": 287,
      "type": "VEC3"
    },
    {
      "bufferView": 7,
      "componentType": 5126,
      "count": 287,
      "type": "VEC2"
    },
    {
      "bufferView": 8,
      "componentType": 5126,
      "count": 287,
      "type": "VEC2"
    },
    {
      "bufferView": 9,
      "componentType": 5123,
      "count": 660,
      "type": "SCALAR"
    }
  ],
  "bufferViews": [
    {
      "buffer": 0,
      "byteLength": 3960,
      "byteOffset": 0,
      "target": 34962
    },
    {
      "buffer": 0,
      "byteLength": 3960,
      "byteOffset": 3960,
      "target": 34962
    },
    {
      "buffer": 0,
      "byteLength": 2640,
      "byteOffset": 7920,
      "target": 34962
    },
    {
      "buffer": 0,
      "byteLength": 2640,
      "byteOffset": 10560,
      "target": 34962
    },
    {
      "buffer": 0,
      "byteLength": 1584,
      "byteOffset": 13200,
      "target": 34963
    },
    {
      "buffer": 0,
      "byteLength": 3444,
      "byteOffset": 14784,
      "target": 34962
    },
    {
      "buffer": 0,
      "byteLength": 3444,
      "byteOffset": 18228,
      "target": 34962
    },
    {
      "buffer": 0,
      "byteLength": 2296,
      "byteOffset": 21672,
      "target": 34962
    },
    {
      "buffer": 0,
      "byteLength": 2296,
      "byteOffset": 23968,
      "target": 34962
    },
    {
      "buffer": 0,
      "byteLength": 1320,
      "byteOffset": 26264,
      "target": 34963
    }
  ],
  "samplers": [
    {
      "magFilter": 9729,
      "minFilter": 9987
    }
  ],
  "buffers": [
    {
      "byteLength": 27584,
      "uri": "spikes_v02_03.bin"
    }
  ]
}