{
  "asset": {
    "generator": "Khronos glTF Blender I/O v5.2.39",
    "version": "2.0"
  },
  "extensionsUsed": [
    "KHR_materials_specular"
  ],
  "scene": 0,
  "scenes": [
    {
      "name": "Scene",
      "nodes": [
        0
      ]
    }
  ],
  "nodes": [
    {
      "mesh": 0,
      "name": "SM_PROP_wall_wood_post_04",
      "translation": [
        0.025729671120643616,
        7.049296527839033e-06,
        0.03265202045440674
      ]
    }
  ],
  "materials": [
    {
      "doubleSided": true,
      "extensions": {
        "KHR_materials_specular": {
          "specularFactor": 0
        }
      },
      "name": "M_wood_06",
      "normalTexture": {
        "index": 1
      },
      "pbrMetallicRoughness": {
        "baseColorTexture": {
          "index": 0
        },
        "metallicFactor": 0.0,
        "roughnessFactor": 0.8
      },
      "alphaMode": "OPAQUE"
    },
    {
      "doubleSided": true,
      "extensions": {
        "KHR_materials_specular": {
          "specularFactor": 0
        }
      },
      "name": "M_wood_detail_01",
      "pbrMetallicRoughness": {
        "baseColorTexture": {
          "index": 2
        },
        "metallicFactor": 0.0,
        "roughnessFactor": 0.8
      },
      "alphaMode": "OPAQUE"
    }
  ],
  "meshes": [
    {
      "name": "Mesh.2349",
      "primitives": [
        {
          "attributes": {
            "POSITION": 0,
            "NORMAL": 1,
            "TEXCOORD_0": 2,
            "TEXCOORD_1": 3
          },
          "indices": 4,
          "material": 0
        },
        {
          "attributes": {
            "POSITION": 5,
            "NORMAL": 6,
            "TEXCOORD_0": 7,
            "TEXCOORD_1": 8
          },
          "indices": 9,
          "material": 1
        }
      ]
    }
  ],
  "textures": [
    {
      "source": 0
    },
    {
      "source": 1
    },
    {
      "source": 2
    }
  ],
  "images": [
    {
      "uri": "textures/T_wood_06_BC.png"
    },
    {
      "uri": "textures/T_wood_06_N.png"
    },
    {
      "uri": "textures/T_wood_detail_01_BC.png"
    }
  ],
  "accessors": [
    {
      "bufferView": 0,
      "componentType": 5126,
      "count": 184,
      "max": [
        0.4201585054397583,
        4.481630325317383,
        2.897798538208008
      ],
      "min": [
        -0.47161784768104553,
        -7.049296527839033e-06,
        -2.9631025791168213
      ],
      "type": "VEC3"
    },
    {
      "bufferView": 1,
      "componentType": 5126,
      "count": 184,
      "type": "VEC3"
    },
    {
      "bufferView": 2,
      "componentType": 5126,
      "count": 184,
      "type": "VEC2"
    },
    {
      "bufferView": 3,
      "componentType": 5126,
      "count": 184,
      "type": "VEC2"
    },
    {
      "bufferView": 4,
      "componentType": 5123,
      "count": 396,
      "type": "SCALAR"
    },
    {
      "bufferView": 5,
      "componentType": 5126,
      "count": 77,
      "max": [
        0.35002031922340393,
        4.906314373016357,
        2.897798538208008
      ],
      "min": [
        -0.47161784768104553,
        3.4920146465301514,
        -2.9631025791168213
      ],
      "type": "VEC3"
    },
    {
      "bufferView": 6,
      "componentType": 5126,
      "count": 77,
      "type": "VEC3"
    },
    {
      "bufferView": 7,
      "componentType": 5126,
      "count": 77,
      "type": "VEC2"
    },
    {
      "bufferView": 8,
      "componentType": 5126,
      "count": 77,
      "type": "VEC2"
    },
    {
      "bufferView": 9,
      "componentType": 5123,
      "count": 198,
      "type": "SCALAR"
    }
  ],
  "bufferViews": [
    {
      "buffer": 0,
      "byteLength": 2208,
      "byteOffset": 0,
      "target": 34962
    },
    {
      "buffer": 0,
      "byteLength": 2208,
      "byteOffset": 2208,
      "target": 34962
    },
    {
      "buffer": 0,
      "byteLength": 1472,
      "byteOffset": 4416,
      "target": 34962
    },
    {
      "buffer": 0,
      "byteLength": 1472,
      "byteOffset": 5888,
      "target": 34962
    },
    {
      "buffer": 0,
      "byteLength": 792,
      "byteOffset": 7360,
      "target": 34963
    },
    {
      "buffer": 0,
      "byteLength": 924,
      "byteOffset": 8152,
      "target": 34962
    },
    {
      "buffer": 0,
      "byteLength": 924,
      "byteOffset": 9076,
      "target": 34962
    },
    {
      "buffer": 0,
      "byteLength": 616,
      "byteOffset": 10000,
      "target": 34962
    },
    {
      "buffer": 0,
      "byteLength": 616,
      "byteOffset": 10616,
      "target": 34962
    },
    {
      "buffer": 0,
      "byteLength": 396,
      "byteOffset": 11232,
      "target": 34963
    }
  ],
  "samplers": [
    {
      "magFilter": 9729,
      "minFilter": 9987
    }
  ],
  "buffers": [
    {
      "byteLength": 11628,
      "uri": "wall_wood_post_04.bin"
    }
  ]
}