{
  "asset": {
    "generator": "Khronos glTF Blender I/O v5.2.39",
    "version": "2.0"
  },
  "extensionsUsed": [
    "KHR_materials_specular"
  ],
  "scene": 0,
  "scenes": [
    {
      "name": "Scene",
      "nodes": [
        1
      ]
    }
  ],
  "nodes": [
    {
      "mesh": 0,
      "name": "SM_BLD_waterwheel",
      "rotation": [
        0.7071068286895752,
        0,
        0,
        0.7071068286895752
      ],
      "scale": [
        0.009999999776482582,
        0.009999999776482582,
        0.009999999776482582
      ],
      "translation": [
        0,
        3.225695848464966,
        0.1222689151763916
      ]
    },
    {
      "children": [
        0
      ],
      "mesh": 1,
      "name": "SM_BLD_waterwheel_construct",
      "translation": [
        0,
        0.025695925578475,
        0.1222691535949707
      ]
    }
  ],
  "materials": [
    {
      "doubleSided": true,
      "extensions": {
        "KHR_materials_specular": {
          "specularFactor": 0.41176465153694153
        }
      },
      "name": "M_metal_02",
      "pbrMetallicRoughness": {
        "baseColorTexture": {
          "index": 0
        },
        "metallicFactor": 0.0,
        "roughnessFactor": 0.8
      },
      "alphaMode": "OPAQUE"
    },
    {
      "doubleSided": true,
      "extensions": {
        "KHR_materials_specular": {
          "specularFactor": 0
        }
      },
      "name": "M_wood_07",
      "normalTexture": {
        "index": 2
      },
      "pbrMetallicRoughness": {
        "baseColorTexture": {
          "index": 1
        },
        "metallicFactor": 0.0,
        "roughnessFactor": 0.8
      },
      "alphaMode": "OPAQUE"
    },
    {
      "doubleSided": true,
      "extensions": {
        "KHR_materials_specular": {
          "specularFactor": 0
        }
      },
      "name": "M_planks_04",
      "pbrMetallicRoughness": {
        "baseColorTexture": {
          "index": 3
        },
        "metallicFactor": 0.0,
        "roughnessFactor": 0.8
      },
      "alphaMode": "OPAQUE"
    },
    {
      "doubleSided": true,
      "extensions": {
        "KHR_materials_specular": {
          "specularFactor": 0
        }
      },
      "name": "M_stonebrick_02",
      "pbrMetallicRoughness": {
        "baseColorTexture": {
          "index": 4
        },
        "metallicFactor": 0.0,
        "roughnessFactor": 0.8
      },
      "alphaMode": "OPAQUE"
    },
    {
      "doubleSided": true,
      "extensions": {
        "KHR_materials_specular": {
          "specularFactor": 0
        }
      },
      "name": "M_wood_06",
      "normalTexture": {
        "index": 6
      },
      "pbrMetallicRoughness": {
        "baseColorTexture": {
          "index": 5
        },
        "metallicFactor": 0.0,
        "roughnessFactor": 0.8
      },
      "alphaMode": "OPAQUE"
    }
  ],
  "meshes": [
    {
      "name": "Mesh.2416",
      "primitives": [
        {
          "attributes": {
            "POSITION": 0,
            "NORMAL": 1,
            "TEXCOORD_0": 2,
            "TEXCOORD_1": 3
          },
          "indices": 4,
          "material": 0
        },
        {
          "attributes": {
            "POSITION": 5,
            "NORMAL": 6,
            "TEXCOORD_0": 7,
            "TEXCOORD_1": 8
          },
          "indices": 9,
          "material": 1
        },
        {
          "attributes": {
            "POSITION": 10,
            "NORMAL": 11,
            "TEXCOORD_0": 12,
            "TEXCOORD_1": 13
          },
          "indices": 14,
          "material": 2
        }
      ]
    },
    {
      "name": "Mesh.1944",
      "primitives": [
        {
          "attributes": {
            "POSITION": 15,
            "NORMAL": 16,
            "TEXCOORD_0": 17,
            "TEXCOORD_1": 18
          },
          "indices": 19,
          "material": 3
        },
        {
          "attributes": {
            "POSITION": 20,
            "NORMAL": 21,
            "TEXCOORD_0": 22,
            "TEXCOORD_1": 23
          },
          "indices": 24,
          "material": 4
        },
        {
          "attributes": {
            "POSITION": 25,
            "NORMAL": 26,
            "TEXCOORD_0": 27,
            "TEXCOORD_1": 28
          },
          "indices": 29,
          "material": 0
        }
      ]
    }
  ],
  "textures": [
    {
      "source": 0
    },
    {
      "source": 1
    },
    {
      "source": 2
    },
    {
      "source": 3
    },
    {
      "source": 4
    },
    {
      "source": 5
    },
    {
      "source": 6
    }
  ],
  "images": [
    {
      "uri": "textures/T_metal_02_BC.png"
    },
    {
      "uri": "textures/T_wood_07_BC.png"
    },
    {
      "uri": "textures/T_wood_07_N.png"
    },
    {
      "uri": "textures/T_wood_planks_04_BC.png"
    },
    {
      "uri": "textures/T_stonebrick_02_BC.png"
    },
    {
      "uri": "textures/T_wood_06_BC.png"
    },
    {
      "uri": "textures/T_wood_06_N.png"
    }
  ],
  "accessors": [
    {
      "bufferView": 0,
      "componentType": 5126,
      "count": 80,
      "max": [
        22.46772003173828,
        168.7878875732422,
        25.52037239074707
      ],
      "min": [
        -22.4677734375,
        -134.28919982910156,
        -20.236469268798828
      ],
      "type": "VEC3"
    },
    {
      "bufferView": 1,
      "componentType": 5126,
      "count": 80,
      "type": "VEC3"
    },
    {
      "bufferView": 2,
      "componentType": 5126,
      "count": 80,
      "type": "VEC2"
    },
    {
      "bufferView": 3,
      "componentType": 5126,
      "count": 80,
      "type": "VEC2"
    },
    {
      "bufferView": 4,
      "componentType": 5123,
      "count": 180,
      "type": "SCALAR"
    },
    {
      "bufferView": 5,
      "componentType": 5126,
      "count": 1024,
      "max": [
        304.6840515136719,
        102.76612091064453,
        307.3260192871094
      ],
      "min": [
        -304.68408203125,
        -106.35411834716797,
        -302.0421142578125
      ],
      "type": "VEC3"
    },
    {
      "bufferView": 6,
      "componentType": 5126,
      "count": 1024,
      "type": "VEC3"
    },
    {
      "bufferView": 7,
      "componentType": 5126,
      "count": 1024,
      "type": "VEC2"
    },
    {
      "bufferView": 8,
      "componentType": 5126,
      "count": 1024,
      "type": "VEC2"
    },
    {
      "bufferView": 9,
      "componentType": 5123,
      "count": 2064,
      "type": "SCALAR"
    },
    {
      "bufferView": 10,
      "componentType": 5126,
      "count": 408,
      "max": [
        311.86590576171875,
        116.65901184082031,
        314.5078430175781
      ],
      "min": [
        -311.8659362792969,
        -120.24700927734375,
        -309.2239685058594
      ],
      "type": "VEC3"
    },
    {
      "bufferView": 11,
      "componentType": 5126,
      "count": 408,
      "type": "VEC3"
    },
    {
      "bufferView": 12,
      "componentType": 5126,
      "count": 408,
      "type": "VEC2"
    },
    {
      "bufferView": 13,
      "componentType": 5126,
      "count": 408,
      "type": "VEC2"
    },
    {
      "bufferView": 14,
      "componentType": 5123,
      "count": 1152,
      "type": "SCALAR"
    },
    {
      "bufferView": 15,
      "componentType": 5126,
      "count": 36,
      "max": [
        1.4035613536834717,
        3.0687906742095947,
        2.7644052505493164
      ],
      "min": [
        -1.2958652973175049,
        -0.0213786493986845,
        1.4016598463058472
      ],
      "type": "VEC3"
    },
    {
      "bufferView": 16,
      "componentType": 5126,
      "count": 36,
      "type": "VEC3"
    },
    {
      "bufferView": 17,
      "componentType": 5126,
      "count": 36,
      "type": "VEC2"
    },
    {
      "bufferView": 18,
      "componentType": 5126,
      "count": 36,
      "type": "VEC2"
    },
    {
      "bufferView": 19,
      "componentType": 5123,
      "count": 84,
      "type": "SCALAR"
    },
    {
      "bufferView": 20,
      "componentType": 5126,
      "count": 368,
      "max": [
        2.469914436340332,
        7.331576824188232,
        2.345191478729248
      ],
      "min": [
        -1.9291335344314575,
        -0.025695925578475,
        -3
      ],
      "type": "VEC3"
    },
    {
      "bufferView": 21,
      "componentType": 5126,
      "count": 368,
      "type": "VEC3"
    },
    {
      "bufferView": 22,
      "componentType": 5126,
      "count": 368,
      "type": "VEC2"
    },
    {
      "bufferView": 23,
      "componentType": 5126,
      "count": 368,
      "type": "VEC2"
    },
    {
      "bufferView": 24,
      "componentType": 5123,
      "count": 804,
      "type": "SCALAR"
    },
    {
      "bufferView": 25,
      "componentType": 5126,
      "count": 121,
      "max": [
        0.6251620054244995,
        6.584407806396484,
        2.1451632976531982
      ],
      "min": [
        -1.1366583108901978,
        2.4550399780273438,
        -3.008943557739258
      ],
      "type": "VEC3"
    },
    {
      "bufferView": 26,
      "componentType": 5126,
      "count": 121,
      "type": "VEC3"
    },
    {
      "bufferView": 27,
      "componentType": 5126,
      "count": 121,
      "type": "VEC2"
    },
    {
      "bufferView": 28,
      "componentType": 5126,
      "count": 121,
      "type": "VEC2"
    },
    {
      "bufferView": 29,
      "componentType": 5123,
      "count": 258,
      "type": "SCALAR"
    }
  ],
  "bufferViews": [
    {
      "buffer": 0,
      "byteLength": 960,
      "byteOffset": 0,
      "target": 34962
    },
    {
      "buffer": 0,
      "byteLength": 960,
      "byteOffset": 960,
      "target": 34962
    },
    {
      "buffer": 0,
      "byteLength": 640,
      "byteOffset": 1920,
      "target": 34962
    },
    {
      "buffer": 0,
      "byteLength": 640,
      "byteOffset": 2560,
      "target": 34962
    },
    {
      "buffer": 0,
      "byteLength": 360,
      "byteOffset": 3200,
      "target": 34963
    },
    {
      "buffer": 0,
      "byteLength": 12288,
      "byteOffset": 3560,
      "target": 34962
    },
    {
      "buffer": 0,
      "byteLength": 12288,
      "byteOffset": 15848,
      "target": 34962
    },
    {
      "buffer": 0,
      "byteLength": 8192,
      "byteOffset": 28136,
      "target": 34962
    },
    {
      "buffer": 0,
      "byteLength": 8192,
      "byteOffset": 36328,
      "target": 34962
    },
    {
      "buffer": 0,
      "byteLength": 4128,
      "byteOffset": 44520,
      "target": 34963
    },
    {
      "buffer": 0,
      "byteLength": 4896,
      "byteOffset": 48648,
      "target": 34962
    },
    {
      "buffer": 0,
      "byteLength": 4896,
      "byteOffset": 53544,
      "target": 34962
    },
    {
      "buffer": 0,
      "byteLength": 3264,
      "byteOffset": 58440,
      "target": 34962
    },
    {
      "buffer": 0,
      "byteLength": 3264,
      "byteOffset": 61704,
      "target": 34962
    },
    {
      "buffer": 0,
      "byteLength": 2304,
      "byteOffset": 64968,
      "target": 34963
    },
    {
      "buffer": 0,
      "byteLength": 432,
      "byteOffset": 67272,
      "target": 34962
    },
    {
      "buffer": 0,
      "byteLength": 432,
      "byteOffset": 67704,
      "target": 34962
    },
    {
      "buffer": 0,
      "byteLength": 288,
      "byteOffset": 68136,
      "target": 34962
    },
    {
      "buffer": 0,
      "byteLength": 288,
      "byteOffset": 68424,
      "target": 34962
    },
    {
      "buffer": 0,
      "byteLength": 168,
      "byteOffset": 68712,
      "target": 34963
    },
    {
      "buffer": 0,
      "byteLength": 4416,
      "byteOffset": 68880,
      "target": 34962
    },
    {
      "buffer": 0,
      "byteLength": 4416,
      "byteOffset": 73296,
      "target": 34962
    },
    {
      "buffer": 0,
      "byteLength": 2944,
      "byteOffset": 77712,
      "target": 34962
    },
    {
      "buffer": 0,
      "byteLength": 2944,
      "byteOffset": 80656,
      "target": 34962
    },
    {
      "buffer": 0,
      "byteLength": 1608,
      "byteOffset": 83600,
      "target": 34963
    },
    {
      "buffer": 0,
      "byteLength": 1452,
      "byteOffset": 85208,
      "target": 34962
    },
    {
      "buffer": 0,
      "byteLength": 1452,
      "byteOffset": 86660,
      "target": 34962
    },
    {
      "buffer": 0,
      "byteLength": 968,
      "byteOffset": 88112,
      "target": 34962
    },
    {
      "buffer": 0,
      "byteLength": 968,
      "byteOffset": 89080,
      "target": 34962
    },
    {
      "buffer": 0,
      "byteLength": 516,
      "byteOffset": 90048,
      "target": 34963
    }
  ],
  "samplers": [
    {
      "magFilter": 9729,
      "minFilter": 9987
    }
  ],
  "buffers": [
    {
      "byteLength": 90564,
      "uri": "waterwheel_construct.bin"
    }
  ]
}